<?xml version="1.0" encoding="UTF-8" standalone="no"?>
<!-- Generator: Adobe Illustrator 16.0.0, SVG Export Plug-In . SVG Version: 6.00 Build 0)  -->

<svg
   xmlns:dc="http://purl.org/dc/elements/1.1/"
   xmlns:cc="http://creativecommons.org/ns#"
   xmlns:rdf="http://www.w3.org/1999/02/22-rdf-syntax-ns#"
   xmlns:svg="http://www.w3.org/2000/svg"
   xmlns="http://www.w3.org/2000/svg"
   xmlns:sodipodi="http://sodipodi.sourceforge.net/DTD/sodipodi-0.dtd"
   xmlns:inkscape="http://www.inkscape.org/namespaces/inkscape"
   version="1.1"
   id="Layer_1"
   x="0px"
   y="0px"
   width="23.844"
   height="17.186001"
   viewBox="0 0 23.844 17.186001"
   enable-background="new 0 0 39.604 41.771"
   xml:space="preserve"
   inkscape:version="0.91 r13725"
   sodipodi:docname="coffee-filter.svg"><metadata
     id="metadata57"><rdf:RDF><cc:Work
         rdf:about=""><dc:format>image/svg+xml</dc:format><dc:type
           rdf:resource="http://purl.org/dc/dcmitype/StillImage" /><dc:title></dc:title></cc:Work></rdf:RDF></metadata><defs
     id="defs55" /><sodipodi:namedview
     pagecolor="#ffffff"
     bordercolor="#666666"
     borderopacity="1"
     objecttolerance="10"
     gridtolerance="10"
     guidetolerance="10"
     inkscape:pageopacity="0"
     inkscape:pageshadow="2"
     inkscape:window-width="993"
     inkscape:window-height="586"
     id="namedview53"
     showgrid="false"
     inkscape:zoom="5.6498528"
     inkscape:cx="20.598481"
     inkscape:cy="20.8855"
     inkscape:window-x="20"
     inkscape:window-y="43"
     inkscape:window-maximized="0"
     inkscape:current-layer="Layer_1" /><g
     id="g3"
     transform="translate(-5.9095283,-12.292959)"><path
       stroke-miterlimit="10"
       d="m 6.088,17.031 c 0,0 3.634,9.992 6.888,11.309 0,0 4.57,2.285 10.38,0 0.904,-0.356 1.948,-1.684 4.145,-6.159 0,0 1.43,-2.669 2.09,-5.15 l -23.503,0 z"
       id="path5"
       inkscape:connector-curvature="0"
       style="fill:#ffffff;stroke:#000000;stroke-width:0.25;stroke-miterlimit:10" /><path
       stroke-miterlimit="10"
       d="M 10.264,19.973 C 10.253,19.836 10.38,19.199 9.954,19.501 9.609,19.668 8.574,20.655 8.09,20.073 7.588,19.471 9.273,19.078 8.858,18.496 8.5,17.994 7.592,19.327 7.084,18.97 6.506,18.563 8.05,18.238 8.006,17.739 7.583,17.731 6.72,18.793 6.367,18.293 6.003,17.776 7.38,17.482 7.308,16.965 6.863,16.921 6.177,17.476 6.087,17.032 c 0.2,-0.515 1.426,-0.834 1.145,-0.997 -0.259,0.089 -0.647,0.259 -0.677,-0.029 0.275,-0.471 0.802,-0.659 1.29,-0.854 0.594,-0.238 0.733,-0.599 1.259,-0.891 0.465,-0.259 1.158,-0.018 1.642,-0.231 0.224,-0.099 0.453,-0.366 0.684,-0.481 0.217,-0.109 0.475,-0.129 0.693,-0.237 0.587,-0.288 0.739,-0.468 1.472,-0.464 0.692,0.003 1.014,-0.249 1.623,-0.39 0.645,-0.148 1.031,0.151 1.613,0.174 0.484,0.02 1.066,-0.064 1.645,-0.019 0.608,0.047 1.231,-0.097 1.861,0 0.546,0.084 0.986,0.282 1.624,0.312 1.041,0.049 2.524,0.26 3.469,0.717 0.465,0.225 0.819,0.518 1.336,0.68 0.699,0.219 0.843,0.422 1.453,0.873 0.484,0.357 1.799,0.907 1.244,2.289 -0.521,0.139 -0.05,0.614 -0.545,0.927 -0.326,0.207 -0.991,-0.294 -1.367,-0.128 -0.477,0.298 0.641,1.435 -0.631,1.46 -0.707,0.014 -1.327,-1.114 -1.625,-0.599 -0.108,0.603 -0.412,1.174 -1.087,1.218 -0.714,0.047 -0.863,-0.537 -1.393,-0.795 -0.95,-0.463 -1.513,1.18 -2.713,0.563 -0.41,-0.211 -0.779,-0.863 -1.241,-0.854 -0.484,0.01 -0.807,0.763 -1.299,0.873 -0.873,0.195 -0.567,-0.484 -1.158,-0.812 -0.635,-0.354 -0.794,0.26 -1.28,0.542 -1.413,0.82 -1.904,-0.85 -2.926,-0.232 -0.471,0.285 -0.721,0.879 -1.312,0.95 0,-0.002 -0.545,0.306 -0.622,-0.624 z"
       id="path7"
       inkscape:connector-curvature="0"
       style="fill:#ffffff;stroke:#000000;stroke-width:0.25;stroke-miterlimit:10" /><path
       stroke-miterlimit="10"
       d="m 10.496,20.554 c 0.129,0.681 0.519,1.436 0.744,2.092 0.216,0.622 0.533,1.202 0.758,1.821 0.225,0.619 0.571,1.342 0.899,1.937 0.304,0.549 0.397,1.036 0.669,1.587 0.115,0.233 0.227,0.465 0.338,0.698"
       id="path9"
       inkscape:connector-curvature="0"
       style="fill:none;stroke:#000000;stroke-width:0.25;stroke-miterlimit:10" /><path
       stroke-miterlimit="10"
       d="m 8.134,20.128 c 0.245,0.616 0.667,1.157 0.92,1.782 0.257,0.638 0.517,1.27 0.853,1.859 0.564,0.99 0.941,2.089 1.723,2.934 0.238,0.257 0.496,0.49 0.688,0.784 0.155,0.239 0.286,0.685 0.58,0.775"
       id="path11"
       inkscape:connector-curvature="0"
       style="fill:none;stroke:#000000;stroke-width:0.25;stroke-miterlimit:10" /><path
       stroke-miterlimit="10"
       d="m 13.053,19.586 c 0.031,0.308 0.26,0.653 0.358,0.968 0.115,0.37 0.206,0.748 0.262,1.126 0.106,0.725 0.179,1.479 0.378,2.167 0.355,1.23 0.539,2.499 0.937,3.682 0.178,0.528 0.383,1.077 0.583,1.586"
       id="path13"
       inkscape:connector-curvature="0"
       style="fill:none;stroke:#000000;stroke-width:0.25;stroke-miterlimit:10" /><path
       stroke-miterlimit="10"
       d="m 15.88,19.276 c -0.317,0.858 -0.158,2.053 -0.075,2.942 0.072,0.775 0.148,1.513 0.261,2.276 0.197,1.349 0.347,2.709 0.396,4.077 0.008,0.219 -0.033,0.46 0.039,0.659"
       id="path15"
       inkscape:connector-curvature="0"
       style="fill:none;stroke:#000000;stroke-width:0.25;stroke-miterlimit:10" /><path
       stroke-miterlimit="10"
       d="m 16.268,19.354 c -0.172,0.503 -0.031,1.382 0.039,2.014 0.091,0.832 0.232,1.631 0.271,2.478 0.061,1.333 0.36,2.581 0.61,3.836 0.062,0.309 0.065,0.621 0.126,0.929 0.043,0.216 0.169,0.644 0.192,0.659"
       id="path17"
       inkscape:connector-curvature="0"
       style="fill:none;stroke:#000000;stroke-width:0.25;stroke-miterlimit:10" /><path
       stroke-miterlimit="10"
       d="m 18.901,19.314 c -0.005,0.728 -0.165,1.39 -0.233,2.09 -0.071,0.727 -0.038,1.481 -0.076,2.209 -0.072,1.335 0.078,2.619 0.078,3.951 0,0.325 -0.167,1.665 -0.04,1.743"
       id="path19"
       inkscape:connector-curvature="0"
       style="fill:none;stroke:#000000;stroke-width:0.25;stroke-miterlimit:10" /><path
       stroke-miterlimit="10"
       d="m 19.327,19.547 c 0.034,1.627 0.049,3.495 -0.029,5.182 -0.063,1.341 -0.108,2.715 -0.046,4.035 0.008,0.165 -0.019,0.317 0.037,0.467"
       id="path21"
       inkscape:connector-curvature="0"
       style="fill:none;stroke:#000000;stroke-width:0.25;stroke-miterlimit:10" /><path
       stroke-miterlimit="10"
       d="m 22.427,19.47 c -0.161,0.957 -0.315,1.901 -0.466,2.866 -0.107,0.689 -0.214,1.453 -0.426,2.132 -0.426,1.372 -0.543,2.82 -0.852,4.182 -0.027,0.124 -0.146,0.538 -0.116,0.464"
       id="path23"
       inkscape:connector-curvature="0"
       style="fill:none;stroke:#000000;stroke-width:0.25;stroke-miterlimit:10" /><path
       stroke-miterlimit="10"
       d="m 25.253,19.461 c -0.349,1.477 -0.64,2.761 -1.123,4.192 -0.444,1.316 -0.979,2.697 -1.518,3.951 -0.171,0.399 -0.261,0.747 -0.341,1.162"
       id="path25"
       inkscape:connector-curvature="0"
       style="fill:none;stroke:#000000;stroke-width:0.25;stroke-miterlimit:10" /><path
       stroke-miterlimit="10"
       d="m 27.484,19.547 c 0,0.31 -0.111,0.655 -0.246,1.007 -0.157,0.413 -0.312,0.827 -0.475,1.242 -0.317,0.812 -0.584,1.642 -0.938,2.439 -0.328,0.741 -0.758,1.439 -1.183,2.129 -0.33,0.537 -0.598,1.131 -0.968,1.637 -0.075,0.102 -0.17,0.216 -0.242,0.3"
       id="path27"
       inkscape:connector-curvature="0"
       style="fill:none;stroke:#000000;stroke-width:0.25;stroke-miterlimit:10" /><path
       stroke-miterlimit="10"
       d="m 9.974,14.128 c -0.729,-0.011 -0.747,0.587 -1.299,0.955 -0.142,0.094 -0.36,0.141 -0.465,0.282 -0.116,0.157 -0.042,0.353 -0.115,0.541 -0.057,0.147 -0.22,0.222 -0.234,0.387 -0.019,0.213 0.273,0.019 0.085,0.459 0.053,0.258 0.401,0.071 0.459,0.354 0.065,0.319 -0.068,0.382 0.388,0.388 0.809,0.01 0.252,0.349 0.548,0.924 0.672,0.238 1.104,-0.633 1.651,-0.18 0.41,0.339 -0.229,1.712 0.521,1.04 0.488,-0.438 0.79,-0.989 1.501,-1.086 0.783,-0.106 0.576,0.74 1.17,0.845 0.594,0.105 1.081,-1.088 1.581,-1.301 0.725,-0.31 1.153,0.075 1.539,0.62 0.671,0.947 0.855,-0.023 1.52,-0.396 0.269,-0.15 0.658,-0.177 0.931,-0.003 0.273,0.174 0.31,0.542 0.572,0.709 0.772,0.492 0.937,-0.663 1.675,-0.552 0.605,0.09 0.99,0.798 1.549,0.931 0.907,0.217 0.812,-0.911 1.481,-1.115 0.456,-0.14 1.446,0.573 1.618,-0.009 0.076,-0.256 -0.172,-0.392 0.231,-0.543 0.214,-0.08 0.604,0.038 0.747,-0.183 0.149,-0.23 -0.114,-0.512 -0.051,-0.747 0.085,-0.309 0.487,-0.218 0.546,-0.424 0.066,-0.231 -0.386,-0.381 -0.545,-0.505 -0.089,-0.07 -0.214,-0.163 -0.279,-0.261 -0.103,-0.151 0.081,-0.163 0.047,-0.262 -0.05,-0.146 -0.03,-0.195 -0.271,-0.338 -0.112,-0.067 -0.299,-0.033 -0.426,-0.07 -0.202,-0.059 -0.53,-0.193 -0.384,-0.463 -0.071,-0.058 -0.198,-0.139 -0.275,-0.155"
       id="path29"
       inkscape:connector-curvature="0"
       style="fill:none;stroke:#000000;stroke-width:0.25;stroke-miterlimit:10" /><path
       stroke-miterlimit="10"
       d="m 8.753,15.024 c 0.256,0.553 0.387,1.309 0.591,1.88 0.173,0.483 0.465,0.935 0.648,1.403"
       id="path31"
       inkscape:connector-curvature="0"
       style="fill:none;stroke:#000000;stroke-width:0.25;stroke-miterlimit:10" /><path
       stroke-miterlimit="10"
       d="m 9.876,14.124 c 0.131,0.487 0.382,0.962 0.542,1.434 0.151,0.446 0.222,0.913 0.349,1.357 0.216,0.75 0.613,1.592 0.814,2.284"
       id="path33"
       inkscape:connector-curvature="0"
       style="fill:none;stroke:#000000;stroke-width:0.25;stroke-miterlimit:10" /><path
       stroke-miterlimit="10"
       d="m 11.697,13.466 c -0.034,0.502 0.303,1.085 0.416,1.579 0.086,0.378 0.126,0.758 0.204,1.133 0.134,0.655 0.249,1.493 0.387,2.052"
       id="path35"
       inkscape:connector-curvature="0"
       style="fill:none;stroke:#000000;stroke-width:0.25;stroke-miterlimit:10" /><path
       stroke-miterlimit="10"
       d="m 13.789,12.846 c 0.024,0.613 0.338,1.25 0.464,1.86 0.126,0.607 0.155,1.234 0.155,1.856 0,0.775 -0.025,1.671 0.155,2.403"
       id="path37"
       inkscape:connector-curvature="0"
       style="fill:none;stroke:#000000;stroke-width:0.25;stroke-miterlimit:10" /><path
       stroke-miterlimit="10"
       d="m 16.461,12.614 c 0.077,0.921 0.146,1.869 0.193,2.828 0.039,0.765 -0.064,1.536 -0.038,2.285"
       id="path39"
       inkscape:connector-curvature="0"
       style="fill:none;stroke:#000000;stroke-width:0.25;stroke-miterlimit:10" /><path
       stroke-miterlimit="10"
       d="m 18.63,12.691 c 0.173,0.615 0.078,1.387 0.078,2.024 0,0.518 0.045,1.068 -0.048,1.57 -0.065,0.354 -0.176,0.715 -0.223,1.055 -0.043,0.317 -0.023,0.689 -0.078,1.006"
       id="path41"
       inkscape:connector-curvature="0"
       style="fill:none;stroke:#000000;stroke-width:0.25;stroke-miterlimit:10" /><path
       stroke-miterlimit="10"
       d="m 20.877,12.691 c -0.188,0.552 -0.076,1.373 -0.157,1.975 -0.066,0.496 -0.142,0.99 -0.239,1.473 -0.144,0.721 -0.241,1.467 -0.417,2.169"
       id="path43"
       inkscape:connector-curvature="0"
       style="fill:none;stroke:#000000;stroke-width:0.25;stroke-miterlimit:10" /><path
       stroke-miterlimit="10"
       d="m 22.774,12.962 c 0.019,0.617 -0.146,1.256 -0.26,1.86 -0.084,0.44 -0.083,0.882 -0.164,1.316 -0.128,0.679 -0.485,1.301 -0.583,1.975"
       id="path45"
       inkscape:connector-curvature="0"
       style="fill:none;stroke:#000000;stroke-width:0.25;stroke-miterlimit:10" /><path
       stroke-miterlimit="10"
       d="m 24.557,13.389 c -0.059,0.445 -0.24,1.462 -0.272,2.061 -0.032,0.617 -0.117,1.193 -0.301,1.773 -0.107,0.343 -0.479,1.497 -0.644,1.743"
       id="path47"
       inkscape:connector-curvature="0"
       style="fill:none;stroke:#000000;stroke-width:0.25;stroke-miterlimit:10" /><path
       stroke-miterlimit="10"
       d="m 26.102,14.017 c -0.15,0.301 -0.304,0.867 -0.353,1.152 -0.074,0.429 -0.169,0.854 -0.292,1.271 -0.139,0.475 -0.462,1.044 -0.513,1.519"
       id="path49"
       inkscape:connector-curvature="0"
       style="fill:none;stroke:#000000;stroke-width:0.25;stroke-miterlimit:10" /><path
       stroke-miterlimit="10"
       d="m 27.307,15.287 c 0.229,0.376 -0.606,1.349 -0.813,1.704 -0.147,0.255 -0.367,0.971 -0.542,1.046"
       id="path51"
       inkscape:connector-curvature="0"
       style="fill:none;stroke:#000000;stroke-width:0.25;stroke-miterlimit:10" /></g></svg>