<?xml version="1.0" encoding="UTF-8" standalone="no"?>
<!-- Generator: Adobe Illustrator 16.0.0, SVG Export Plug-In . SVG Version: 6.00 Build 0)  -->

<svg
   xmlns:dc="http://purl.org/dc/elements/1.1/"
   xmlns:cc="http://creativecommons.org/ns#"
   xmlns:rdf="http://www.w3.org/1999/02/22-rdf-syntax-ns#"
   xmlns:svg="http://www.w3.org/2000/svg"
   xmlns="http://www.w3.org/2000/svg"
   xmlns:sodipodi="http://sodipodi.sourceforge.net/DTD/sodipodi-0.dtd"
   xmlns:inkscape="http://www.inkscape.org/namespaces/inkscape"
   version="1.1"
   id="Layer_1"
   x="0px"
   y="0px"
   width="17.549999"
   height="19.552"
   viewBox="0 0 17.549999 19.552"
   enable-background="new 0 0 39.604 41.771"
   xml:space="preserve"
   inkscape:version="0.91 r13725"
   sodipodi:docname="coffee-grounds.svg"><metadata
     id="metadata69"><rdf:RDF><cc:Work
         rdf:about=""><dc:format>image/svg+xml</dc:format><dc:type
           rdf:resource="http://purl.org/dc/dcmitype/StillImage" /><dc:title></dc:title></cc:Work></rdf:RDF></metadata><defs
     id="defs67" /><sodipodi:namedview
     pagecolor="#ffffff"
     bordercolor="#666666"
     borderopacity="1"
     objecttolerance="10"
     gridtolerance="10"
     guidetolerance="10"
     inkscape:pageopacity="0"
     inkscape:pageshadow="2"
     inkscape:window-width="815"
     inkscape:window-height="541"
     id="namedview65"
     showgrid="false"
     inkscape:zoom="5.6498528"
     inkscape:cx="20.598481"
     inkscape:cy="20.8855"
     inkscape:window-x="20"
     inkscape:window-y="43"
     inkscape:window-maximized="0"
     inkscape:current-layer="Layer_1" /><g
     id="g3"
     transform="translate(-11.427762,-11.109519)"><g
       id="g5"><path
         d="m 17.287,20.035 c -0.003,-0.002 -0.006,-0.003 -0.009,-0.005 -0.716,-1.129 -3.748,-0.574 -2.919,0.872 0.381,0.664 1.562,0.753 2.219,0.599 0.615,-0.145 1.357,-0.893 0.709,-1.466 z m -0.141,0.056 c 0,0.017 0.005,0.034 0.018,0.052 0.073,0.095 0.122,0.183 0.153,0.265 -0.026,0.005 -0.052,0.02 -0.065,0.051 -0.261,0.581 -0.932,0.025 -1.275,-0.147 -0.27,-0.135 -0.563,-0.238 -0.87,-0.219 -0.178,0.011 -0.495,0.087 -0.653,0.247 0.164,-0.995 2.068,-0.895 2.692,-0.249 z m -1.27,1.27 c -0.462,-0.025 -1.278,-0.167 -1.413,-0.723 0.004,-0.008 0.007,-0.018 0.005,-0.029 -0.055,-0.479 0.938,-0.34 1.121,-0.279 0.208,0.068 0.392,0.185 0.58,0.292 0.178,0.102 0.35,0.222 0.558,0.253 0.261,0.039 0.491,-0.049 0.63,-0.252 -0.017,0.552 -1.008,0.763 -1.481,0.738 z"
         id="path7"
         inkscape:connector-curvature="0" /><path
         d="m 19.171,23.322 c 0.322,-0.762 0.367,-1.744 -0.3,-2.317 -0.003,-0.013 -0.01,-0.024 -0.022,-0.032 -0.012,-0.006 -0.022,-0.01 -0.032,-0.016 -0.003,-0.001 -0.004,-0.003 -0.007,-0.005 -0.011,-0.008 -0.022,-0.012 -0.034,-0.014 -1.253,-0.582 -2.43,2.334 -1.189,3.043 0.639,0.366 1.323,-0.043 1.584,-0.659 z m -0.572,-2.295 c -0.189,0.059 -0.314,0.296 -0.365,0.516 -0.072,0.314 -0.039,0.634 0.023,0.945 0.041,0.201 0.121,0.418 0.095,0.625 -0.046,0.258 -0.183,0.434 -0.409,0.525 -0.106,0.03 -0.197,0.086 -0.273,0.167 -0.001,-0.001 -0.003,-0.001 -0.004,-0.002 0.027,-0.07 -0.057,-0.159 -0.118,-0.093 -0.003,0.002 -0.003,0.003 -0.005,0.005 -0.785,-0.687 0.051,-2.741 1.056,-2.688 z m -0.785,2.848 c 0.313,-0.107 0.612,-0.276 0.696,-0.624 0.073,-0.309 -0.431,-2.19 0.244,-2.11 0.467,0.465 0.535,1.086 0.369,1.72 -0.155,0.594 -0.574,1.274 -1.309,1.014 z"
         id="path9"
         inkscape:connector-curvature="0" /></g><g
       id="g11"><path
         d="m 22.074,17.752 c 0.002,-0.003 0.002,-0.006 0.004,-0.01 0.953,-0.937 -0.226,-3.785 -1.466,-2.671 -0.568,0.512 -0.408,1.685 -0.12,2.295 0.272,0.572 1.157,1.14 1.582,0.386 z M 21.99,17.627 c -0.017,0.003 -0.032,0.012 -0.047,0.028 -0.077,0.092 -0.153,0.158 -0.228,0.206 -0.01,-0.025 -0.03,-0.046 -0.063,-0.053 -0.622,-0.133 -0.22,-0.906 -0.123,-1.278 0.075,-0.292 0.114,-0.601 0.031,-0.897 -0.049,-0.171 -0.189,-0.465 -0.378,-0.587 1.007,-0.048 1.309,1.835 0.808,2.581 z m -1.508,-0.976 c -0.072,-0.457 -0.104,-1.285 0.41,-1.533 0.009,0.002 0.02,0.003 0.029,-10e-4 0.457,-0.154 0.529,0.845 0.509,1.038 -0.023,0.218 -0.099,0.422 -0.164,0.628 -0.062,0.195 -0.145,0.389 -0.131,0.599 0.018,0.263 0.151,0.47 0.38,0.562 -0.544,0.099 -0.958,-0.825 -1.033,-1.293 z"
         id="path13"
         inkscape:connector-curvature="0" /><path
         d="m 19.256,20.284 c 0.813,0.155 1.782,-0.007 2.203,-0.779 0.012,-0.005 0.021,-0.015 0.026,-0.029 0.004,-0.013 0.005,-0.024 0.009,-0.035 0.001,-0.003 0.003,-0.004 0.004,-0.008 0.006,-0.012 0.007,-0.025 0.007,-0.037 0.306,-1.347 -2.792,-1.886 -3.226,-0.524 -0.223,0.703 0.321,1.287 0.977,1.412 z m 2.124,-1.041 c -0.098,-0.173 -0.356,-0.245 -0.581,-0.249 -0.322,-0.005 -0.629,0.095 -0.92,0.221 -0.188,0.082 -0.383,0.206 -0.592,0.224 -0.262,0.009 -0.462,-0.087 -0.6,-0.29 -0.052,-0.098 -0.126,-0.175 -0.221,-0.232 10e-4,-0.001 10e-4,-0.003 10e-4,-0.004 0.074,0.012 0.145,-0.088 0.066,-0.135 -0.003,-0.002 -0.004,-0.002 -0.006,-0.004 0.51,-0.911 2.695,-0.524 2.853,0.469 z m -2.949,-0.169 c 0.171,0.284 0.398,0.541 0.756,0.55 0.317,0.007 2.052,-0.881 2.114,-0.204 -0.357,0.554 -0.949,0.751 -1.604,0.722 -0.613,-0.028 -1.366,-0.295 -1.266,-1.068 z"
         id="path15"
         inkscape:connector-curvature="0" /></g><g
       id="g17"><path
         d="m 21.325,20.575 c -0.004,0 -0.006,0.002 -0.01,0.004 -1.334,0.072 -2.335,2.987 -0.667,2.973 0.765,-0.008 1.42,-0.994 1.608,-1.642 0.175,-0.608 -0.114,-1.619 -0.931,-1.335 z m -0.019,0.15 c 0.015,0.009 0.031,0.013 0.053,0.01 0.119,-0.018 0.22,-0.017 0.307,-0.003 -0.009,0.024 -0.008,0.055 0.013,0.081 0.379,0.511 -0.435,0.825 -0.753,1.04 -0.25,0.169 -0.483,0.375 -0.616,0.652 -0.077,0.161 -0.167,0.475 -0.105,0.691 -0.788,-0.632 0.231,-2.244 1.101,-2.471 z m 0.484,1.729 c -0.247,0.39 -0.771,1.033 -1.321,0.878 -0.006,-0.008 -0.014,-0.016 -0.023,-0.019 -0.444,-0.187 0.162,-0.984 0.305,-1.115 0.162,-0.148 0.354,-0.251 0.539,-0.363 0.176,-0.104 0.365,-0.195 0.494,-0.362 0.16,-0.208 0.197,-0.452 0.087,-0.672 0.474,0.285 0.173,1.253 -0.081,1.653 z"
         id="path19"
         inkscape:connector-curvature="0" /><path
         d="m 25.113,20.541 c -0.508,-0.655 -1.341,-1.174 -2.168,-0.874 -0.012,-0.004 -0.025,-0.002 -0.038,0.005 -0.012,0.007 -0.02,0.014 -0.03,0.02 -0.003,0.002 -0.005,0.002 -0.008,0.003 -0.013,0.006 -0.021,0.014 -0.029,0.023 -1.12,0.808 0.847,3.261 2.072,2.527 0.633,-0.379 0.61,-1.177 0.201,-1.704 z m -2.281,-0.625 c -0.041,0.195 0.105,0.42 0.271,0.571 0.238,0.217 0.534,0.346 0.836,0.443 0.195,0.062 0.424,0.099 0.592,0.223 0.202,0.167 0.288,0.371 0.258,0.615 -0.025,0.107 -0.021,0.214 0.012,0.32 -10e-4,0 -0.003,10e-4 -0.003,0.002 -0.048,-0.059 -0.167,-0.03 -0.14,0.058 10e-4,0.003 0.002,0.004 0.002,0.007 -0.983,0.346 -2.367,-1.389 -1.828,-2.239 z m 2.1,2.077 c 0.06,-0.326 0.059,-0.669 -0.203,-0.912 -0.233,-0.215 -2.121,-0.697 -1.72,-1.246 0.634,-0.18 1.208,0.064 1.679,0.519 0.442,0.427 0.83,1.126 0.244,1.639 z"
         id="path21"
         inkscape:connector-curvature="0" /></g><g
       id="g23"><path
         d="m 23.566,16.636 c 0.004,-10e-4 0.006,-0.003 0.01,-0.004 1.337,0.022 2.538,-2.817 0.874,-2.918 -0.764,-0.046 -1.486,0.892 -1.72,1.525 -0.215,0.593 0.001,1.623 0.836,1.397 z m 0.032,-0.148 c -0.015,-0.009 -0.031,-0.015 -0.053,-0.014 -0.12,0.01 -0.221,0.002 -0.307,-0.018 0.011,-0.024 0.012,-0.054 -0.007,-0.083 -0.342,-0.537 0.491,-0.792 0.824,-0.984 0.261,-0.151 0.508,-0.341 0.661,-0.607 0.088,-0.155 0.198,-0.461 0.152,-0.681 0.741,0.684 -0.388,2.22 -1.27,2.387 z m -0.364,-1.759 c 0.274,-0.372 0.842,-0.976 1.38,-0.784 0.005,0.007 0.012,0.016 0.021,0.02 0.431,0.218 -0.23,0.97 -0.382,1.091 -0.172,0.136 -0.37,0.226 -0.562,0.324 -0.184,0.092 -0.379,0.17 -0.519,0.327 -0.175,0.197 -0.229,0.438 -0.134,0.666 -0.453,-0.319 -0.085,-1.263 0.196,-1.644 z"
         id="path25"
         inkscape:connector-curvature="0" /><path
         d="m 23.335,19.189 c 0.813,0.155 1.782,-0.007 2.203,-0.779 0.012,-0.005 0.021,-0.015 0.026,-0.029 0.004,-0.013 0.005,-0.024 0.009,-0.035 0.001,-0.003 0.003,-0.004 0.004,-0.008 0.006,-0.012 0.007,-0.025 0.007,-0.037 0.306,-1.347 -2.792,-1.886 -3.226,-0.524 -0.223,0.703 0.321,1.287 0.977,1.412 z m 2.124,-1.041 c -0.098,-0.173 -0.356,-0.245 -0.581,-0.249 -0.322,-0.005 -0.629,0.095 -0.92,0.221 -0.188,0.082 -0.383,0.206 -0.592,0.224 -0.262,0.009 -0.462,-0.087 -0.6,-0.29 -0.052,-0.098 -0.126,-0.175 -0.221,-0.232 10e-4,-10e-4 10e-4,-0.003 10e-4,-0.004 0.074,0.012 0.145,-0.088 0.066,-0.135 -0.003,-0.002 -0.004,-0.002 -0.006,-0.004 0.51,-0.91 2.695,-0.524 2.853,0.469 z M 22.51,17.979 c 0.171,0.284 0.398,0.541 0.756,0.55 0.317,0.007 2.052,-0.881 2.114,-0.204 -0.357,0.554 -0.949,0.751 -1.604,0.722 -0.613,-0.028 -1.366,-0.295 -1.266,-1.068 z"
         id="path27"
         inkscape:connector-curvature="0" /></g><g
       id="g29"><path
         d="m 28.626,22.214 c 0.002,-0.003 0.002,-0.006 0.004,-0.01 0.953,-0.937 -0.226,-3.785 -1.466,-2.671 -0.568,0.512 -0.408,1.685 -0.12,2.295 0.271,0.572 1.157,1.14 1.582,0.386 z m -0.084,-0.125 c -0.017,0.003 -0.032,0.012 -0.047,0.028 -0.077,0.092 -0.153,0.158 -0.228,0.206 -0.01,-0.025 -0.03,-0.046 -0.063,-0.053 -0.622,-0.133 -0.22,-0.906 -0.123,-1.278 0.075,-0.292 0.114,-0.601 0.031,-0.897 -0.049,-0.171 -0.189,-0.465 -0.378,-0.587 1.007,-0.048 1.309,1.835 0.808,2.581 z m -1.508,-0.976 c -0.072,-0.457 -0.104,-1.285 0.41,-1.533 0.009,0.002 0.02,0.003 0.029,-10e-4 0.457,-0.154 0.529,0.845 0.509,1.038 -0.023,0.218 -0.099,0.422 -0.164,0.628 -0.062,0.195 -0.145,0.389 -0.131,0.599 0.018,0.263 0.151,0.47 0.38,0.562 -0.545,0.099 -0.959,-0.825 -1.033,-1.293 z"
         id="path31"
         inkscape:connector-curvature="0" /><path
         d="m 25.808,24.746 c 0.813,0.155 1.782,-0.007 2.203,-0.779 0.012,-0.005 0.021,-0.015 0.026,-0.029 0.004,-0.013 0.005,-0.024 0.009,-0.035 0.001,-0.003 0.003,-0.004 0.004,-0.008 0.006,-0.012 0.007,-0.025 0.007,-0.037 0.306,-1.347 -2.792,-1.886 -3.226,-0.524 -0.224,0.703 0.32,1.287 0.977,1.412 z m 2.124,-1.041 c -0.098,-0.173 -0.356,-0.245 -0.581,-0.249 -0.322,-0.005 -0.629,0.095 -0.92,0.221 -0.188,0.082 -0.383,0.206 -0.592,0.224 -0.262,0.009 -0.462,-0.087 -0.6,-0.29 -0.052,-0.098 -0.126,-0.175 -0.221,-0.232 10e-4,-0.001 10e-4,-0.003 10e-4,-0.004 0.074,0.012 0.145,-0.088 0.066,-0.135 -0.003,-0.002 -0.004,-0.002 -0.006,-0.004 0.51,-0.911 2.694,-0.525 2.853,0.469 z m -2.95,-0.169 c 0.171,0.284 0.398,0.541 0.756,0.55 0.317,0.007 2.052,-0.881 2.114,-0.204 -0.357,0.554 -0.949,0.751 -1.604,0.722 -0.612,-0.028 -1.365,-0.295 -1.266,-1.068 z"
         id="path33"
         inkscape:connector-curvature="0" /></g><g
       id="g35"><path
         d="m 15.962,14.728 c -0.003,-0.002 -0.006,-0.003 -0.009,-0.005 -0.716,-1.129 -3.748,-0.574 -2.919,0.872 0.381,0.664 1.562,0.753 2.219,0.599 0.615,-0.146 1.356,-0.893 0.709,-1.466 z m -0.141,0.056 c 0,0.017 0.005,0.034 0.018,0.052 0.073,0.095 0.122,0.183 0.153,0.265 -0.026,0.005 -0.052,0.02 -0.065,0.051 -0.261,0.581 -0.932,0.025 -1.275,-0.147 -0.27,-0.135 -0.563,-0.238 -0.87,-0.219 -0.178,0.011 -0.495,0.087 -0.653,0.247 0.164,-0.996 2.068,-0.896 2.692,-0.249 z m -1.27,1.269 c -0.462,-0.025 -1.278,-0.167 -1.413,-0.723 0.004,-0.008 0.007,-0.018 0.005,-0.029 -0.055,-0.479 0.938,-0.34 1.121,-0.279 0.208,0.068 0.392,0.185 0.58,0.292 0.178,0.102 0.35,0.222 0.558,0.253 0.261,0.039 0.491,-0.049 0.63,-0.252 -0.017,0.553 -1.009,0.764 -1.481,0.738 z"
         id="path37"
         inkscape:connector-curvature="0" /><path
         d="m 17.846,18.015 c 0.322,-0.762 0.367,-1.744 -0.3,-2.317 -0.003,-0.013 -0.01,-0.024 -0.022,-0.032 -0.012,-0.006 -0.022,-0.01 -0.032,-0.016 -0.003,-0.001 -0.004,-0.003 -0.007,-0.005 -0.011,-0.008 -0.022,-0.012 -0.034,-0.014 -1.253,-0.582 -2.43,2.334 -1.189,3.043 0.638,0.365 1.323,-0.044 1.584,-0.659 z M 17.273,15.72 c -0.189,0.059 -0.314,0.296 -0.365,0.516 -0.072,0.314 -0.039,0.634 0.023,0.945 0.041,0.201 0.121,0.418 0.095,0.625 -0.046,0.258 -0.183,0.434 -0.409,0.525 -0.106,0.03 -0.197,0.086 -0.273,0.167 -0.001,-0.001 -0.003,-0.001 -0.004,-0.002 0.027,-0.07 -0.057,-0.159 -0.118,-0.093 -0.003,0.002 -0.003,0.003 -0.005,0.005 -0.784,-0.688 0.052,-2.742 1.056,-2.688 z m -0.784,2.848 c 0.313,-0.107 0.612,-0.276 0.696,-0.624 0.073,-0.309 -0.431,-2.19 0.244,-2.11 0.467,0.465 0.535,1.086 0.369,1.72 -0.155,0.593 -0.574,1.274 -1.309,1.014 z"
         id="path39"
         inkscape:connector-curvature="0" /></g><g
       id="g41"><path
         d="m 15.518,25.334 c 0.003,-0.003 0.004,-0.006 0.007,-0.009 1.134,-0.706 0.604,-3.743 -0.849,-2.926 -0.667,0.375 -0.766,1.556 -0.618,2.214 0.14,0.617 0.881,1.364 1.46,0.721 z m -0.054,-0.14 c -0.018,0 -0.034,0.004 -0.053,0.017 -0.095,0.073 -0.184,0.121 -0.267,0.151 -0.004,-0.026 -0.02,-0.052 -0.05,-0.066 -0.578,-0.265 -0.018,-0.932 0.158,-1.274 0.137,-0.269 0.242,-0.562 0.226,-0.869 -0.01,-0.178 -0.083,-0.496 -0.24,-0.655 0.992,0.173 0.877,2.077 0.226,2.696 z m -1.26,-1.281 c 0.029,-0.461 0.179,-1.277 0.735,-1.407 0.008,0.004 0.018,0.007 0.028,0.005 0.479,-0.05 0.332,0.94 0.271,1.124 -0.07,0.208 -0.188,0.391 -0.297,0.578 -0.104,0.177 -0.226,0.348 -0.259,0.556 -0.04,0.26 0.046,0.492 0.249,0.632 -0.553,-0.023 -0.756,-1.016 -0.727,-1.488 z"
         id="path43"
         inkscape:connector-curvature="0" /><path
         d="m 12.216,27.191 c 0.76,0.329 1.74,0.382 2.319,-0.28 0.013,-0.002 0.024,-0.01 0.032,-0.022 0.007,-0.011 0.01,-0.022 0.017,-0.032 0.001,-0.003 0.004,-0.004 0.005,-0.007 0.009,-0.011 0.013,-0.023 0.015,-0.034 0.593,-1.248 -2.313,-2.449 -3.033,-1.214 -0.373,0.635 0.032,1.323 0.645,1.589 z m 2.3,-0.553 c -0.058,-0.19 -0.295,-0.317 -0.513,-0.37 -0.313,-0.075 -0.635,-0.044 -0.946,0.016 -0.201,0.039 -0.419,0.118 -0.626,0.089 -0.258,-0.048 -0.433,-0.186 -0.522,-0.414 -0.029,-0.106 -0.085,-0.198 -0.165,-0.275 10e-4,0 0.002,-0.002 0.002,-0.004 0.07,0.028 0.16,-0.055 0.095,-0.117 -0.003,-0.003 -0.004,-0.003 -0.005,-0.005 0.693,-0.777 2.741,0.076 2.68,1.08 z M 11.674,25.83 c 0.105,0.314 0.271,0.615 0.618,0.702 0.308,0.076 2.194,-0.413 2.107,0.262 -0.47,0.463 -1.09,0.526 -1.722,0.354 -0.592,-0.161 -1.269,-0.586 -1.003,-1.318 z"
         id="path45"
         inkscape:connector-curvature="0" /></g><g
       id="g47"><path
         d="m 16.402,28.564 c 0,0.004 10e-4,0.006 0.002,0.011 -0.288,1.305 2.253,3.05 2.686,1.439 0.196,-0.739 -0.577,-1.634 -1.151,-1.99 -0.541,-0.33 -1.592,-0.322 -1.537,0.54 z m 0.139,0.06 c 0.013,-0.012 0.021,-0.027 0.024,-0.048 0.015,-0.119 0.043,-0.216 0.079,-0.296 0.021,0.015 0.05,0.022 0.081,0.009 0.594,-0.228 0.679,0.64 0.8,1.004 0.097,0.286 0.232,0.566 0.463,0.768 0.135,0.118 0.413,0.288 0.638,0.287 -0.818,0.588 -2.099,-0.825 -2.085,-1.724 z m 1.797,-0.004 c 0.31,0.342 0.788,1.02 0.492,1.508 -0.009,0.003 -0.019,0.009 -0.024,0.018 -0.299,0.378 -0.905,-0.42 -0.992,-0.592 -0.1,-0.196 -0.147,-0.408 -0.206,-0.617 -0.054,-0.197 -0.09,-0.404 -0.217,-0.573 -0.157,-0.21 -0.383,-0.312 -0.624,-0.264 0.401,-0.381 1.254,0.169 1.571,0.52 z"
         id="path49"
         inkscape:connector-curvature="0" /><path
         d="m 17.384,24.906 c -0.768,0.313 -1.49,0.978 -1.422,1.855 -0.007,0.01 -0.01,0.023 -0.006,0.038 0.004,0.013 0.008,0.022 0.011,0.035 0.002,0.003 10e-4,0.005 10e-4,0.008 0.003,0.014 0.008,0.024 0.015,0.035 0.479,1.295 3.369,0.058 2.99,-1.32 -0.197,-0.712 -0.971,-0.904 -1.589,-0.651 z m -1.213,2.03 c 0.177,0.092 0.434,0.011 0.622,-0.108 0.273,-0.171 0.477,-0.422 0.651,-0.687 0.112,-0.171 0.209,-0.382 0.374,-0.51 0.214,-0.15 0.435,-0.178 0.661,-0.083 0.096,0.053 0.201,0.077 0.311,0.074 0,0.001 0.001,0.003 0.002,0.003 -0.069,0.03 -0.073,0.153 0.019,0.15 0.003,0 0.004,-10e-4 0.007,0 0.07,1.04 -1.972,1.908 -2.647,1.161 z m 2.564,-1.466 c -0.299,-0.145 -0.629,-0.235 -0.934,-0.048 -0.27,0.167 -1.239,1.857 -1.66,1.323 -0.004,-0.659 0.386,-1.146 0.949,-1.479 0.53,-0.312 1.307,-0.498 1.645,0.204 z"
         id="path51"
         inkscape:connector-curvature="0" /></g><g
       id="g53"><path
         d="m 23.626,25.553 c 0.004,-0.002 0.005,-0.005 0.008,-0.007 1.265,-0.431 1.437,-3.509 -0.164,-3.042 -0.733,0.215 -1.098,1.342 -1.103,2.017 -0.003,0.631 0.55,1.527 1.259,1.032 z M 23.604,25.404 C 23.588,25.4 23.57,25.401 23.55,25.409 c -0.109,0.049 -0.207,0.076 -0.294,0.086 0.002,-0.027 -0.008,-0.055 -0.034,-0.076 -0.504,-0.389 0.194,-0.911 0.442,-1.205 0.194,-0.231 0.363,-0.492 0.417,-0.795 0.03,-0.176 0.03,-0.501 -0.087,-0.693 0.93,0.395 0.386,2.222 -0.39,2.678 z m -0.935,-1.533 c 0.133,-0.443 0.462,-1.203 1.034,-1.204 0.007,0.006 0.016,0.011 0.026,0.011 0.479,0.06 0.111,0.991 0.01,1.156 -0.116,0.186 -0.272,0.337 -0.421,0.495 -0.141,0.149 -0.299,0.288 -0.377,0.483 -0.098,0.245 -0.067,0.489 0.099,0.672 -0.534,-0.147 -0.507,-1.16 -0.371,-1.613 z"
         id="path55"
         inkscape:connector-curvature="0" /><path
         d="m 19.767,25.862 c 0.457,0.691 1.249,1.272 2.096,1.035 0.012,0.004 0.025,0.005 0.039,-10e-4 0.012,-0.006 0.021,-0.014 0.03,-0.018 0.004,-0.002 0.006,-0.001 0.009,-0.002 0.013,-0.005 0.022,-0.013 0.031,-0.021 1.179,-0.721 -0.597,-3.316 -1.875,-2.676 -0.659,0.328 -0.698,1.125 -0.33,1.683 z m 2.227,0.795 c 0.057,-0.19 -0.072,-0.426 -0.227,-0.59 -0.222,-0.234 -0.507,-0.384 -0.801,-0.504 -0.189,-0.077 -0.415,-0.13 -0.572,-0.268 -0.189,-0.181 -0.261,-0.392 -0.211,-0.631 0.033,-0.105 0.037,-0.212 0.012,-0.321 0.001,0 0.003,-0.001 0.004,-0.002 0.043,0.062 0.165,0.042 0.143,-0.047 0,-0.004 -10e-4,-0.004 -10e-4,-0.007 1.008,-0.271 2.255,1.564 1.653,2.37 z m -1.936,-2.231 c -0.084,0.321 -0.109,0.663 0.134,0.925 0.217,0.232 2.062,0.855 1.622,1.372 -0.646,0.131 -1.201,-0.156 -1.637,-0.646 -0.407,-0.457 -0.742,-1.183 -0.119,-1.651 z"
         id="path57"
         inkscape:connector-curvature="0" /></g><g
       id="g59"><path
         d="m 23.127,13.779 c 0.001,-0.004 0.001,-0.007 0.002,-0.011 0.71,-1.132 -1.098,-3.629 -2.046,-2.258 -0.434,0.63 -0.006,1.734 0.416,2.261 0.397,0.493 1.39,0.839 1.628,0.008 z m -0.11,-0.102 c -0.016,0.007 -0.029,0.019 -0.039,0.038 -0.055,0.107 -0.113,0.189 -0.174,0.253 -0.016,-0.022 -0.04,-0.038 -0.074,-0.037 -0.636,0.015 -0.424,-0.83 -0.416,-1.214 0.006,-0.302 -0.028,-0.611 -0.178,-0.88 -0.087,-0.155 -0.292,-0.409 -0.504,-0.483 0.969,-0.281 1.699,1.48 1.385,2.323 z m -1.694,-0.6 c -0.176,-0.427 -0.399,-1.226 0.044,-1.586 0.009,0 0.02,-0.002 0.027,-0.008 0.409,-0.256 0.711,0.699 0.736,0.891 0.027,0.217 0.001,0.434 -0.015,0.649 -0.016,0.205 -0.05,0.412 0.012,0.613 0.078,0.251 0.256,0.422 0.5,0.459 -0.506,0.223 -1.123,-0.58 -1.304,-1.018 z"
         id="path61"
         inkscape:connector-curvature="0" /><path
         d="m 17.684,14.942 c 0.107,0.821 0.564,1.69 1.431,1.848 0.009,0.009 0.021,0.016 0.035,0.016 0.014,0 0.024,-0.003 0.036,-0.003 0.003,0 0.005,10e-4 0.009,10e-4 0.013,0.002 0.025,-10e-4 0.036,-0.005 1.375,-0.132 0.916,-3.243 -0.514,-3.227 -0.737,0.008 -1.12,0.708 -1.033,1.37 z m 1.654,1.691 c 0.133,-0.147 0.121,-0.416 0.054,-0.63 -0.097,-0.307 -0.287,-0.567 -0.499,-0.804 -0.136,-0.152 -0.315,-0.299 -0.397,-0.492 -0.091,-0.246 -0.062,-0.466 0.087,-0.66 0.076,-0.08 0.127,-0.174 0.151,-0.282 0.002,0 0.003,0 0.005,0 0.012,0.074 0.129,0.109 0.148,0.021 0.002,-0.003 0.001,-0.004 0.002,-0.007 1.024,0.197 1.342,2.392 0.449,2.854 z m -0.765,-2.854 c -0.216,0.251 -0.389,0.548 -0.285,0.89 0.094,0.304 1.479,1.672 0.856,1.944 -0.638,-0.166 -1.011,-0.666 -1.188,-1.296 -0.165,-0.591 -0.147,-1.39 0.617,-1.538 z"
         id="path63"
         inkscape:connector-curvature="0" /></g></g></svg>