<?xml version="1.0" encoding="UTF-8" standalone="no"?>
<!-- Generator: Adobe Illustrator 16.0.0, SVG Export Plug-In . SVG Version: 6.00 Build 0)  -->

<svg
   xmlns:dc="http://purl.org/dc/elements/1.1/"
   xmlns:cc="http://creativecommons.org/ns#"
   xmlns:rdf="http://www.w3.org/1999/02/22-rdf-syntax-ns#"
   xmlns:svg="http://www.w3.org/2000/svg"
   xmlns="http://www.w3.org/2000/svg"
   xmlns:sodipodi="http://sodipodi.sourceforge.net/DTD/sodipodi-0.dtd"
   xmlns:inkscape="http://www.inkscape.org/namespaces/inkscape"
   version="1.1"
   id="Layer_1"
   x="0px"
   y="0px"
   width="21.59"
   height="33.484001"
   viewBox="0 0 21.59 33.484001"
   enable-background="new 0 0 39.604 41.771"
   xml:space="preserve"
   inkscape:version="0.91 r13725"
   sodipodi:docname="coffee-maker.svg"><metadata
     id="metadata23"><rdf:RDF><cc:Work
         rdf:about=""><dc:format>image/svg+xml</dc:format><dc:type
           rdf:resource="http://purl.org/dc/dcmitype/StillImage" /><dc:title></dc:title></cc:Work></rdf:RDF></metadata><defs
     id="defs21" /><sodipodi:namedview
     pagecolor="#ffffff"
     bordercolor="#666666"
     borderopacity="1"
     objecttolerance="10"
     gridtolerance="10"
     guidetolerance="10"
     inkscape:pageopacity="0"
     inkscape:pageshadow="2"
     inkscape:window-width="1032"
     inkscape:window-height="641"
     id="namedview19"
     showgrid="false"
     inkscape:zoom="5.6498528"
     inkscape:cx="20.598481"
     inkscape:cy="20.8855"
     inkscape:window-x="20"
     inkscape:window-y="43"
     inkscape:window-maximized="0"
     inkscape:current-layer="Layer_1" /><g
     id="g3"
     transform="translate(-8.1916571,-4.4742874)"><path
       d="m 16.726,20.781 c -0.438,-0.048 -1.938,-0.204 -2.247,0.322 -0.024,-0.023 -0.068,-0.022 -0.078,0.02 -0.156,0.681 0.964,0.894 1.438,0.96 0.497,0.069 1.974,0.059 2.118,-0.627 0.122,-0.583 -0.886,-0.637 -1.231,-0.675 z m 0.849,0.784 c -0.093,0.275 -1.105,0.332 -1.321,0.329 -0.385,-0.007 -1.415,-0.121 -1.69,-0.564 0.032,-0.008 0.062,-0.028 0.077,-0.068 0.136,-0.354 1.161,-0.287 1.479,-0.285 0.332,0.001 1.673,-0.059 1.455,0.588 z"
       id="path5"
       inkscape:connector-curvature="0" /><path
       d="M 29.583,13.611 C 29.551,11.725 29.519,9.838 29.487,7.951 29.473,7.18 29.624,6.142 29.433,5.393 29.369,5.138 29.312,5.001 29.076,4.88 28.563,4.617 27.52,4.765 26.962,4.743 25.966,4.703 24.969,4.668 23.972,4.637 22.112,4.579 20.251,4.537 18.39,4.511 16.196,4.48 14.001,4.47 11.808,4.483 10.968,4.488 9.243,4.301 9.151,5.444 9.124,5.463 9.105,5.492 9.105,5.535 c 0.003,2.646 0.005,5.292 0.011,7.938 0.002,1.029 -0.188,2.287 0.038,3.293 0.065,0.286 0.19,0.501 0.395,0.585 0.005,0.009 0.014,0.015 0.025,0.017 0.021,0.003 0.042,0.005 0.062,0.007 0.025,0.005 0.053,0.008 0.081,0.01 1.816,0.224 3.772,0.005 5.597,-0.027 2.036,-0.036 4.091,-0.011 6.122,-0.155 0.027,-0.002 0.047,-0.013 0.062,-0.028 0.142,0.042 0.285,0.036 0.446,0.02 0.307,-0.03 0.617,-0.056 0.691,0.286 -0.003,0.01 -0.006,0.02 -0.006,0.032 0.035,2.565 0.181,5.13 0.228,7.696 0.023,1.25 0.038,2.5 0.046,3.751 0.005,0.826 0.454,4.459 -1.025,4.349 -0.019,-0.027 -0.049,-0.046 -0.092,-0.045 l -0.102,0.002 c 0.208,-0.231 0.298,-0.512 0.342,-0.865 0.13,-1.047 0.003,-2.172 -0.011,-3.227 C 22,28.082 21.982,26.99 21.9,25.901 c -0.021,-0.265 0.001,-0.665 -0.111,-0.926 -0.209,-0.49 -0.883,-0.687 -0.729,-1.402 0.015,-0.067 -0.025,-0.116 -0.075,-0.136 0.115,-0.084 0.212,-0.194 0.282,-0.34 0.026,-0.055 0.006,-0.106 -0.03,-0.137 0.358,-0.521 1.463,-1.111 1.03,-1.813 0.003,-0.089 -0.032,-0.177 -0.126,-0.25 -0.296,-0.229 -0.755,-0.284 -1.12,-0.265 0.043,-0.045 0.035,-0.143 -0.039,-0.16 -1.893,-0.438 -3.88,-0.208 -5.8,-0.116 -1.729,0.083 -3.528,0.12 -5.04,1.069 -0.039,0.025 -0.005,0.08 0.036,0.062 1.766,-0.779 3.637,-0.844 5.535,-0.935 1.775,-0.086 3.454,-0.124 5.223,0.1 -0.073,0.05 -0.058,0.19 0.051,0.182 0.184,-0.013 1.191,0.026 1.066,0.382 -0.051,0.144 -0.289,0.239 -0.41,0.303 -0.179,0.094 -0.353,0.17 -0.549,0.206 -0.007,-0.018 -0.016,-0.034 -0.029,-0.046 -0.003,-0.005 -0.008,-0.007 -0.014,-0.01 -0.028,-0.02 -0.064,-0.025 -0.104,0 -1.637,1.044 -3.657,0.895 -5.519,0.857 -1.796,-0.036 -3.705,0.044 -5.254,-1.01 -0.051,-0.035 -0.11,0.023 -0.101,0.073 -0.006,0.007 -0.013,0.013 -0.016,0.022 -0.016,0.062 -0.027,0.126 -0.036,0.192 -0.27,-0.07 -0.561,-0.069 -0.837,-0.065 -0.198,0.003 -0.455,-0.016 -0.639,0.078 -0.216,0.109 -0.266,0.32 -0.252,0.535 -0.003,0.01 -0.007,0.02 -0.007,0.031 -0.098,2.957 -0.158,5.945 0.018,8.9 0.006,0.099 0.154,0.101 0.155,0 0.023,-2.968 -0.03,-5.932 0.039,-8.9 0,-0.028 -0.01,-0.05 -0.023,-0.066 0.004,-0.023 0.009,-0.047 0.016,-0.069 0.08,-0.254 0.273,-0.272 0.511,-0.282 0.335,-0.014 0.669,0.035 1.003,0.026 -0.008,0.14 -0.004,0.284 0.004,0.429 C 9.858,22.38 9.691,22.427 9.536,22.445 9.378,22.464 9.22,22.481 9.062,22.504 9.017,22.511 9,22.548 9.001,22.587 8.994,22.6 8.989,22.616 8.988,22.634 8.831,24.941 8.751,27.266 8.88,29.576 c -0.034,0.038 -0.019,0.105 0.036,0.125 0.171,0.063 0.336,0.081 0.48,0.203 0.234,0.199 0.311,0.529 0.183,0.811 -0.216,0.474 -0.682,0.492 -1.114,0.609 -0.031,0.009 -0.033,0.049 -0.008,0.066 0.498,0.346 1.304,-0.3 1.389,-0.809 0.078,-0.462 -0.306,-1.084 -0.812,-1.048 0.015,-2.292 0.031,-4.577 0.175,-6.866 0.133,-0.005 0.265,-0.013 0.396,-0.02 0.143,-0.007 0.283,0.002 0.414,-0.053 0.014,0.179 0.031,0.355 0.042,0.518 -0.002,0.024 0.003,0.049 0.021,0.071 0.188,0.239 0.508,0.359 0.784,0.457 0.023,0.008 0.041,-0.004 0.051,-0.022 0.089,0.028 0.179,0.054 0.27,0.078 0.062,0.442 0.006,0.872 -0.248,1.27 -0.083,0.129 -0.264,0.201 -0.346,0.344 -0.112,0.193 -0.113,0.401 -0.135,0.616 -0.114,1.149 -0.058,2.342 -0.076,3.497 -0.018,1.062 -0.129,2.176 -0.029,3.233 0.033,0.345 0.111,0.653 0.38,0.804 -0.011,0.004 -0.023,0.007 -0.034,0.011 -0.839,0.322 -0.489,1.8 -0.495,2.523 -0.005,0.597 0.002,1.777 0.854,1.647 3.721,0.337 7.495,0.349 11.228,0.29 1.791,-0.028 3.688,0.045 5.463,-0.207 0.797,-0.113 1.525,-0.564 1.408,-1.411 0.027,-0.019 0.048,-0.048 0.053,-0.088 0.9,-7.49 0.5,-15.09 0.373,-22.614 z M 10.79,23.479 c -0.195,-0.135 -0.373,-0.3 -0.575,-0.421 0.031,-0.417 0.096,-0.912 0.023,-1.327 1.416,1.061 3.3,0.97 4.995,1.007 1.947,0.042 4.117,0.235 5.821,-0.888 0.008,-0.006 0.013,-0.013 0.02,-0.02 0.14,0.024 0.378,-0.048 0.499,-0.083 0.176,-0.051 0.357,-0.141 0.499,-0.258 0.02,-0.017 0.038,-0.035 0.056,-0.053 -0.022,0.637 -0.846,0.912 -1.033,1.525 -0.007,0.007 -0.014,0.013 -0.019,0.023 -0.405,0.747 -2.2,0.685 -2.924,0.751 -0.812,0.076 -1.626,0.115 -2.441,0.117 -0.815,0.002 -1.63,-0.032 -2.442,-0.103 -0.823,-0.071 -1.654,-0.272 -2.479,-0.27 z m -0.175,6.333 c 0.014,-0.907 0.032,-1.813 0.054,-2.72 0.014,-0.56 -0.091,-1.32 0.254,-1.805 0.095,-0.135 0.274,-0.202 0.371,-0.345 0.258,-0.38 0.205,-0.79 0.086,-1.197 0.678,0.151 1.41,0.19 2.076,0.245 1.125,0.092 2.255,0.113 3.383,0.064 0.949,-0.042 1.896,-0.133 2.837,-0.273 0.38,-0.057 0.815,-0.079 1.152,-0.248 -0.108,0.529 0.059,0.651 0.307,1.085 0.566,0.991 0.582,1.903 0.615,3.016 0.026,0.902 0.031,1.805 0.042,2.708 0.01,0.859 0.28,2.256 -0.389,2.931 -1.854,0.032 -3.709,0.063 -5.562,0.096 -0.923,0.016 -1.845,0.032 -2.768,0.048 -0.541,0.009 -1.388,-0.115 -2.007,-0.03 -0.012,-0.018 -0.028,-0.033 -0.055,-0.041 -0.772,-0.255 -0.406,-2.918 -0.396,-3.534 z m 18.37,6.295 c -0.054,0.019 -0.098,0.069 -0.081,0.141 0.385,1.67 -3.823,1.377 -4.835,1.406 -1.453,0.041 -2.907,0.06 -4.36,0.057 -2.868,-0.006 -5.726,-0.162 -8.59,-0.257 -0.404,-0.052 -0.69,-0.963 -0.688,-1.278 0.002,-0.241 0.008,-0.482 0.012,-0.724 0.009,-0.543 -0.166,-1.503 0.493,-1.765 0.418,-0.166 1.287,-0.021 1.741,-0.029 l 1.779,-0.03 c 2.443,-0.041 4.887,-0.082 7.33,-0.124 0.021,0 0.039,-0.006 0.055,-0.015 0.714,0.148 1.151,-0.441 1.264,-1.113 0.245,-1.461 0.038,-3.119 0.024,-4.599 -0.03,-3.405 -0.035,-6.839 -0.281,-10.236 0.091,-0.202 -0.075,-0.434 -0.259,-0.528 -0.36,-0.185 -0.789,0.032 -1.171,-0.058 -0.051,-0.012 -0.092,0.021 -0.105,0.062 -1.996,-0.03 -4.003,0.083 -5.999,0.118 -1.745,0.031 -3.602,-0.118 -5.345,0.094 l 0,0 C 9.014,17.326 9.353,14.534 9.353,14.056 9.354,13.152 9.352,12.249 9.351,11.346 9.349,9.407 9.347,7.471 9.345,5.535 9.345,5.521 9.341,5.511 9.337,5.5 9.618,4.355 12.009,4.719 12.805,4.717 c 1.063,-0.003 2.128,0 3.191,0.006 2.127,0.015 4.255,0.05 6.381,0.106 1.063,0.028 2.127,0.061 3.19,0.099 0.531,0.02 1.062,0.04 1.594,0.062 0.391,0.016 1.254,-0.109 1.594,0.068 0.825,0.431 0.486,2.495 0.5,3.283 0.017,0.976 0.033,1.952 0.05,2.928 0.139,8.252 0.653,16.621 -0.32,24.838 z"
       id="path7"
       inkscape:connector-curvature="0" /><path
       d="m 21.524,31.253 c -0.043,-1.163 -0.059,-2.331 -0.142,-3.491 -0.007,-0.091 -0.103,-0.119 -0.162,-0.084 -0.013,-0.031 -0.04,-0.055 -0.084,-0.057 -3.311,-0.085 -6.748,-0.145 -10.05,0.117 -0.086,0.007 -0.088,0.131 0,0.135 3.313,0.169 6.733,0.048 10.05,-0.062 0.015,0 0.027,-0.004 0.038,-0.009 0.005,0.722 0.045,1.443 0.073,2.165 0.026,0.694 0.305,2.179 -0.238,2.727 -0.016,-0.021 -0.04,-0.034 -0.077,-0.032 -1.677,0.077 -3.346,0.176 -5.025,0.189 -1.385,0.011 -2.889,-0.153 -4.263,0.067 -0.013,-0.019 -0.033,-0.034 -0.061,-0.034 -0.781,-0.014 -0.531,-4.439 -0.581,-5.051 -0.006,-0.071 -0.111,-0.074 -0.112,0 -0.018,1.445 -0.146,2.989 -0.02,4.426 0.041,0.466 0.194,0.89 0.733,0.781 0.014,-0.003 0.023,-0.008 0.031,-0.015 1.375,0.22 2.886,0.062 4.271,0.052 1.671,-0.013 3.365,-0.015 5.025,-0.215 0.043,-0.005 0.07,-0.031 0.085,-0.063 0.013,0.003 0.026,0.003 0.039,-0.002 0.639,-0.275 0.492,-0.944 0.47,-1.544 z"
       id="path9"
       inkscape:connector-curvature="0" /><path
       d="m 13.895,14.189 c -0.17,-0.592 -0.737,-0.878 -1.281,-1.052 -0.024,-0.008 -0.044,-0.004 -0.062,0.004 -0.17,-0.061 -0.358,-0.077 -0.553,-0.028 l -0.001,0 c -0.622,-0.074 -1.163,0.44 -1.165,1.099 0,0.19 0.051,0.376 0.139,0.544 0.116,1.095 1.406,1.456 2.273,0.805 0.439,-0.329 0.815,-0.796 0.65,-1.372 z m -1.951,-0.933 c 0.014,0.029 0.041,0.049 0.08,0.044 1.329,-0.173 1.385,1.861 0.142,1.956 -0.487,0.038 -0.961,-0.309 -1.098,-0.779 -0.179,-0.622 0.284,-1.18 0.876,-1.221 z m 1.06,2.267 c -0.694,0.43 -1.44,0.164 -1.797,-0.442 0.226,0.229 0.532,0.381 0.854,0.387 0.641,0.012 1.195,-0.551 1.235,-1.179 0.019,-0.287 -0.08,-0.566 -0.251,-0.784 0.241,0.12 0.462,0.282 0.578,0.519 0.3,0.609 -0.102,1.179 -0.619,1.499 z"
       id="path11"
       inkscape:connector-curvature="0" /><path
       d="m 16.489,12.87 c -0.013,0 -0.023,0.003 -0.033,0.007 -0.84,-0.358 -1.504,0.474 -1.492,1.247 -0.13,0.432 0.211,0.96 0.533,1.223 0.499,0.407 1.238,0.435 1.761,0.059 1.08,-0.778 0.62,-2.575 -0.769,-2.536 z m -1.244,0.746 c 0.17,-0.48 0.681,-0.702 1.158,-0.626 0.01,0.036 0.037,0.066 0.086,0.065 0.004,0 0.008,10e-4 0.013,10e-4 0.317,0.28 0.553,0.62 0.477,1.065 -0.096,0.555 -0.66,0.933 -1.201,0.79 -0.539,-0.141 -0.705,-0.808 -0.533,-1.295 z m 1.868,1.697 c -0.416,0.272 -0.992,0.27 -1.41,0.002 -0.148,-0.095 -0.301,-0.245 -0.422,-0.421 0.075,0.072 0.165,0.136 0.271,0.187 1.188,0.577 2.153,-1.158 1.355,-1.959 0.891,0.31 1.09,1.614 0.206,2.191 z"
       id="path13"
       inkscape:connector-curvature="0" /><path
       d="m 12.696,10.065 c -0.08,-0.341 -0.477,-0.546 -0.803,-0.422 -0.048,0.019 -0.067,0.061 -0.064,0.101 -0.202,0.085 -0.332,0.316 -0.325,0.543 0.012,0.344 0.361,0.573 0.686,0.533 0.353,-0.044 0.588,-0.411 0.506,-0.755 z m -0.549,0.548 c -0.221,0.021 -0.444,-0.135 -0.44,-0.368 0.004,-0.201 0.146,-0.386 0.347,-0.417 0.01,-10e-4 0.014,-0.008 0.021,-0.012 0.189,0 0.377,0.102 0.42,0.305 0.049,0.229 -0.113,0.47 -0.348,0.492 z"
       id="path15"
       inkscape:connector-curvature="0" /><path
       d="m 13.713,34.884 c -0.003,-0.031 -0.017,-0.051 -0.035,-0.063 0.007,-0.043 -0.011,-0.087 -0.065,-0.096 -0.722,-0.112 -1.494,-0.064 -2.222,-0.042 -0.058,0.002 -0.11,0.048 -0.108,0.108 0.006,0.295 -0.003,0.588 -0.012,0.883 -0.022,0.046 -0.001,0.111 0.066,0.113 0.351,0.011 0.7,0.01 1.051,0.007 0.335,-0.002 0.722,0.052 1.051,-0.009 0.373,-0.068 0.297,-0.608 0.274,-0.901 z m -0.45,0.71 c -0.155,0.059 -0.443,0.004 -0.612,0.006 -0.398,0.004 -0.796,0.009 -1.194,0.026 0.031,-0.243 0.043,-0.483 0.043,-0.728 0.683,-0.012 1.373,0.042 2.053,0.008 -0.03,0.275 0.038,0.565 -0.29,0.688 z"
       id="path17"
       inkscape:connector-curvature="0" /></g></svg>