<?xml version="1.0" encoding="UTF-8" standalone="no"?>
<!-- Generator: Adobe Illustrator 16.0.0, SVG Export Plug-In . SVG Version: 6.00 Build 0)  -->

<svg
   xmlns:dc="http://purl.org/dc/elements/1.1/"
   xmlns:cc="http://creativecommons.org/ns#"
   xmlns:rdf="http://www.w3.org/1999/02/22-rdf-syntax-ns#"
   xmlns:svg="http://www.w3.org/2000/svg"
   xmlns="http://www.w3.org/2000/svg"
   xmlns:sodipodi="http://sodipodi.sourceforge.net/DTD/sodipodi-0.dtd"
   xmlns:inkscape="http://www.inkscape.org/namespaces/inkscape"
   version="1.1"
   id="Layer_1"
   x="0px"
   y="0px"
   width="24.802999"
   height="30.4"
   viewBox="0 0 24.802999 30.4"
   enable-background="new 0 0 39.604 41.771"
   xml:space="preserve"
   inkscape:version="0.91 r13725"
   sodipodi:docname="espresso-machine.svg"><metadata
     id="metadata31"><rdf:RDF><cc:Work
         rdf:about=""><dc:format>image/svg+xml</dc:format><dc:type
           rdf:resource="http://purl.org/dc/dcmitype/StillImage" /><dc:title></dc:title></cc:Work></rdf:RDF></metadata><defs
     id="defs29" /><sodipodi:namedview
     pagecolor="#ffffff"
     bordercolor="#666666"
     borderopacity="1"
     objecttolerance="10"
     gridtolerance="10"
     guidetolerance="10"
     inkscape:pageopacity="0"
     inkscape:pageshadow="2"
     inkscape:window-width="1212"
     inkscape:window-height="680"
     id="namedview27"
     showgrid="false"
     inkscape:zoom="5.6498528"
     inkscape:cx="20.598481"
     inkscape:cy="20.8855"
     inkscape:window-x="20"
     inkscape:window-y="43"
     inkscape:window-maximized="0"
     inkscape:current-layer="Layer_1" /><g
     id="g3"
     transform="translate(-4.9873055,-5.6848029)"><path
       d="M 29.689,19.141 C 29.62,15.261 29.614,11.383 29.628,7.503 29.628,7.447 29.586,7.42 29.543,7.419 29.515,6.968 29.161,6.783 28.728,6.694 27.797,6.504 26.783,6.506 25.836,6.418 23.741,6.221 21.646,6.023 19.552,5.827 18.667,5.744 17.75,5.572 16.874,5.794 15.907,6.038 14.971,6.485 14.043,6.844 13.042,7.232 12.04,7.62 11.04,8.012 10.784,8.113 9.998,8.259 9.858,8.593 9.609,8.707 9.433,8.907 9.46,9.17 9.453,9.181 9.448,9.194 9.447,9.209 9.301,10.86 9.287,12.53 9.378,14.186 c 0.034,0.61 0.155,1.744 0.955,1.645 0.556,0.041 1.112,0.078 1.67,0.113 -0.044,0.278 -0.035,0.556 -0.002,0.835 0.001,0.008 0.004,0.014 0.006,0.021 C 11.581,16.754 11.144,16.799 10.72,16.862 10.664,16.68 10.571,16.513 10.517,16.322 10.507,16.286 10.458,16.283 10.44,16.307 10.432,16.303 10.424,16.301 10.416,16.3 8.765,16.191 7.099,16.194 5.444,16.157 c -0.003,0 -0.005,0.001 -0.008,0.001 -0.02,-0.011 -0.044,-0.013 -0.065,0.002 -0.416,0.278 -0.489,0.959 -0.242,1.372 -0.017,0.036 0.003,0.089 0.056,0.093 1.69,0.145 3.499,0.271 5.194,0.183 0.003,0 0.004,-0.002 0.007,-0.003 0.026,0.013 0.061,0.014 0.086,-0.008 0.14,-0.121 0.227,-0.294 0.267,-0.475 0.515,0.072 1.095,0.094 1.593,-0.054 0.002,0.049 0.082,0.059 0.092,0.009 0.076,-0.409 0.143,-0.889 0.058,-1.307 0.168,0.01 0.335,0.019 0.503,0.028 -0.036,1.267 -0.036,2.558 0.038,3.821 10e-4,0.014 0.006,0.024 0.013,0.033 -0.191,0.016 -0.383,0.031 -0.573,0.044 -0.957,0.067 -1.925,0.117 -2.875,0.255 -0.013,0.002 -0.022,0.009 -0.028,0.017 -0.034,0.002 -0.07,0.005 -0.106,0.013 -1.198,0.248 -0.789,2.764 0.347,2.27 0.022,0.026 0.065,0.037 0.092,0.008 l 0.022,-0.026 c 0.009,-0.011 0.011,-0.026 0,-0.037 0.068,0.07 1.361,-0.439 1.509,-0.487 0.49,-0.161 0.979,-0.328 1.465,-0.501 0.053,-0.019 0.104,-0.038 0.156,-0.057 -0.064,1.5 -0.059,3.039 -0.026,4.538 -0.871,0.887 -1.511,2.185 -1.433,3.449 0.008,1.334 0.049,2.716 0.155,4.043 -0.036,0.006 -0.068,0.046 -0.043,0.082 0.942,1.335 2.606,1.941 4.142,2.291 1.785,0.405 3.641,0.416 5.446,0.153 1.749,-0.253 3.548,-0.669 4.966,-1.777 1.312,-1.026 2.272,-2.429 3.196,-3.795 0.022,-0.003 0.042,-0.017 0.054,-0.043 0.284,-0.709 0.236,-1.531 0.258,-2.282 0.026,-0.986 0.033,-1.974 0.029,-2.96 -0.013,-1.969 -0.065,-3.939 -0.1,-5.909 z M 10.355,17.708 c -0.006,0.008 -0.008,0.014 -0.01,0.021 C 8.686,17.511 6.904,17.49 5.23,17.498 5.165,17.295 5.13,17.087 5.164,16.872 5.198,16.645 5.309,16.49 5.428,16.311 c 0.005,0.001 0.01,0.003 0.016,0.003 1.654,0.043 3.316,0.126 4.972,0.097 0.011,0 0.019,-0.003 0.026,-0.007 0.026,0.167 0.088,0.323 0.124,0.487 -0.046,0.032 -0.032,0.122 0.022,0.137 0.021,0.262 -0.084,0.466 -0.233,0.68 z m 1.981,-0.563 c -0.533,0.018 -1.045,0.076 -1.58,0.053 10e-4,-0.008 0.003,-0.015 0.004,-0.021 0.003,-0.056 0,-0.108 -0.007,-0.159 0.436,-0.044 0.875,-0.062 1.308,-0.126 0.024,-0.003 0.032,-0.021 0.03,-0.04 0.036,-0.002 0.068,-0.025 0.062,-0.072 -0.035,-0.275 -0.042,-0.553 -0.055,-0.829 0.08,0.005 0.16,0.009 0.24,0.014 -0.022,0.388 0.015,0.786 -0.002,1.18 z m -1.825,-1.441 c -0.003,0 -0.004,-0.003 -0.007,-0.003 -1.273,0.1 -0.998,-2.597 -1,-3.418 C 9.502,11.327 9.547,10.376 9.605,9.423 9.611,9.414 9.616,9.404 9.611,9.39 9.609,9.385 9.608,9.38 9.606,9.376 9.61,9.32 9.613,9.265 9.616,9.209 9.619,9.167 9.596,9.142 9.566,9.132 9.603,8.589 10.658,8.68 11.039,8.698 c 0.539,0.026 1.078,0.053 1.618,0.079 1.078,0.054 2.157,0.106 3.235,0.16 2.152,0.105 4.304,0.223 6.456,0.315 0.015,0.014 0.032,0.022 0.057,0.023 0.866,0.022 0.489,2.965 0.48,3.494 -0.014,0.84 0.34,3.532 -0.978,3.616 -0.015,-0.021 -0.036,-0.036 -0.067,-0.038 -3.75,-0.313 -7.561,-0.67 -11.329,-0.643 z m 7.077,6.713 c -0.01,0.004 -0.02,0.011 -0.028,0.021 -0.146,0.16 -0.332,0.239 -0.546,0.253 -0.106,0.007 -0.646,0.003 -0.611,-0.182 0.006,-0.032 -0.025,-0.059 -0.052,-0.053 -0.003,-0.234 -0.033,-0.47 -0.044,-0.704 -0.008,-0.19 -0.002,-0.384 -0.035,-0.571 0.471,-0.017 0.938,-0.032 1.409,-0.021 -0.078,0.177 -0.064,0.377 -0.073,0.568 -0.011,0.226 -0.037,0.463 -0.02,0.689 z m -2.852,-1.491 c 0.004,-0.006 0.008,-0.013 0.011,-0.02 0.02,-0.052 -0.011,-0.083 -0.027,-0.132 -0.005,-0.016 -0.006,-0.03 -0.009,-0.045 0.356,-0.14 0.714,-0.28 1.067,-0.426 0.051,-0.021 0.062,-0.076 0.045,-0.115 0.088,-0.174 0.037,-0.363 -0.104,-0.489 0.238,0.006 0.475,0.013 0.708,0.031 0.768,0.059 1.54,0.139 2.311,0.123 -0.04,0.289 -0.018,0.59 -0.037,0.882 -0.009,0.133 -0.002,0.146 -0.107,0.251 -0.111,0.111 -0.143,0.095 -0.282,0.094 -0.033,0 -0.188,0.007 -0.3,0.007 -0.002,-0.026 -0.017,-0.05 -0.049,-0.055 -1.055,-0.159 -2.2,0.213 -3.227,-0.106 z m 1.692,-1.373 c -0.693,-0.052 -1.444,-0.161 -2.134,-0.028 0.03,-1.145 0.044,-2.31 -0.028,-3.453 1.633,0.086 3.266,0.162 4.897,0.263 -0.008,0.521 0.151,3.281 -0.221,3.355 -0.002,10e-4 -0.002,0.002 -0.003,0.002 -0.839,-0.028 -1.673,-0.075 -2.511,-0.139 z m -0.833,0.143 c -0.012,0.017 -0.018,0.037 -0.015,0.056 -0.271,-0.013 -0.543,-0.013 -0.816,-0.006 0,-0.007 0.001,-0.013 -0.002,-0.021 -0.007,-0.022 -0.018,-0.043 -0.027,-0.063 0.285,0.019 0.572,0.027 0.86,0.034 z m -0.981,0.054 c -0.491,0.017 -0.985,0.057 -1.475,0.096 0.003,-0.008 0.005,-0.016 0.006,-0.025 0.042,-1.264 0.011,-2.552 -0.056,-3.815 0.356,0.021 0.713,0.042 1.07,0.061 -0.073,1.157 -0.06,2.337 -0.028,3.495 0.002,0.081 0.096,0.099 0.14,0.054 0.116,0.017 0.234,0.028 0.352,0.039 -0.002,0.004 -0.005,0.007 -0.005,0.011 -0.003,0.027 -0.006,0.053 -0.006,0.081 0,0.001 0.002,0.002 0.002,0.003 z m -4.74,2.438 C 9.832,22.161 9.792,22.209 9.807,22.249 9.555,22.333 9.211,22.284 9.079,22.061 8.987,21.907 8.939,21.732 8.916,21.555 8.875,21.244 8.947,20.516 9.339,20.406 c 0.187,0.025 0.373,0.05 0.559,0.075 0.081,0.081 0.14,0.175 0.178,0.281 0.07,0.153 0.108,0.316 0.114,0.485 0.002,0.079 -0.128,1.068 -0.316,0.941 z m 2.704,-0.839 c -0.532,0.186 -1.066,0.363 -1.603,0.536 -0.248,0.079 -0.558,0.137 -0.829,0.235 0.125,-0.271 0.196,-0.711 0.197,-0.806 0.003,-0.352 -0.149,-0.865 -0.474,-1.062 0.911,-0.051 1.822,-0.15 2.733,-0.212 0.997,-0.066 2.017,-0.057 3.007,-0.189 0.014,-0.002 0.024,-0.009 0.032,-0.017 0.077,0.085 0.117,0.199 0.105,0.314 -0.004,0 -0.008,0 -0.012,0.002 -0.349,0.14 -0.698,0.277 -1.048,0.413 -0.015,-0.007 -0.034,-0.004 -0.045,0.015 -10e-4,0.001 -0.002,0.003 -0.003,0.004 -0.68,0.266 -1.367,0.525 -2.06,0.767 z m 0.56,4.598 c 0.019,-0.025 0.013,-0.052 -0.003,-0.07 0.125,-1.486 0.139,-3.073 -0.003,-4.558 0.486,-0.175 0.972,-0.354 1.453,-0.54 -0.003,0.061 0.009,0.116 0.049,0.147 -0.016,0.021 -0.016,0.054 0.012,0.068 0.442,0.231 0.902,0.21 1.395,0.194 0.042,-10e-4 0.083,-0.003 0.124,-0.004 -0.037,0.203 -0.02,0.417 -0.011,0.623 0.011,0.247 0.016,0.499 0.067,0.742 0.009,0.041 0.047,0.054 0.081,0.044 0.022,0.174 0.342,0.236 0.488,0.253 0.323,0.035 0.655,-0.042 0.878,-0.29 0.024,0 0.048,-0.014 0.056,-0.047 0.045,-0.222 0.038,-0.454 0.047,-0.681 0.008,-0.216 0.051,-0.462 -0.023,-0.668 0.036,0.001 0.071,0.001 0.108,0.002 0.058,0.072 0.175,0.062 0.27,0.067 0.168,0.01 0.449,0.065 0.599,-0.041 0.137,-0.098 0.128,-0.307 0.138,-0.454 0.019,-0.289 0.049,-0.599 -0.005,-0.885 0.035,-0.002 0.069,-0.002 0.104,-0.003 0.042,-0.002 0.065,-0.03 0.072,-0.062 0.238,-10e-4 0.24,-0.266 0.256,-0.495 0.064,-0.97 0.056,-1.974 0.036,-2.946 0.839,0.053 1.678,0.111 2.516,0.182 0.026,0.002 0.046,-0.006 0.06,-0.02 0.159,0.01 0.297,-0.012 0.418,-0.056 0.006,0.008 0.015,0.013 0.027,0.009 1.408,-0.412 2.773,-1.288 4.095,-1.931 0.003,-10e-4 0.004,-0.003 0.007,-0.005 0.021,0.008 0.047,0.006 0.066,-0.012 0.247,-0.222 0.205,1.13 0.203,1.168 -0.015,0.291 -0.026,0.583 -0.039,0.874 -0.029,0.68 -0.055,1.36 -0.076,2.041 -0.041,1.264 -0.071,2.527 -0.088,3.791 -0.036,2.543 -0.154,5.153 0.044,7.692 -0.005,-0.016 -0.017,-0.029 -0.036,-0.038 -0.93,-0.414 -1.955,-0.683 -2.92,-1.004 -1.138,-0.378 -2.278,-0.8 -3.444,-1.078 -0.014,-0.003 -0.023,0 -0.032,0.005 0.019,-0.119 0.031,-0.239 0.038,-0.36 0.309,0.146 0.696,0.25 0.985,0.009 0.334,-0.278 0.329,-0.894 0.36,-1.289 0.028,-0.353 0.079,-0.793 -0.205,-1.063 -0.332,-0.314 -0.796,-0.15 -1.112,0.086 10e-4,-0.172 10e-4,-0.344 0.002,-0.516 0,-0.008 -0.003,-0.014 -0.004,-0.02 0.013,-0.049 -0.03,-0.09 -0.076,-0.094 -0.584,-0.943 -4.869,-0.713 -4.889,0.1 -0.006,0.001 -0.012,0.003 -0.017,0.006 -0.011,-0.002 -0.021,-0.002 -0.031,0.005 -0.078,0.056 -0.079,0.175 -0.066,0.269 -0.038,0.425 -0.045,0.852 -0.036,1.278 -0.562,-0.204 -1.24,-0.5 -1.839,-0.503 -0.028,-0.001 -0.04,0.039 -0.015,0.054 0.265,0.144 0.573,0.204 0.86,0.293 0.33,0.102 0.659,0.213 0.984,0.327 0.005,0.001 0.009,0 0.013,0.002 0.008,0.257 0.02,0.515 0.037,0.771 0.029,0.432 0.045,0.915 0.25,1.309 0.417,0.797 1.639,1.044 2.454,1.052 0.804,0.007 1.662,-0.321 2.08,-1.045 0.111,-0.192 0.175,-0.397 0.214,-0.607 0.005,0.006 0.01,0.014 0.019,0.017 1.071,0.43 2.192,0.747 3.286,1.112 1.007,0.336 2.016,0.765 3.044,1.025 0.011,0.003 0.021,0.002 0.032,0 -1.096,1.165 -2.754,1.847 -4.246,2.351 -1.74,0.588 -3.726,0.59 -5.521,0.266 -1.492,-0.271 -3.772,-0.778 -4.599,-2.198 -0.964,-1.664 0.058,-3.294 1.009,-4.651 z m 7.644,1.124 c 0.217,-0.18 0.256,-0.527 0.283,-0.786 0.025,-0.242 0.054,-0.589 -0.179,-0.749 -0.223,-0.153 -0.495,-0.018 -0.696,0.106 0,-0.058 0,-0.114 10e-4,-0.171 0.013,0.003 0.027,0.001 0.043,-0.008 0.313,-0.193 0.774,-0.378 1.038,0.021 0.143,0.217 0.083,0.593 0.062,0.838 -0.023,0.286 -0.045,0.583 -0.133,0.857 -0.15,0.469 -0.644,0.383 -1.013,0.272 -0.007,-0.002 -0.013,-0.001 -0.019,-0.001 0.003,-0.102 0.006,-0.204 0.008,-0.305 0,-0.028 0,-0.058 0.001,-0.086 0.196,0.104 0.415,0.168 0.604,0.012 z m -0.601,-0.137 c 0.006,-0.377 0.008,-0.754 0.01,-1.131 0.02,0.007 0.042,0.007 0.066,-0.008 0.175,-0.11 0.494,-0.318 0.639,0.036 0.051,0.126 0.021,0.322 0.006,0.453 -0.016,0.149 -0.038,0.312 -0.092,0.454 -0.116,0.307 -0.354,0.316 -0.629,0.196 z m -4.956,-1.843 c 0,-0.016 -0.006,-0.028 -0.014,-0.037 0,-0.023 0.003,-0.047 0.008,-0.07 0.004,-0.016 0.009,-0.03 0.015,-0.046 0.667,0.593 1.749,0.663 2.604,0.645 0.625,-0.015 1.667,-0.083 2.18,-0.558 0,0.833 0.033,1.678 -0.025,2.507 -0.088,1.236 -0.944,1.977 -2.171,1.97 -0.451,-0.003 -0.932,-0.104 -1.352,-0.271 -0.612,-0.244 -1,-0.599 -1.117,-1.253 -0.169,-0.943 -0.104,-1.934 -0.128,-2.887 z m 2.415,-0.773 c 0.604,-0.015 1.978,-0.122 2.343,0.512 -0.468,0.566 -1.764,0.596 -2.405,0.582 -0.754,-0.017 -1.615,-0.111 -2.252,-0.55 10e-4,-0.005 0,-0.01 -0.004,-0.016 -0.131,-0.194 2.145,-0.524 2.318,-0.528 z m 11.743,5.889 c -0.028,-0.003 -0.059,0.006 -0.08,0.037 -0.855,1.255 -1.728,2.534 -2.893,3.528 -1.357,1.156 -3.053,1.614 -4.78,1.903 -3.156,0.527 -7.479,0.384 -9.771,-2.195 0.009,-0.011 0.016,-0.023 0.017,-0.041 0.069,-1.002 0.04,-2.069 -0.062,-3.103 0.63,1.489 2.529,2.066 3.968,2.433 1.895,0.482 3.979,0.586 5.888,0.115 0.888,-0.219 1.74,-0.606 2.569,-0.984 0.879,-0.4 1.702,-0.868 2.352,-1.591 0.039,0.04 0.119,0.026 0.121,-0.046 0.062,-1.646 -0.042,-3.311 -0.042,-4.959 0,-1.653 0.02,-3.307 0.06,-4.96 0.038,-1.604 0.097,-3.207 0.17,-4.811 0.013,-0.276 0.192,-0.945 -0.082,-1.165 -0.146,-0.118 -0.27,-0.088 -0.369,0.025 -0.023,-0.02 -0.058,-0.028 -0.093,-0.011 -1.168,0.568 -2.508,1.057 -3.626,1.755 0.545,-0.739 0.319,-2.388 0.33,-3.071 0.017,-1.035 0.147,-2.143 0.046,-3.172 C 23.061,9.441 22.898,9.117 22.417,9.1 22.404,9.089 22.388,9.08 22.366,9.079 19.572,8.925 16.777,8.803 13.982,8.665 13.296,8.632 12.61,8.598 11.923,8.563 11.434,8.54 10.893,8.449 10.393,8.479 10.69,8.347 11.031,8.201 11.087,8.178 11.497,8.02 11.907,7.861 12.316,7.701 13.045,7.419 13.773,7.137 14.501,6.854 15.226,6.575 15.947,6.255 16.69,6.029 17.542,5.77 18.392,5.893 19.26,5.974 c 1.608,0.151 3.216,0.303 4.823,0.454 0.78,0.073 1.56,0.146 2.339,0.22 0.576,0.054 2.969,-0.021 2.947,0.854 -0.002,0.056 0.04,0.084 0.084,0.085 -0.04,3.753 -0.012,7.508 0.053,11.26 0.032,1.87 0.082,3.738 0.098,5.608 0.016,1.87 0.179,3.914 -0.221,5.752 z"
       id="path5"
       inkscape:connector-curvature="0" /><path
       d="m 23.956,30.069 c -1.032,0.853 -2.07,1.65 -3.392,1.988 -1.251,0.32 -2.576,0.269 -3.839,0.052 -1.285,-0.221 -2.716,-0.6 -3.509,-1.725 -0.905,-1.285 -0.248,-2.818 0.424,-4.039 0.021,-0.038 -0.032,-0.067 -0.057,-0.033 -0.691,0.977 -1.254,2.39 -0.786,3.571 0.513,1.295 1.859,1.906 3.13,2.206 1.399,0.33 2.891,0.469 4.311,0.189 1.503,-0.295 2.664,-1.152 3.813,-2.115 0.068,-0.055 -0.029,-0.15 -0.095,-0.094 z"
       id="path7"
       inkscape:connector-curvature="0" /><path
       d="m 22.418,29.629 c -1.482,1.554 -3.554,2.348 -5.695,1.939 -0.979,-0.186 -2.162,-0.604 -2.714,-1.491 -0.694,-1.114 -0.258,-2.43 0.369,-3.457 0.024,-0.041 -0.037,-0.075 -0.063,-0.037 -0.628,0.914 -1.017,2.05 -0.613,3.138 0.363,0.979 1.32,1.479 2.263,1.783 2.33,0.749 4.921,0.046 6.543,-1.785 0.052,-0.06 -0.033,-0.148 -0.09,-0.09 z"
       id="path9"
       inkscape:connector-curvature="0" /><path
       d="m 21.376,29.153 c -0.922,1.438 -2.531,1.87 -4.161,1.672 -0.728,-0.089 -1.529,-0.236 -2.035,-0.816 -0.725,-0.83 -0.565,-1.974 -0.137,-2.896 0.01,-0.021 -0.018,-0.037 -0.03,-0.018 -0.99,1.588 -0.303,3.366 1.533,3.765 1.778,0.385 3.979,0.105 4.938,-1.643 0.038,-0.071 -0.065,-0.132 -0.108,-0.064 z"
       id="path11"
       inkscape:connector-curvature="0" /><path
       d="m 20.725,28.589 c -0.461,0.945 -1.175,1.587 -2.26,1.678 -1.073,0.091 -2.155,-0.155 -2.819,-1.06 -0.021,-0.027 -0.063,-0.004 -0.047,0.027 1.073,1.971 4.543,1.426 5.222,-0.604 0.019,-0.056 -0.071,-0.095 -0.096,-0.041 z"
       id="path13"
       inkscape:connector-curvature="0" /><path
       d="M 28.688,7.318 C 26.918,7.96 25.129,8.547 23.361,9.189 23.296,9.212 23.321,9.314 23.39,9.294 25.193,8.77 26.97,8.123 28.731,7.473 28.828,7.438 28.787,7.282 28.688,7.318 Z"
       id="path15"
       inkscape:connector-curvature="0" /><path
       d="m 10.866,14.105 c -0.115,-0.169 -0.423,-0.278 -0.563,-0.083 -0.008,0.011 -0.01,0.023 -0.009,0.036 -0.172,0.088 -0.268,0.304 -0.188,0.492 0.097,0.229 0.405,0.322 0.617,0.192 0.208,-0.126 0.28,-0.434 0.143,-0.637 z m -0.203,0.491 c -0.122,0.093 -0.313,0.056 -0.398,-0.072 -0.101,-0.149 0.002,-0.357 0.163,-0.406 0.02,-0.006 0.029,-0.018 0.034,-0.031 0.097,-0.023 0.19,-0.011 0.267,0.084 0.101,0.125 0.059,0.329 -0.066,0.425 z"
       id="path17"
       inkscape:connector-curvature="0" /><path
       d="m 10.804,12.801 c -0.147,-0.17 -0.474,-0.193 -0.61,0.004 -0.006,0.009 -0.008,0.019 -0.008,0.028 -0.098,0.115 -0.133,0.281 -0.059,0.426 0.109,0.211 0.407,0.285 0.602,0.149 0.189,-0.132 0.227,-0.432 0.075,-0.607 z m -0.161,0.491 c -0.127,0.083 -0.324,0.032 -0.394,-0.104 -0.052,-0.105 -0.021,-0.228 0.05,-0.314 0.122,-0.069 0.268,-0.106 0.384,0.007 0.112,0.108 0.09,0.326 -0.04,0.411 z"
       id="path19"
       inkscape:connector-curvature="0" /><path
       d="m 12.1,14.372 c -0.03,-0.245 -0.295,-0.472 -0.544,-0.378 -0.015,-0.011 -0.032,-0.016 -0.053,-0.008 -0.207,0.083 -0.313,0.317 -0.267,0.532 0.049,0.229 0.267,0.353 0.49,0.312 0.219,-0.039 0.402,-0.228 0.374,-0.458 z m -0.411,0.324 c -0.369,0.057 -0.431,-0.447 -0.136,-0.591 0.013,-0.006 0.021,-0.016 0.025,-0.027 0.176,0.004 0.352,0.111 0.384,0.297 0.028,0.167 -0.117,0.297 -0.273,0.321 z"
       id="path21"
       inkscape:connector-curvature="0" /><path
       d="m 11.541,12.692 c -0.248,0.072 -0.334,0.346 -0.211,0.563 0.057,0.102 0.154,0.183 0.272,0.199 0.013,0.002 0.026,0.002 0.04,0.002 0.006,0.006 0.013,0.012 0.021,0.016 0.104,0.042 0.236,-0.056 0.301,-0.132 0.077,-0.091 0.121,-0.214 0.108,-0.333 -0.026,-0.254 -0.301,-0.382 -0.531,-0.315 z m 0.3,0.584 c -0.022,0.022 -0.047,0.034 -0.073,0.045 0,-0.002 0,-0.004 -0.002,-0.006 -0.004,-0.013 -0.023,-0.012 -0.023,0.003 10e-4,0.007 -0.002,0.012 -0.006,0.017 -0.01,0.004 -0.021,0.007 -0.031,0.012 -0.052,0.002 -0.144,-0.037 -0.162,-0.05 -0.061,-0.043 -0.107,-0.112 -0.126,-0.185 -0.042,-0.168 0.082,-0.299 0.248,-0.301 0.156,-0.002 0.29,0.105 0.272,0.27 -0.008,0.074 -0.043,0.144 -0.097,0.195 z"
       id="path23"
       inkscape:connector-curvature="0" /><path
       d="m 20.45,13.132 c -0.32,-0.615 -0.898,-0.836 -1.541,-0.909 -0.065,-0.02 -0.132,-0.038 -0.199,-0.051 -0.039,-0.008 -0.065,0.02 -0.072,0.05 -0.652,0.04 -1.207,0.733 -1.29,1.354 -0.051,0.383 0.056,0.745 0.267,1.027 0.543,1.009 1.983,1.217 2.723,0.22 0.367,-0.495 0.395,-1.147 0.112,-1.691 z m -1.686,-0.824 c 0.547,0.145 1.05,0.501 1.221,1.065 0.21,0.695 -0.192,1.454 -0.915,1.612 -0.545,0.119 -1.076,-0.093 -1.366,-0.502 -0.035,-0.064 -0.066,-0.133 -0.095,-0.205 -0.007,-0.021 -0.022,-0.033 -0.039,-0.039 -0.062,-0.151 -0.097,-0.318 -0.093,-0.501 0.013,-0.699 0.594,-1.351 1.287,-1.43 z m -0.511,2.769 c 0.127,0.045 0.262,0.074 0.403,0.081 0.816,0.039 1.486,-0.51 1.524,-1.344 0.027,-0.608 -0.324,-1.098 -0.811,-1.388 0.247,0.071 0.48,0.178 0.677,0.369 0.438,0.431 0.585,1.103 0.326,1.663 -0.422,0.91 -1.417,1.062 -2.119,0.619 z"
       id="path25"
       inkscape:connector-curvature="0" /></g></svg>