<?xml version="1.0" encoding="UTF-8" standalone="no"?>
<!-- Generator: Adobe Illustrator 16.0.0, SVG Export Plug-In . SVG Version: 6.00 Build 0)  -->

<svg
   xmlns:dc="http://purl.org/dc/elements/1.1/"
   xmlns:cc="http://creativecommons.org/ns#"
   xmlns:rdf="http://www.w3.org/1999/02/22-rdf-syntax-ns#"
   xmlns:svg="http://www.w3.org/2000/svg"
   xmlns="http://www.w3.org/2000/svg"
   xmlns:sodipodi="http://sodipodi.sourceforge.net/DTD/sodipodi-0.dtd"
   xmlns:inkscape="http://www.inkscape.org/namespaces/inkscape"
   version="1.1"
   id="Layer_1"
   x="0px"
   y="0px"
   width="26.71719"
   height="39.97813"
   viewBox="0 0 26.71719 39.97813"
   enable-background="new 0 0 39.604 41.771"
   xml:space="preserve"
   inkscape:version="0.91 r13725"
   sodipodi:docname="espresso-tamper.svg"><metadata
     id="metadata19"><rdf:RDF><cc:Work
         rdf:about=""><dc:format>image/svg+xml</dc:format><dc:type
           rdf:resource="http://purl.org/dc/dcmitype/StillImage" /><dc:title></dc:title></cc:Work></rdf:RDF></metadata><defs
     id="defs17" /><sodipodi:namedview
     pagecolor="#ffffff"
     bordercolor="#666666"
     borderopacity="1"
     objecttolerance="10"
     gridtolerance="10"
     guidetolerance="10"
     inkscape:pageopacity="0"
     inkscape:pageshadow="2"
     inkscape:window-width="1097"
     inkscape:window-height="643"
     id="namedview15"
     showgrid="false"
     inkscape:zoom="5.6498528"
     inkscape:cx="-5.2429002"
     inkscape:cy="20.8855"
     inkscape:window-x="40"
     inkscape:window-y="86"
     inkscape:window-maximized="0"
     inkscape:current-layer="Layer_1" /><g
     id="g3"
     transform="translate(-7.1118194,-2.8939586)"><path
       stroke-miterlimit="10"
       d="m 25.072,29.871 c -0.261,-0.609 -0.382,-1.097 -0.541,-1.548 -0.249,-0.705 -0.338,-1.355 -0.415,-2.111 -0.143,-1.402 0.282,-2.6 0.347,-4.004 0.062,-1.329 0.508,-2.782 1.156,-3.895 0.69,-1.184 1.617,-1.872 1.631,-3.333 0.052,-5.848 -8.4,-5.801 -11.587,-2.612 -0.908,0.908 -0.964,2.131 -0.583,3.201 0.415,1.167 1.168,1.666 1.543,2.811 0.599,1.83 1.07,5.048 0.612,7.835 -0.155,0.941 -0.064,1.928 -0.542,2.765 -0.521,0.912 -1.463,0.966 -2.312,1.523 -0.52,0.341 -1.836,0.482 -2.001,0.933 -0.092,0.253 -0.209,0.903 -0.256,1.876 -0.029,0.612 -0.101,0.962 -0.071,1.48 -0.004,0.522 3.245,0.587 4.529,0.667 1.445,0.091 2.688,10e-4 4.11,0.073 1.448,0.072 2.868,-0.087 4.293,-0.087 0.834,0 3.365,0.143 3.744,-0.479 0.218,-0.357 0.173,-1.198 0.132,-1.611 -0.071,-0.706 0.075,-1.567 -0.313,-1.774 -0.95,-0.505 -2.886,-0.505 -3.476,-1.71"
       id="path5"
       inkscape:connector-curvature="0"
       style="fill:none;stroke:#000000;stroke-width:0.25;stroke-linecap:round;stroke-linejoin:round;stroke-miterlimit:10" /><path
       stroke-miterlimit="10"
       d="m 12.304,31.715 c 0,0 8.928,-0.481 16.486,0.296"
       id="path7"
       inkscape:connector-curvature="0"
       style="fill:none;stroke:#000000;stroke-width:0.25;stroke-linecap:round;stroke-linejoin:round;stroke-miterlimit:10" /><path
       stroke-miterlimit="10"
       d="m 16.974,28.217 c 0.262,-0.08 0.71,-0.123 0.992,-0.184 0.299,-0.065 0.601,-0.104 0.924,-0.121 0.669,-0.037 1.155,-0.092 1.829,-0.065 0.646,0.025 1.263,-0.007 2.002,0.174 0.603,0.147 1.199,0.242 1.742,0.414"
       id="path9"
       inkscape:connector-curvature="0"
       style="fill:none;stroke:#000000;stroke-width:0.25;stroke-linecap:round;stroke-linejoin:round;stroke-miterlimit:10" /><path
       stroke-miterlimit="10"
       d="m 17.235,26.388 c 0.599,-0.15 1.043,-0.401 1.698,-0.436 0.64,-0.034 1.268,-0.043 1.915,-0.043 0.623,-10e-4 1.002,0.005 1.872,0.152 0.495,0.084 0.543,0.056 0.85,0.152 0.276,0.086 0.349,0.148 0.579,0.304"
       id="path11"
       inkscape:connector-curvature="0"
       style="fill:none;stroke:#000000;stroke-width:0.25;stroke-linecap:round;stroke-linejoin:round;stroke-miterlimit:10" /><path
       stroke-miterlimit="10"
       d="m 14.891,14.798 c 1.604,-1.399 3.983,-1.798 6.054,-1.777 1.003,0.01 2.183,0.149 3.128,0.51 0.771,0.294 1.231,0.429 1.871,0.752 0.279,0.141 0.706,0.605 0.84,0.729 0.154,0.145 0.312,0.517 0.407,0.546"
       id="path13"
       inkscape:connector-curvature="0"
       style="fill:none;stroke:#000000;stroke-width:0.25;stroke-linecap:round;stroke-linejoin:round;stroke-miterlimit:10" /></g></svg>