<?xml version="1.0" encoding="UTF-8" standalone="no"?>
<!-- Generator: Adobe Illustrator 16.0.0, SVG Export Plug-In . SVG Version: 6.00 Build 0)  -->

<svg
   xmlns:dc="http://purl.org/dc/elements/1.1/"
   xmlns:cc="http://creativecommons.org/ns#"
   xmlns:rdf="http://www.w3.org/1999/02/22-rdf-syntax-ns#"
   xmlns:svg="http://www.w3.org/2000/svg"
   xmlns="http://www.w3.org/2000/svg"
   xmlns:sodipodi="http://sodipodi.sourceforge.net/DTD/sodipodi-0.dtd"
   xmlns:inkscape="http://www.inkscape.org/namespaces/inkscape"
   version="1.1"
   id="Layer_1"
   x="0px"
   y="0px"
   width="24.334999"
   height="22.374001"
   viewBox="0 0 24.334999 22.374001"
   enable-background="new 0 0 39.604 41.771"
   xml:space="preserve"
   inkscape:version="0.91 r13725"
   sodipodi:docname="ground-espresso-beans.svg"><metadata
     id="metadata601"><rdf:RDF><cc:Work
         rdf:about=""><dc:format>image/svg+xml</dc:format><dc:type
           rdf:resource="http://purl.org/dc/dcmitype/StillImage" /><dc:title></dc:title></cc:Work></rdf:RDF></metadata><defs
     id="defs599" /><sodipodi:namedview
     pagecolor="#ffffff"
     bordercolor="#666666"
     borderopacity="1"
     objecttolerance="10"
     gridtolerance="10"
     guidetolerance="10"
     inkscape:pageopacity="0"
     inkscape:pageshadow="2"
     inkscape:window-width="1613"
     inkscape:window-height="839"
     id="namedview597"
     showgrid="false"
     inkscape:zoom="7.9900984"
     inkscape:cx="28.562357"
     inkscape:cy="19.265561"
     inkscape:window-x="0"
     inkscape:window-y="0"
     inkscape:window-maximized="0"
     inkscape:current-layer="Layer_1" /><g
     id="g4791"
     transform="translate(-7.5046618,-11.108219)"><g
       id="g4729"><g
         id="g297"><path
           stroke-miterlimit="10"
           d="m 16.169,16.395 c -0.194,0.083 -0.389,0.167 -0.583,0.25"
           id="path299"
           inkscape:connector-curvature="0"
           style="fill:none;stroke:#ffffff;stroke-width:0.25;stroke-linecap:round;stroke-linejoin:round;stroke-miterlimit:10" /><g
           id="g301"><path
             d="m 31.835,32.997 c -0.38,-1.028 -1.149,-1.832 -1.583,-2.832 -0.496,-1.147 -0.623,-2.404 -0.737,-3.637 -0.107,-1.169 -0.028,-2.25 0.095,-3.415 0.098,-0.927 0.104,-1.84 -0.276,-2.686 0.274,0.036 0.504,0.055 0.546,0.018 0.021,-0.018 0.073,-0.011 0.106,-0.042 0.016,-0.015 0.021,-0.035 0.022,-0.055 0.048,-0.015 0.082,-0.079 0.038,-0.128 -0.758,-0.857 -0.319,-2.398 0.112,-3.323 0.183,-0.39 0.329,-0.699 0.104,-1.062 0.017,-0.046 0.004,-0.108 -0.054,-0.133 -0.84,-0.354 -1.545,-0.928 -2.432,-1.182 -0.902,-0.258 -1.875,-0.333 -2.809,-0.389 -2.121,-0.126 -4.246,0.04 -6.356,0.256 -2.123,0.218 -4.243,0.493 -6.376,0.598 -0.857,0.042 -1.831,-0.104 -2.67,0.09 -0.312,0.073 -0.557,0.217 -0.709,0.442 -0.003,0.002 -0.007,0.003 -0.008,0.005 -0.457,0.399 -0.083,0.878 0.244,1.249 0.516,0.585 1.039,0.944 1.13,1.802 0.065,0.624 -0.178,1.217 -0.311,1.812 -0.004,0.017 0.006,0.03 0.017,0.039 10e-4,0.029 0.02,0.058 0.059,0.057 0.227,-0.001 0.449,0.009 0.671,0.027 -0.254,2.11 -1.101,4.013 -1.812,5.999 -0.346,0.963 -0.634,1.94 -0.78,2.954 -0.166,1.128 -0.256,2.245 -0.558,3.351 -0.022,0.08 0.07,0.118 0.122,0.078 1.609,0.369 3.205,-0.172 4.21,-1.471 0.005,-0.007 0.009,-0.015 0.013,-0.023 1.006,-0.005 2.021,0.342 3.024,0.612 1.352,0.365 2.742,0.561 4.141,0.619 1.496,0.062 2.996,-0.031 4.479,-0.225 0.702,-0.092 1.403,-0.207 2.1,-0.338 0.375,-0.071 0.747,-0.156 1.119,-0.22 1.583,0.677 3.323,2.406 5.08,1.25 0.03,-0.019 0.053,-0.061 0.039,-0.097 z M 10.005,20.358 c 0.305,-0.673 0.51,-1.473 0.315,-2.201 -0.173,-0.65 -1.607,-1.739 -1.446,-2.404 0.452,-0.809 2.12,-0.547 2.894,-0.576 0.937,-0.035 1.87,-0.105 2.802,-0.192 1.815,-0.168 3.624,-0.4 5.44,-0.553 1.751,-0.147 3.513,-0.222 5.267,-0.094 0.947,0.068 1.955,0.148 2.851,0.491 0.698,0.269 1.299,0.733 1.985,1.029 0.26,0.537 -0.171,0.964 -0.341,1.44 -0.146,0.409 -0.202,0.849 -0.254,1.278 -0.077,0.615 -0.079,1.192 0.33,1.66 -0.006,0.003 -0.011,0.007 -0.017,0.011 -0.034,0.021 -0.043,0.054 -0.037,0.083 -0.158,-0.066 -0.421,-0.168 -0.464,-0.177 -0.05,-0.009 -0.102,-0.016 -0.152,-0.022 -0.024,-0.019 -0.053,-0.019 -0.078,-0.008 -0.033,-0.003 -0.066,-0.006 -0.098,-0.008 -0.456,-0.042 -0.915,-0.033 -1.371,0.01 -0.772,0.071 -1.532,0.239 -2.28,0.439 -1.762,0.472 -3.459,1.044 -5.292,1.173 -1.736,0.123 -3.488,-0.047 -5.181,-0.45 -1.354,-0.323 -2.686,-0.845 -4.076,-0.931 0,-0.001 0,-0.001 0,-0.002 0.003,-0.079 -0.108,-0.077 -0.122,-0.006 -0.225,-0.008 -0.449,-0.007 -0.675,0.01 z m 21.51,12.715 c -0.108,0.162 -0.657,0.218 -0.831,0.227 -1.4,0.068 -2.526,-0.957 -3.767,-1.488 0.502,-0.073 1.005,-0.098 1.52,0.011 0.121,0.026 0.173,-0.16 0.052,-0.186 -1.438,-0.307 -3.001,0.28 -4.422,0.492 -1.767,0.262 -3.561,0.392 -5.347,0.294 -1.723,-0.094 -3.329,-0.486 -4.984,-0.935 -1.217,-0.33 -2.535,-0.502 -3.637,0.244 -0.057,0.039 -0.007,0.128 0.056,0.094 0.498,-0.277 1.003,-0.399 1.51,-0.425 -0.558,0.534 -1.042,1.036 -1.828,1.252 -0.72,0.198 -1.437,0.103 -2.165,0.159 0.388,-1.111 0.406,-2.299 0.588,-3.451 0.167,-1.054 0.488,-2.068 0.856,-3.067 0.691,-1.879 1.561,-3.749 1.677,-5.772 1.58,0.156 3.064,0.743 4.626,1.065 1.669,0.344 3.39,0.464 5.088,0.296 1.686,-0.166 3.266,-0.706 4.894,-1.14 0.929,-0.248 1.877,-0.446 2.843,-0.461 0.124,-0.002 0.521,0.064 0.893,0.118 0.736,1.568 0.089,3.256 0.123,4.911 0.029,1.406 0.171,2.941 0.597,4.287 0.193,0.612 0.478,1.167 0.829,1.704 0.197,0.304 0.409,0.599 0.593,0.911 0.098,0.17 0.374,0.652 0.236,0.86 z"
             id="path303"
             inkscape:connector-curvature="0" /></g><path
           stroke-miterlimit="10"
           d="m 10.242,16.119 c 3.146,0.865 5.919,2.233 9.295,2.425 1.722,0.098 3.459,-0.297 4.991,-0.906 1.546,-0.614 2.818,-1.396 4.572,-1.114"
           id="path305"
           inkscape:connector-curvature="0"
           style="fill:none;stroke:#000000;stroke-width:0.25;stroke-linecap:round;stroke-linejoin:round;stroke-miterlimit:10" /><path
           stroke-miterlimit="10"
           d="m 11.357,16.363 c 0.589,0.8 3.821,1.419 4.775,1.608 1.911,0.38 3.528,0.845 5.602,0.509 1.688,-0.274 3.186,-1.251 4.825,-1.647 1.474,-0.356 1.197,-0.327 1.104,-1.593 -0.035,-0.492 -0.121,-1.487 -1.381,-1.833 -1.591,-0.177 -1.284,-0.341 -1.465,-0.757 -0.316,-0.626 -1.146,-1.38 -2.929,-1.415 -1.41,-0.027 -2.678,0.324 -3.112,1.324 -0.172,0.394 -0.894,0.403 -1.051,0.424 -0.357,0.045 -0.662,0.01 -0.865,-0.138 -0.646,-0.47 -1.889,-0.058 -2.434,0.206 -0.826,0.397 -0.47,1.557 -1.659,1.623 -0.56,0.199 -1.001,0.502 -1.402,1.511 l -0.008,0.178 z"
           id="path307"
           inkscape:connector-curvature="0"
           style="fill:#ffffff;stroke:#000000;stroke-width:0.25;stroke-miterlimit:10" /><g
           id="g309"><path
             stroke-miterlimit="10"
             d="m 20.753,11.69 c 0,0.059 0,0.118 0,0.177"
             id="path311"
             inkscape:connector-curvature="0"
             style="fill:none;stroke:#000000;stroke-width:0.25;stroke-linecap:round;stroke-linejoin:round;stroke-miterlimit:10" /><path
             stroke-miterlimit="10"
             d="m 21.282,11.716 c -0.013,0.045 -0.029,0.086 -0.051,0.126"
             id="path313"
             inkscape:connector-curvature="0"
             style="fill:none;stroke:#000000;stroke-width:0.25;stroke-linecap:round;stroke-linejoin:round;stroke-miterlimit:10" /><path
             stroke-miterlimit="10"
             d="m 15.608,13.627 c 0.109,0.086 0.217,0.109 0.271,0"
             id="path315"
             inkscape:connector-curvature="0"
             style="fill:none;stroke:#000000;stroke-width:0.25;stroke-linecap:round;stroke-linejoin:round;stroke-miterlimit:10" /><path
             stroke-miterlimit="10"
             d="m 17.495,14.233 c 0.103,0.016 0.19,-0.007 0.27,-0.067"
             id="path317"
             inkscape:connector-curvature="0"
             style="fill:none;stroke:#000000;stroke-width:0.25;stroke-linecap:round;stroke-linejoin:round;stroke-miterlimit:10" /><path
             stroke-miterlimit="10"
             d="m 16.552,14.502 c -0.008,0.101 0.04,0.168 0.135,0.202"
             id="path319"
             inkscape:connector-curvature="0"
             style="fill:none;stroke:#000000;stroke-width:0.25;stroke-linecap:round;stroke-linejoin:round;stroke-miterlimit:10" /><path
             stroke-miterlimit="10"
             d="m 18.572,13.424 c 0.061,0.055 0.132,0.102 0.202,0.135"
             id="path321"
             inkscape:connector-curvature="0"
             style="fill:none;stroke:#000000;stroke-width:0.25;stroke-linecap:round;stroke-linejoin:round;stroke-miterlimit:10" /><path
             stroke-miterlimit="10"
             d="m 18.774,14.637 c 0.045,0.068 0.09,0.134 0.135,0.202"
             id="path323"
             inkscape:connector-curvature="0"
             style="fill:none;stroke:#000000;stroke-width:0.25;stroke-linecap:round;stroke-linejoin:round;stroke-miterlimit:10" /><path
             stroke-miterlimit="10"
             d="m 19.852,12.818 c -0.022,0 -0.045,0 -0.067,0"
             id="path325"
             inkscape:connector-curvature="0"
             style="fill:none;stroke:#000000;stroke-width:0.25;stroke-linecap:round;stroke-linejoin:round;stroke-miterlimit:10" /><path
             stroke-miterlimit="10"
             d="m 20.659,14.031 c 0.046,0.022 0.091,0.045 0.136,0.067"
             id="path327"
             inkscape:connector-curvature="0"
             style="fill:none;stroke:#000000;stroke-width:0.25;stroke-linecap:round;stroke-linejoin:round;stroke-miterlimit:10" /><path
             stroke-miterlimit="10"
             d="m 21.94,12.01 c 0.116,-0.035 0.224,-0.021 0.269,0.067"
             id="path329"
             inkscape:connector-curvature="0"
             style="fill:none;stroke:#000000;stroke-width:0.25;stroke-linecap:round;stroke-linejoin:round;stroke-miterlimit:10" /><path
             stroke-miterlimit="10"
             d="m 23.018,12.684 c -0.09,0 -0.179,0 -0.27,0"
             id="path331"
             inkscape:connector-curvature="0"
             style="fill:none;stroke:#000000;stroke-width:0.25;stroke-linecap:round;stroke-linejoin:round;stroke-miterlimit:10" /><path
             stroke-miterlimit="10"
             d="M 21.536,16.32 C 21.5,16.243 21.418,16.164 21.334,16.118"
             id="path333"
             inkscape:connector-curvature="0"
             style="fill:none;stroke:#000000;stroke-width:0.25;stroke-linecap:round;stroke-linejoin:round;stroke-miterlimit:10" /><path
             stroke-miterlimit="10"
             d="m 23.084,14.098 c 0.051,0.145 0.115,0.298 0.203,0.203"
             id="path335"
             inkscape:connector-curvature="0"
             style="fill:none;stroke:#000000;stroke-width:0.25;stroke-linecap:round;stroke-linejoin:round;stroke-miterlimit:10" /><path
             stroke-miterlimit="10"
             d="m 21.604,14.435 c 0.021,0.045 0.045,0.09 0.067,0.134"
             id="path337"
             inkscape:connector-curvature="0"
             style="fill:none;stroke:#000000;stroke-width:0.25;stroke-linecap:round;stroke-linejoin:round;stroke-miterlimit:10" /><path
             stroke-miterlimit="10"
             d="m 14.936,14.839 c 0.045,0.044 0.09,0.089 0.135,0.134"
             id="path339"
             inkscape:connector-curvature="0"
             style="fill:none;stroke:#000000;stroke-width:0.25;stroke-linecap:round;stroke-linejoin:round;stroke-miterlimit:10" /><path
             stroke-miterlimit="10"
             d="m 16.282,15.849 c -0.045,0 -0.089,0 -0.135,0"
             id="path341"
             inkscape:connector-curvature="0"
             style="fill:none;stroke:#000000;stroke-width:0.25;stroke-linecap:round;stroke-linejoin:round;stroke-miterlimit:10" /><path
             stroke-miterlimit="10"
             d="m 18.102,15.984 c -0.023,0 -0.046,0 -0.068,0"
             id="path343"
             inkscape:connector-curvature="0"
             style="fill:none;stroke:#000000;stroke-width:0.25;stroke-linecap:round;stroke-linejoin:round;stroke-miterlimit:10" /><path
             stroke-miterlimit="10"
             d="m 19.448,15.917 c 0.039,0.062 0.062,0.129 0.067,0.202"
             id="path345"
             inkscape:connector-curvature="0"
             style="fill:none;stroke:#000000;stroke-width:0.25;stroke-linecap:round;stroke-linejoin:round;stroke-miterlimit:10" /><path
             stroke-miterlimit="10"
             d="m 19.92,15.176 c 0.071,-0.058 0.139,-0.058 0.202,0"
             id="path347"
             inkscape:connector-curvature="0"
             style="fill:none;stroke:#000000;stroke-width:0.25;stroke-linecap:round;stroke-linejoin:round;stroke-miterlimit:10" /><path
             stroke-miterlimit="10"
             d="m 22.614,15.445 c -0.022,0 -0.046,0 -0.067,0"
             id="path349"
             inkscape:connector-curvature="0"
             style="fill:none;stroke:#000000;stroke-width:0.25;stroke-linecap:round;stroke-linejoin:round;stroke-miterlimit:10" /><path
             stroke-miterlimit="10"
             d="m 24.229,13.694 c -0.055,-0.045 -0.055,-0.089 0,-0.135"
             id="path351"
             inkscape:connector-curvature="0"
             style="fill:none;stroke:#000000;stroke-width:0.25;stroke-linecap:round;stroke-linejoin:round;stroke-miterlimit:10" /><path
             stroke-miterlimit="10"
             d="m 23.624,15.58 c 0.076,-0.006 0.138,-0.027 0.202,-0.067"
             id="path353"
             inkscape:connector-curvature="0"
             style="fill:none;stroke:#000000;stroke-width:0.25;stroke-linecap:round;stroke-linejoin:round;stroke-miterlimit:10" /><path
             stroke-miterlimit="10"
             d="m 24.634,14.569 c -0.072,0.08 -0.019,0.085 0.067,0.068"
             id="path355"
             inkscape:connector-curvature="0"
             style="fill:none;stroke:#000000;stroke-width:0.25;stroke-linecap:round;stroke-linejoin:round;stroke-miterlimit:10" /><path
             stroke-miterlimit="10"
             d="m 21.132,13.088 c 0.045,-0.068 0.09,-0.135 0.135,-0.203"
             id="path357"
             inkscape:connector-curvature="0"
             style="fill:none;stroke:#000000;stroke-width:0.25;stroke-linecap:round;stroke-linejoin:round;stroke-miterlimit:10" /><path
             stroke-miterlimit="10"
             d="m 22.143,13.357 c -0.024,0.074 -0.007,0.125 0.066,0.135"
             id="path359"
             inkscape:connector-curvature="0"
             style="fill:none;stroke:#000000;stroke-width:0.25;stroke-linecap:round;stroke-linejoin:round;stroke-miterlimit:10" /><path
             stroke-miterlimit="10"
             d="m 16.687,16.994 c -0.07,0.106 0.039,0.088 0.135,0.067"
             id="path361"
             inkscape:connector-curvature="0"
             style="fill:none;stroke:#000000;stroke-width:0.25;stroke-linecap:round;stroke-linejoin:round;stroke-miterlimit:10" /><path
             stroke-miterlimit="10"
             d="m 14.465,16.792 c 0.066,0.144 0.132,0.271 0.202,0.202"
             id="path363"
             inkscape:connector-curvature="0"
             style="fill:none;stroke:#000000;stroke-width:0.25;stroke-linecap:round;stroke-linejoin:round;stroke-miterlimit:10" /><path
             stroke-miterlimit="10"
             d="m 13.454,16.522 c -0.09,-0.102 -0.042,-0.297 0.067,-0.471"
             id="path365"
             inkscape:connector-curvature="0"
             style="fill:none;stroke:#000000;stroke-width:0.25;stroke-linecap:round;stroke-linejoin:round;stroke-miterlimit:10" /><path
             stroke-miterlimit="10"
             d="m 14.06,14.368 c 0.023,0.041 0.257,0.428 0.135,0.27"
             id="path367"
             inkscape:connector-curvature="0"
             style="fill:none;stroke:#000000;stroke-width:0.25;stroke-linecap:round;stroke-linejoin:round;stroke-miterlimit:10" /><path
             stroke-miterlimit="10"
             d="m 23.22,16.658 c -0.024,0.074 -0.006,0.125 0.067,0.134"
             id="path369"
             inkscape:connector-curvature="0"
             style="fill:none;stroke:#000000;stroke-width:0.25;stroke-linecap:round;stroke-linejoin:round;stroke-miterlimit:10" /><path
             stroke-miterlimit="10"
             d="m 19.784,16.994 c 0.01,0.093 0.002,0.266 0,0.27"
             id="path371"
             inkscape:connector-curvature="0"
             style="fill:none;stroke:#000000;stroke-width:0.25;stroke-linecap:round;stroke-linejoin:round;stroke-miterlimit:10" /><path
             stroke-miterlimit="10"
             d="m 18.572,17.196 c 0.068,0.067 0.135,0.134 0.202,0.202"
             id="path373"
             inkscape:connector-curvature="0"
             style="fill:none;stroke:#000000;stroke-width:0.25;stroke-linecap:round;stroke-linejoin:round;stroke-miterlimit:10" /><path
             stroke-miterlimit="10"
             d="m 20.728,17.533 c 0.077,0.091 0.168,0.163 0.202,0.135"
             id="path375"
             inkscape:connector-curvature="0"
             style="fill:none;stroke:#000000;stroke-width:0.25;stroke-linecap:round;stroke-linejoin:round;stroke-miterlimit:10" /><path
             stroke-miterlimit="10"
             d="m 24.499,16.456 c 0.1,-0.034 0.182,-0.02 0.202,0.067"
             id="path377"
             inkscape:connector-curvature="0"
             style="fill:none;stroke:#000000;stroke-width:0.25;stroke-linecap:round;stroke-linejoin:round;stroke-miterlimit:10" /><path
             stroke-miterlimit="10"
             d="m 26.25,14.906 c 0.068,0.067 0.113,0.067 0.135,0"
             id="path379"
             inkscape:connector-curvature="0"
             style="fill:none;stroke:#000000;stroke-width:0.25;stroke-linecap:round;stroke-linejoin:round;stroke-miterlimit:10" /><path
             stroke-miterlimit="10"
             d="m 25.847,14.098 c 0.041,0.162 0.105,0.283 0.202,0.203"
             id="path381"
             inkscape:connector-curvature="0"
             style="fill:none;stroke:#000000;stroke-width:0.25;stroke-linecap:round;stroke-linejoin:round;stroke-miterlimit:10" /><path
             stroke-miterlimit="10"
             d="m 25.375,15.917 c -0.045,0 -0.09,0 -0.135,0"
             id="path383"
             inkscape:connector-curvature="0"
             style="fill:none;stroke:#000000;stroke-width:0.25;stroke-linecap:round;stroke-linejoin:round;stroke-miterlimit:10" /></g><g
           id="g385"><path
             d="m 17.048,27.379 c -0.044,0.095 -0.104,0.173 -0.179,0.232 -0.075,0.06 -0.156,0.102 -0.243,0.125 -0.088,0.023 -0.176,0.027 -0.265,0.011 -0.089,-0.016 -0.168,-0.053 -0.238,-0.11 -0.07,-0.057 -0.127,-0.136 -0.17,-0.236 -0.043,-0.1 -0.062,-0.223 -0.055,-0.369 0.005,-0.134 0.028,-0.249 0.07,-0.344 0.042,-0.095 0.095,-0.171 0.157,-0.229 0.063,-0.057 0.134,-0.097 0.212,-0.118 0.079,-0.021 0.157,-0.025 0.235,-0.013 0.079,0.012 0.154,0.041 0.226,0.086 0.072,0.045 0.134,0.105 0.186,0.18 l -0.061,0.08 c -0.047,-0.065 -0.101,-0.117 -0.162,-0.157 -0.061,-0.04 -0.125,-0.065 -0.19,-0.076 -0.065,-0.011 -0.13,-0.009 -0.194,0.008 -0.063,0.017 -0.122,0.05 -0.176,0.098 -0.053,0.049 -0.098,0.113 -0.135,0.193 -0.036,0.08 -0.059,0.177 -0.068,0.29 -0.012,0.128 0,0.235 0.033,0.323 0.034,0.087 0.081,0.156 0.14,0.206 0.06,0.05 0.126,0.082 0.201,0.095 0.075,0.013 0.149,0.008 0.224,-0.015 0.073,-0.022 0.141,-0.062 0.203,-0.119 0.062,-0.057 0.11,-0.129 0.145,-0.218 l 0.104,0.077 z"
             id="path387"
             inkscape:connector-curvature="0" /><path
             d="m 17.125,27.032 c 0.005,-0.127 0.026,-0.237 0.063,-0.328 0.037,-0.091 0.084,-0.167 0.141,-0.225 0.057,-0.058 0.12,-0.1 0.191,-0.126 0.071,-0.026 0.144,-0.036 0.217,-0.031 0.074,0.004 0.146,0.024 0.215,0.059 0.069,0.035 0.132,0.083 0.186,0.145 0.054,0.061 0.098,0.136 0.131,0.223 0.033,0.087 0.05,0.187 0.05,0.298 0,0.112 -0.018,0.21 -0.054,0.297 -0.035,0.086 -0.082,0.16 -0.139,0.22 -0.058,0.061 -0.123,0.107 -0.195,0.14 -0.073,0.032 -0.147,0.05 -0.224,0.053 -0.075,0.003 -0.149,-0.009 -0.222,-0.036 -0.071,-0.028 -0.135,-0.071 -0.19,-0.13 -0.055,-0.059 -0.098,-0.135 -0.13,-0.228 -0.031,-0.092 -0.044,-0.203 -0.04,-0.331 z m 0.1,-0.002 c -0.011,0.139 0.006,0.254 0.05,0.345 0.045,0.09 0.104,0.158 0.176,0.204 0.073,0.045 0.153,0.068 0.241,0.069 0.088,0.001 0.171,-0.02 0.249,-0.063 0.077,-0.043 0.143,-0.107 0.196,-0.193 0.053,-0.085 0.081,-0.191 0.082,-0.317 0.002,-0.137 -0.02,-0.254 -0.064,-0.349 -0.044,-0.095 -0.102,-0.168 -0.172,-0.22 -0.07,-0.051 -0.146,-0.079 -0.23,-0.083 -0.083,-0.005 -0.162,0.014 -0.236,0.057 -0.074,0.043 -0.139,0.11 -0.192,0.201 -0.056,0.09 -0.089,0.207 -0.1,0.349 z"
             id="path389"
             inkscape:connector-curvature="0" /><path
             d="m 19.245,26.986 c -0.047,10e-4 -0.097,0.003 -0.148,0.004 -0.052,0 -0.104,0.002 -0.155,0.006 0.004,0.078 0.008,0.161 0.013,0.249 0.005,0.088 0.01,0.171 0.015,0.249 0.006,0.089 0.012,0.178 0.017,0.267 -0.02,0 -0.038,0 -0.056,-0.002 -0.015,0 -0.028,0 -0.04,-0.001 -0.013,-10e-4 -0.02,0 -0.021,0.003 0,-10e-4 -0.001,-0.029 -0.003,-0.081 -0.001,-0.053 -0.003,-0.117 -0.005,-0.194 -10e-4,-0.077 -0.003,-0.159 -0.005,-0.248 -10e-4,-0.088 -0.003,-0.167 -0.005,-0.239 -0.058,0.003 -0.113,0.005 -0.166,0.006 -0.052,0.001 -0.099,0.002 -0.139,0.004 -0.047,0.001 -0.09,0.002 -0.129,0.002 -0.002,-0.018 -0.003,-0.035 -0.003,-0.051 -10e-4,-0.006 -0.002,-0.013 -0.002,-0.019 0,-0.006 0,-0.012 0,-0.017 l 0,-0.015 0.437,0 c 0,-0.041 -0.001,-0.072 -0.001,-0.096 -0.001,-0.023 -0.002,-0.034 -0.002,-0.033 0,10e-4 -0.001,-0.016 -0.005,-0.053 -0.003,-0.037 -0.003,-0.085 -10e-4,-0.143 0.003,-0.058 0.01,-0.122 0.021,-0.19 0.012,-0.069 0.031,-0.133 0.059,-0.193 0.027,-0.06 0.065,-0.11 0.114,-0.153 0.048,-0.042 0.11,-0.064 0.187,-0.068 l 0.029,0.095 c -0.075,0.006 -0.133,0.032 -0.175,0.075 -0.042,0.043 -0.074,0.098 -0.095,0.163 -0.021,0.064 -0.034,0.135 -0.04,0.212 -0.006,0.077 -0.009,0.152 -0.009,0.224 0,0.015 0.001,0.037 0.002,0.066 0,0.029 0.002,0.061 0.003,0.094 0.056,0 0.109,0 0.163,0 0.053,0 0.101,0 0.143,-0.002 l 0.002,0.079 z"
             id="path391"
             inkscape:connector-curvature="0" /><path
             d="m 20.163,26.986 c -0.047,10e-4 -0.097,0.003 -0.148,0.004 -0.052,0 -0.104,0.002 -0.155,0.006 0.004,0.078 0.008,0.161 0.013,0.249 0.005,0.088 0.01,0.171 0.015,0.249 0.006,0.089 0.012,0.178 0.017,0.267 -0.02,0 -0.038,0 -0.056,-0.002 -0.015,0 -0.028,0 -0.04,-0.001 -0.013,-10e-4 -0.02,0 -0.021,0.003 0,-10e-4 -0.001,-0.029 -0.003,-0.081 -0.001,-0.053 -0.003,-0.117 -0.005,-0.194 -0.001,-0.077 -0.003,-0.159 -0.005,-0.248 -10e-4,-0.088 -0.003,-0.167 -0.005,-0.239 -0.058,0.003 -0.113,0.005 -0.166,0.006 -0.052,0.001 -0.099,0.002 -0.139,0.004 -0.047,0.001 -0.09,0.002 -0.129,0.002 -0.002,-0.018 -0.003,-0.035 -0.003,-0.051 -10e-4,-0.006 -0.002,-0.013 -0.002,-0.019 0,-0.006 0,-0.012 0,-0.017 l 0,-0.015 0.437,0 c 0,-0.041 -0.001,-0.072 -0.001,-0.096 -0.001,-0.023 -0.002,-0.034 -0.002,-0.033 0,10e-4 -0.001,-0.016 -0.005,-0.053 -0.003,-0.037 -0.003,-0.085 -0.001,-0.143 0.003,-0.058 0.01,-0.122 0.021,-0.19 0.012,-0.069 0.031,-0.133 0.059,-0.193 0.027,-0.06 0.065,-0.11 0.114,-0.153 0.048,-0.042 0.11,-0.064 0.187,-0.068 l 0.029,0.095 c -0.075,0.006 -0.133,0.032 -0.175,0.075 -0.042,0.043 -0.074,0.098 -0.095,0.163 -0.021,0.064 -0.034,0.135 -0.04,0.212 -0.006,0.077 -0.009,0.152 -0.009,0.224 0,0.015 10e-4,0.037 0.002,0.066 0,0.029 0.002,0.061 0.003,0.094 0.056,0 0.109,0 0.163,0 0.053,0 0.101,0 0.143,-0.002 l 0.002,0.079 z"
             id="path393"
             inkscape:connector-curvature="0" /><path
             d="m 21.419,27.379 c -0.044,0.095 -0.104,0.173 -0.179,0.232 -0.075,0.06 -0.156,0.102 -0.243,0.125 -0.088,0.023 -0.176,0.027 -0.265,0.011 -0.089,-0.016 -0.168,-0.053 -0.238,-0.11 -0.07,-0.057 -0.127,-0.136 -0.17,-0.236 -0.043,-0.1 -0.062,-0.223 -0.055,-0.369 0.005,-0.134 0.028,-0.249 0.07,-0.344 0.042,-0.095 0.095,-0.171 0.157,-0.229 0.063,-0.057 0.134,-0.097 0.212,-0.118 0.079,-0.021 0.157,-0.025 0.235,-0.013 0.079,0.012 0.154,0.041 0.226,0.086 0.072,0.045 0.134,0.105 0.186,0.18 0.017,0.022 0.032,0.051 0.048,0.086 0.015,0.035 0.028,0.072 0.041,0.113 0.012,0.041 0.021,0.081 0.029,0.123 0.007,0.041 0.011,0.08 0.011,0.117 l -1.118,0.032 c -0.001,0.11 0.016,0.205 0.053,0.286 0.036,0.081 0.084,0.146 0.143,0.196 0.059,0.05 0.124,0.083 0.196,0.1 0.072,0.017 0.144,0.015 0.215,-0.004 0.071,-0.019 0.137,-0.056 0.197,-0.113 0.061,-0.056 0.109,-0.132 0.145,-0.228 l 0.104,0.077 z M 21.37,26.958 c -0.003,-0.049 -0.012,-0.1 -0.026,-0.153 -0.015,-0.054 -0.031,-0.097 -0.049,-0.131 -0.035,-0.066 -0.081,-0.12 -0.137,-0.162 -0.056,-0.041 -0.116,-0.068 -0.18,-0.081 -0.063,-0.013 -0.129,-0.012 -0.195,0.002 -0.066,0.014 -0.128,0.043 -0.184,0.087 -0.057,0.043 -0.105,0.102 -0.146,0.176 -0.041,0.073 -0.067,0.162 -0.08,0.265 0.01,0 0.041,0 0.096,0 0.054,0 0.118,0 0.192,0 0.074,0 0.153,0 0.237,0 0.084,0 0.162,0 0.232,0 0.07,0 0.128,0 0.173,-10e-4 0.045,-0.001 0.069,-0.001 0.067,-0.002 z"
             id="path395"
             inkscape:connector-curvature="0" /><path
             d="m 22.753,27.379 c -0.044,0.095 -0.104,0.173 -0.179,0.232 -0.075,0.06 -0.156,0.102 -0.243,0.125 -0.088,0.023 -0.176,0.027 -0.265,0.011 -0.089,-0.016 -0.168,-0.053 -0.238,-0.11 -0.07,-0.057 -0.127,-0.136 -0.17,-0.236 -0.043,-0.1 -0.062,-0.223 -0.055,-0.369 0.005,-0.134 0.028,-0.249 0.07,-0.344 0.042,-0.095 0.095,-0.171 0.157,-0.229 0.063,-0.057 0.134,-0.097 0.212,-0.118 0.079,-0.021 0.157,-0.025 0.235,-0.013 0.079,0.012 0.154,0.041 0.226,0.086 0.072,0.045 0.134,0.105 0.186,0.18 0.017,0.022 0.032,0.051 0.048,0.086 0.015,0.035 0.028,0.072 0.041,0.113 0.012,0.041 0.021,0.081 0.029,0.123 0.007,0.041 0.011,0.08 0.011,0.117 L 21.7,27.064 c -10e-4,0.11 0.016,0.205 0.053,0.286 0.036,0.081 0.084,0.146 0.143,0.196 0.059,0.05 0.124,0.083 0.196,0.1 0.072,0.017 0.144,0.015 0.215,-0.004 0.071,-0.019 0.137,-0.056 0.197,-0.113 0.061,-0.056 0.109,-0.132 0.145,-0.228 l 0.104,0.078 z m -0.049,-0.421 c -0.003,-0.049 -0.012,-0.1 -0.026,-0.153 -0.015,-0.054 -0.031,-0.097 -0.049,-0.131 -0.035,-0.066 -0.081,-0.12 -0.137,-0.162 -0.056,-0.041 -0.116,-0.068 -0.18,-0.081 -0.063,-0.013 -0.129,-0.012 -0.195,0.002 -0.066,0.014 -0.128,0.043 -0.184,0.087 -0.057,0.043 -0.105,0.102 -0.146,0.176 -0.041,0.073 -0.067,0.162 -0.08,0.265 0.01,0 0.041,0 0.096,0 0.054,0 0.118,0 0.192,0 0.074,0 0.153,0 0.237,0 0.084,0 0.162,0 0.232,0 0.07,0 0.128,0 0.173,-10e-4 0.045,-0.001 0.069,-0.001 0.067,-0.002 z"
             id="path397"
             inkscape:connector-curvature="0" /></g></g><g
         id="g579"><path
           d="m 15.864,24.643 c -0.045,0.098 -0.105,0.177 -0.183,0.238 -0.077,0.062 -0.16,0.104 -0.25,0.128 -0.089,0.024 -0.18,0.028 -0.271,0.011 -0.091,-0.017 -0.173,-0.054 -0.244,-0.113 -0.072,-0.059 -0.131,-0.14 -0.174,-0.242 -0.044,-0.103 -0.062,-0.229 -0.057,-0.377 0.005,-0.138 0.029,-0.255 0.072,-0.353 0.043,-0.098 0.097,-0.176 0.161,-0.235 0.065,-0.059 0.138,-0.099 0.218,-0.121 0.08,-0.022 0.16,-0.026 0.241,-0.014 0.08,0.013 0.157,0.042 0.23,0.088 0.073,0.046 0.137,0.107 0.19,0.184 0.017,0.023 0.032,0.053 0.048,0.088 0.016,0.035 0.03,0.074 0.042,0.115 0.013,0.042 0.022,0.083 0.03,0.125 0.008,0.042 0.011,0.083 0.011,0.121 l -1.145,0.032 c -0.002,0.113 0.017,0.21 0.054,0.293 0.037,0.083 0.086,0.15 0.146,0.201 0.06,0.051 0.127,0.085 0.201,0.102 0.073,0.017 0.146,0.015 0.22,-0.004 0.072,-0.019 0.14,-0.058 0.202,-0.116 0.062,-0.058 0.111,-0.135 0.147,-0.233 l 0.111,0.082 z M 15.814,24.21 C 15.81,24.16 15.801,24.108 15.787,24.054 15.773,24 15.756,23.954 15.737,23.92 c -0.036,-0.068 -0.083,-0.123 -0.141,-0.165 -0.057,-0.042 -0.118,-0.07 -0.184,-0.083 -0.065,-0.014 -0.132,-0.013 -0.2,0.002 -0.067,0.015 -0.13,0.044 -0.188,0.089 -0.058,0.044 -0.107,0.104 -0.148,0.18 -0.042,0.076 -0.069,0.166 -0.082,0.272 0.01,0 0.042,0 0.098,0 0.056,0 0.121,0 0.197,0 0.076,0 0.157,0 0.244,0 0.086,0 0.165,0 0.236,0 0.072,0 0.132,0 0.178,-0.001 0.047,-10e-4 0.069,-0.002 0.067,-0.004 z"
           id="path581"
           inkscape:connector-curvature="0" /><path
           d="m 16.979,23.838 c 0,0.003 -0.006,0.008 -0.019,0.013 -0.012,0.005 -0.025,0.011 -0.041,0.017 -0.018,0.007 -0.038,0.014 -0.06,0.022 -0.021,-0.06 -0.053,-0.107 -0.096,-0.144 -0.042,-0.036 -0.088,-0.062 -0.139,-0.076 -0.051,-0.014 -0.102,-0.018 -0.154,-0.011 -0.052,0.007 -0.1,0.023 -0.144,0.048 -0.044,0.026 -0.08,0.061 -0.108,0.104 -0.028,0.043 -0.043,0.096 -0.045,0.155 -10e-4,0.061 0.019,0.111 0.06,0.149 0.042,0.038 0.094,0.071 0.155,0.099 0.062,0.028 0.13,0.055 0.204,0.08 0.073,0.025 0.142,0.054 0.205,0.088 0.062,0.034 0.115,0.076 0.157,0.126 0.042,0.051 0.063,0.115 0.063,0.192 0,0.043 -0.011,0.084 -0.033,0.125 -0.022,0.04 -0.053,0.075 -0.091,0.105 -0.038,0.03 -0.082,0.055 -0.133,0.074 -0.051,0.019 -0.104,0.029 -0.163,0.031 -0.084,0.003 -0.158,-0.003 -0.224,-0.02 -0.064,-0.017 -0.118,-0.036 -0.161,-0.057 -0.043,-0.021 -0.076,-0.042 -0.101,-0.06 -0.023,-0.018 -0.037,-0.027 -0.038,-0.027 -0.004,0 -0.003,-0.006 0.002,-0.017 0.005,-0.012 0.012,-0.024 0.019,-0.039 0.008,-0.014 0.015,-0.028 0.021,-0.042 0.006,-0.014 0.011,-0.023 0.013,-0.028 0.003,0.008 0.015,0.023 0.036,0.044 0.021,0.021 0.05,0.044 0.088,0.067 0.038,0.023 0.085,0.043 0.14,0.061 0.056,0.018 0.12,0.024 0.193,0.021 0.038,-10e-4 0.075,-0.009 0.112,-0.023 0.037,-0.014 0.07,-0.033 0.099,-0.056 0.028,-0.023 0.051,-0.049 0.068,-0.078 0.017,-0.029 0.024,-0.06 0.023,-0.093 -0.002,-0.062 -0.022,-0.111 -0.061,-0.149 -0.039,-0.038 -0.088,-0.07 -0.146,-0.097 -0.059,-0.026 -0.121,-0.05 -0.188,-0.072 -0.067,-0.021 -0.13,-0.047 -0.189,-0.077 -0.059,-0.03 -0.108,-0.066 -0.148,-0.11 -0.041,-0.044 -0.063,-0.102 -0.068,-0.173 -0.009,-0.107 0.008,-0.194 0.047,-0.261 0.04,-0.066 0.092,-0.115 0.154,-0.147 0.062,-0.032 0.133,-0.049 0.21,-0.051 0.077,-10e-4 0.149,0.009 0.217,0.033 0.068,0.023 0.127,0.057 0.177,0.101 0.052,0.044 0.081,0.095 0.087,0.153 z m -0.849,0.904 c -0.004,0 -0.004,10e-4 0,0.005 l 0,-0.005 z"
           id="path583"
           inkscape:connector-curvature="0" /><path
           d="m 17.27,23.535 0.008,0.395 c 0.044,-0.105 0.104,-0.188 0.178,-0.247 0.073,-0.059 0.152,-0.096 0.238,-0.113 0.085,-0.017 0.171,-0.012 0.258,0.012 0.087,0.025 0.165,0.069 0.234,0.132 0.07,0.063 0.127,0.144 0.172,0.243 0.045,0.1 0.067,0.215 0.067,0.345 0,0.126 -0.021,0.236 -0.065,0.331 -0.043,0.094 -0.098,0.172 -0.166,0.233 -0.067,0.061 -0.145,0.105 -0.229,0.133 -0.086,0.027 -0.17,0.037 -0.254,0.027 -0.083,-0.009 -0.162,-0.037 -0.236,-0.084 -0.075,-0.047 -0.136,-0.114 -0.182,-0.2 l 0.013,0.688 c -0.021,-0.001 -0.041,-0.003 -0.058,-0.005 -0.015,0 -0.028,0 -0.04,10e-4 -0.011,0 -0.017,0.003 -0.017,0.006 0,0.001 -10e-4,-0.024 -0.002,-0.077 0,-0.053 -0.001,-0.124 -0.002,-0.212 -0.001,-0.088 -0.002,-0.189 -0.004,-0.303 -0.002,-0.113 -0.003,-0.229 -0.005,-0.348 -0.002,-0.118 -0.003,-0.234 -0.004,-0.349 -0.001,-0.115 -0.001,-0.216 -0.001,-0.306 0,-0.09 0,-0.161 0.001,-0.216 0.001,-0.055 0.002,-0.082 0.004,-0.082 l 0.092,-0.004 z m 1.028,0.795 c 0.008,-0.104 0.002,-0.196 -0.02,-0.277 -0.022,-0.08 -0.054,-0.148 -0.096,-0.205 -0.043,-0.057 -0.093,-0.1 -0.15,-0.13 -0.059,-0.031 -0.118,-0.049 -0.182,-0.054 -0.062,-0.005 -0.125,0.003 -0.188,0.025 -0.062,0.021 -0.119,0.057 -0.173,0.105 -0.053,0.049 -0.098,0.112 -0.135,0.189 -0.037,0.077 -0.062,0.167 -0.073,0.272 l 0.005,0.266 c 0.019,0.106 0.055,0.192 0.109,0.258 0.054,0.066 0.117,0.113 0.188,0.142 0.071,0.028 0.146,0.037 0.226,0.026 0.08,-0.011 0.154,-0.041 0.223,-0.089 0.069,-0.048 0.127,-0.118 0.175,-0.206 0.048,-0.088 0.079,-0.196 0.091,-0.322 z"
           id="path585"
           inkscape:connector-curvature="0" /><path
           d="m 19.306,23.761 c -0.073,-0.06 -0.146,-0.091 -0.22,-0.095 -0.074,-0.003 -0.14,0.021 -0.199,0.071 -0.059,0.051 -0.106,0.127 -0.145,0.23 -0.039,0.103 -0.06,0.229 -0.062,0.38 -0.002,0.086 -0.002,0.169 0,0.249 0.002,0.079 0.004,0.15 0.006,0.213 0.003,0.063 0.005,0.115 0.007,0.155 10e-4,0.041 10e-4,0.065 0,0.073 l -0.109,0.002 -0.01,-0.72 c 0,-0.162 0.023,-0.3 0.071,-0.414 0.049,-0.113 0.11,-0.199 0.186,-0.257 0.075,-0.058 0.159,-0.086 0.251,-0.084 0.092,0.001 0.182,0.036 0.27,0.102 l -0.046,0.095 z"
           id="path587"
           inkscape:connector-curvature="0" /><path
           d="m 20.59,24.643 c -0.045,0.098 -0.105,0.177 -0.183,0.238 -0.077,0.062 -0.16,0.104 -0.25,0.128 -0.089,0.024 -0.18,0.028 -0.271,0.011 -0.091,-0.017 -0.173,-0.054 -0.244,-0.113 -0.072,-0.059 -0.131,-0.14 -0.174,-0.242 -0.044,-0.103 -0.062,-0.229 -0.057,-0.377 0.005,-0.138 0.029,-0.255 0.072,-0.353 0.043,-0.098 0.097,-0.176 0.161,-0.235 0.065,-0.059 0.138,-0.099 0.218,-0.121 0.08,-0.022 0.16,-0.026 0.241,-0.014 0.08,0.013 0.157,0.042 0.23,0.088 0.073,0.046 0.137,0.107 0.19,0.184 0.017,0.023 0.032,0.053 0.048,0.088 0.016,0.035 0.03,0.074 0.042,0.115 0.013,0.042 0.022,0.083 0.03,0.125 0.008,0.042 0.011,0.083 0.011,0.121 l -1.145,0.032 c -0.002,0.113 0.017,0.21 0.054,0.293 0.037,0.083 0.086,0.15 0.146,0.201 0.06,0.051 0.127,0.085 0.201,0.102 0.073,0.017 0.146,0.015 0.22,-0.004 0.072,-0.019 0.14,-0.058 0.202,-0.116 0.062,-0.058 0.111,-0.135 0.147,-0.233 l 0.111,0.082 z M 20.54,24.21 C 20.536,24.16 20.527,24.108 20.513,24.054 20.499,24 20.482,23.954 20.463,23.92 20.427,23.852 20.38,23.797 20.322,23.755 c -0.057,-0.042 -0.118,-0.07 -0.184,-0.083 -0.065,-0.014 -0.132,-0.013 -0.2,0.002 -0.067,0.015 -0.13,0.044 -0.188,0.089 -0.058,0.044 -0.107,0.104 -0.148,0.18 -0.042,0.076 -0.069,0.166 -0.082,0.272 0.01,0 0.042,0 0.098,0 0.056,0 0.121,0 0.197,0 0.076,0 0.157,0 0.244,0 0.086,0 0.165,0 0.236,0 0.072,0 0.132,0 0.178,-0.001 0.047,-10e-4 0.069,-0.002 0.067,-0.004 z"
           id="path589"
           inkscape:connector-curvature="0" /><path
           d="m 21.704,23.838 c 0,0.003 -0.006,0.008 -0.019,0.013 -0.012,0.005 -0.025,0.011 -0.041,0.017 -0.018,0.007 -0.038,0.014 -0.06,0.022 -0.021,-0.06 -0.053,-0.107 -0.096,-0.144 -0.042,-0.036 -0.088,-0.062 -0.139,-0.076 -0.051,-0.014 -0.102,-0.018 -0.154,-0.011 -0.052,0.007 -0.1,0.023 -0.144,0.048 -0.044,0.026 -0.08,0.061 -0.108,0.104 -0.028,0.043 -0.043,0.096 -0.045,0.155 -0.001,0.061 0.019,0.111 0.06,0.149 0.042,0.038 0.094,0.071 0.155,0.099 0.062,0.028 0.13,0.055 0.204,0.08 0.073,0.025 0.142,0.054 0.205,0.088 0.062,0.034 0.115,0.076 0.157,0.126 0.042,0.051 0.063,0.115 0.063,0.192 0,0.043 -0.011,0.084 -0.033,0.125 -0.022,0.04 -0.053,0.075 -0.091,0.105 -0.038,0.03 -0.082,0.055 -0.133,0.074 -0.051,0.019 -0.104,0.029 -0.163,0.031 -0.084,0.003 -0.158,-0.003 -0.224,-0.02 -0.064,-0.017 -0.118,-0.036 -0.161,-0.057 -0.043,-0.021 -0.076,-0.042 -0.101,-0.06 -0.023,-0.018 -0.037,-0.027 -0.038,-0.027 -0.004,0 -0.003,-0.006 0.002,-0.017 0.005,-0.012 0.012,-0.024 0.019,-0.039 0.008,-0.014 0.015,-0.028 0.021,-0.042 0.006,-0.014 0.011,-0.023 0.013,-0.028 0.003,0.008 0.015,0.023 0.036,0.044 0.021,0.021 0.05,0.044 0.088,0.067 0.038,0.023 0.085,0.043 0.14,0.061 0.056,0.018 0.12,0.024 0.193,0.021 0.038,-10e-4 0.075,-0.009 0.112,-0.023 0.037,-0.014 0.07,-0.033 0.099,-0.056 0.028,-0.023 0.051,-0.049 0.068,-0.078 0.017,-0.029 0.024,-0.06 0.023,-0.093 -0.002,-0.062 -0.022,-0.111 -0.061,-0.149 -0.039,-0.038 -0.088,-0.07 -0.146,-0.097 -0.059,-0.026 -0.121,-0.05 -0.188,-0.072 -0.067,-0.021 -0.13,-0.047 -0.189,-0.077 -0.059,-0.03 -0.108,-0.066 -0.148,-0.11 -0.041,-0.044 -0.063,-0.102 -0.068,-0.173 -0.009,-0.107 0.008,-0.194 0.047,-0.261 0.04,-0.066 0.092,-0.115 0.154,-0.147 0.062,-0.032 0.133,-0.049 0.21,-0.051 0.077,-10e-4 0.149,0.009 0.217,0.033 0.068,0.023 0.127,0.057 0.177,0.101 0.053,0.044 0.081,0.095 0.087,0.153 z m -0.849,0.904 c -0.004,0 -0.004,10e-4 0,0.005 l 0,-0.005 z"
           id="path591"
           inkscape:connector-curvature="0" /><path
           d="m 22.792,23.838 c 0,0.003 -0.006,0.008 -0.019,0.013 -0.012,0.005 -0.025,0.011 -0.041,0.017 -0.018,0.007 -0.038,0.014 -0.06,0.022 -0.021,-0.06 -0.053,-0.107 -0.096,-0.144 -0.042,-0.036 -0.088,-0.062 -0.139,-0.076 -0.051,-0.014 -0.102,-0.018 -0.154,-0.011 -0.052,0.007 -0.1,0.023 -0.144,0.048 -0.044,0.026 -0.08,0.061 -0.108,0.104 -0.028,0.043 -0.043,0.096 -0.045,0.155 -0.001,0.061 0.019,0.111 0.06,0.149 0.042,0.038 0.094,0.071 0.155,0.099 0.062,0.028 0.13,0.055 0.204,0.08 0.073,0.025 0.142,0.054 0.205,0.088 0.062,0.034 0.115,0.076 0.157,0.126 0.042,0.051 0.063,0.115 0.063,0.192 0,0.043 -0.011,0.084 -0.033,0.125 -0.022,0.04 -0.053,0.075 -0.091,0.105 -0.038,0.03 -0.082,0.055 -0.133,0.074 -0.051,0.019 -0.104,0.029 -0.163,0.031 -0.084,0.003 -0.158,-0.003 -0.224,-0.02 -0.064,-0.017 -0.118,-0.036 -0.161,-0.057 -0.043,-0.021 -0.076,-0.042 -0.101,-0.06 -0.023,-0.018 -0.037,-0.027 -0.038,-0.027 -0.004,0 -0.003,-0.006 0.002,-0.017 0.005,-0.012 0.012,-0.024 0.019,-0.039 0.008,-0.014 0.015,-0.028 0.021,-0.042 0.006,-0.014 0.011,-0.023 0.013,-0.028 0.003,0.008 0.015,0.023 0.036,0.044 0.021,0.021 0.05,0.044 0.088,0.067 0.038,0.023 0.085,0.043 0.14,0.061 0.056,0.018 0.12,0.024 0.193,0.021 0.038,-10e-4 0.075,-0.009 0.112,-0.023 0.037,-0.014 0.07,-0.033 0.099,-0.056 0.028,-0.023 0.051,-0.049 0.068,-0.078 0.017,-0.029 0.024,-0.06 0.023,-0.093 -0.002,-0.062 -0.022,-0.111 -0.061,-0.149 -0.039,-0.038 -0.088,-0.07 -0.146,-0.097 -0.059,-0.026 -0.121,-0.05 -0.188,-0.072 -0.067,-0.021 -0.13,-0.047 -0.189,-0.077 -0.059,-0.03 -0.108,-0.066 -0.148,-0.11 -0.041,-0.044 -0.063,-0.102 -0.068,-0.173 -0.009,-0.107 0.008,-0.194 0.047,-0.261 0.04,-0.066 0.092,-0.115 0.154,-0.147 0.062,-0.032 0.133,-0.049 0.21,-0.051 0.077,-10e-4 0.149,0.009 0.217,0.033 0.068,0.023 0.127,0.057 0.177,0.101 0.053,0.044 0.081,0.095 0.087,0.153 z m -0.849,0.904 c -0.004,0 -0.004,10e-4 0,0.005 l 0,-0.005 z"
           id="path593"
           inkscape:connector-curvature="0" /><path
           d="m 22.907,24.288 c 0.005,-0.131 0.026,-0.243 0.064,-0.336 0.038,-0.094 0.086,-0.17 0.144,-0.23 0.058,-0.06 0.123,-0.103 0.196,-0.129 0.073,-0.026 0.146,-0.038 0.223,-0.032 0.075,0.005 0.148,0.025 0.22,0.061 0.072,0.036 0.134,0.085 0.189,0.148 0.055,0.063 0.101,0.139 0.135,0.229 0.033,0.089 0.051,0.191 0.051,0.305 0,0.114 -0.019,0.216 -0.055,0.304 -0.037,0.089 -0.084,0.164 -0.143,0.226 -0.06,0.062 -0.126,0.11 -0.2,0.143 -0.074,0.033 -0.15,0.051 -0.229,0.055 -0.078,0.003 -0.153,-0.009 -0.228,-0.038 -0.073,-0.028 -0.139,-0.072 -0.194,-0.133 -0.057,-0.061 -0.101,-0.138 -0.133,-0.233 -0.032,-0.097 -0.046,-0.21 -0.04,-0.34 z m 0.102,-0.003 c -0.012,0.142 0.005,0.26 0.051,0.353 0.046,0.093 0.105,0.162 0.18,0.208 0.075,0.046 0.157,0.07 0.247,0.071 0.091,10e-4 0.176,-0.021 0.255,-0.064 0.079,-0.043 0.146,-0.11 0.201,-0.197 0.055,-0.088 0.083,-0.196 0.084,-0.326 0.002,-0.141 -0.02,-0.26 -0.065,-0.357 -0.045,-0.097 -0.104,-0.173 -0.177,-0.225 -0.071,-0.052 -0.15,-0.081 -0.235,-0.086 -0.085,-0.005 -0.166,0.015 -0.242,0.059 -0.076,0.044 -0.142,0.112 -0.197,0.206 -0.057,0.093 -0.09,0.212 -0.102,0.358 z"
           id="path595"
           inkscape:connector-curvature="0" /></g></g></g></svg>