<?xml version="1.0" encoding="UTF-8" standalone="no"?>
<!-- Generator: Adobe Illustrator 16.0.0, SVG Export Plug-In . SVG Version: 6.00 Build 0)  -->

<svg
   xmlns:dc="http://purl.org/dc/elements/1.1/"
   xmlns:cc="http://creativecommons.org/ns#"
   xmlns:rdf="http://www.w3.org/1999/02/22-rdf-syntax-ns#"
   xmlns:svg="http://www.w3.org/2000/svg"
   xmlns="http://www.w3.org/2000/svg"
   xmlns:sodipodi="http://sodipodi.sourceforge.net/DTD/sodipodi-0.dtd"
   xmlns:inkscape="http://www.inkscape.org/namespaces/inkscape"
   version="1.1"
   id="Layer_1"
   x="0px"
   y="0px"
   width="23.30781"
   height="34.77813"
   viewBox="0 0 23.30781 34.778129"
   enable-background="new 0 0 39.604 41.771"
   xml:space="preserve"
   inkscape:version="0.91 r13725"
   sodipodi:docname="loose-tea.svg"><metadata
     id="metadata27"><rdf:RDF><cc:Work
         rdf:about=""><dc:format>image/svg+xml</dc:format><dc:type
           rdf:resource="http://purl.org/dc/dcmitype/StillImage" /><dc:title></dc:title></cc:Work></rdf:RDF></metadata><defs
     id="defs25" /><sodipodi:namedview
     pagecolor="#ffffff"
     bordercolor="#666666"
     borderopacity="1"
     objecttolerance="10"
     gridtolerance="10"
     guidetolerance="10"
     inkscape:pageopacity="0"
     inkscape:pageshadow="2"
     inkscape:window-width="1004"
     inkscape:window-height="601"
     id="namedview23"
     showgrid="false"
     inkscape:zoom="5.6498528"
     inkscape:cx="-5.2429002"
     inkscape:cy="20.8855"
     inkscape:window-x="40"
     inkscape:window-y="86"
     inkscape:window-maximized="0"
     inkscape:current-layer="Layer_1" /><g
     id="g3"
     transform="translate(-8.7838573,-3.4967217)"><g
       id="g5"><g
         id="g7"><path
           d="m 19.524,13.126 c 0,-0.004 10e-4,-0.008 10e-4,-0.013 -10e-4,0.008 -10e-4,0.012 -10e-4,0.013 z"
           id="path9"
           inkscape:connector-curvature="0" /><path
           d="m 27.575,30.571 c -0.198,-1.005 -0.299,-2.033 -0.43,-3.049 l -0.774,-5.944 c -0.25,-1.924 -0.499,-3.847 -0.751,-5.771 -0.107,-0.825 -0.194,-1.654 -0.324,-2.476 -0.079,-0.494 -0.176,-0.865 -0.578,-1.126 0.019,-0.042 0.012,-0.093 -0.041,-0.121 -1.156,-0.606 -2.47,-0.823 -3.728,-1.123 -1.443,-0.344 -2.887,-0.69 -4.328,-1.032 -0.785,-0.187 -1.441,-0.373 -2.023,0.318 -0.41,0.485 -0.794,1.339 -0.347,1.882 0.004,0.007 0.007,0.015 0.013,0.022 0.011,0.015 0.021,0.03 0.035,0.045 0.03,0.039 0.089,0.026 0.121,0 0.011,-0.009 0.021,-0.018 0.032,-0.026 0,0 10e-4,-10e-4 10e-4,-0.002 0.105,0.021 0.209,0.044 0.311,0.072 0.131,0.036 0.267,0.116 0.403,0.113 0.029,0 0.045,-0.021 0.05,-0.044 0.01,0.004 0.018,0.006 0.026,0.009 -0.006,0.013 -0.01,0.027 -0.011,0.043 -0.187,2.883 -0.854,5.689 -1.418,8.515 -0.242,1.205 -0.464,2.416 -0.615,3.636 -0.148,1.196 -0.355,2.533 -0.097,3.724 0.01,0.04 0.071,0.03 0.071,-0.01 0.002,-0.022 0.003,-0.044 0.003,-0.067 0.009,0.027 0.028,0.05 0.062,0.056 3.143,0.601 5.596,2.666 8.595,3.62 0.013,0.004 0.023,0.004 0.031,0.003 0.059,0.297 1.062,-0.06 1.146,-0.091 0.825,-0.305 1.734,-1.011 2.652,-0.667 0.494,0.185 1.101,0.761 1.693,0.737 0,0.002 0,0.004 0,0.006 0.023,0.06 0.096,0.099 0.174,0.123 0.003,10e-4 0.006,10e-4 0.007,0.002 0.045,0.013 0.088,0.021 0.13,0.027 0.01,0.008 0.021,0.016 0.031,0.025 0.045,0.033 0.113,0.006 0.138,-0.036 0.211,-0.355 -0.187,-1.019 -0.26,-1.393 z m -5.673,1.057 c 0,0.01 0.004,0.019 0.006,0.028 -0.011,0.021 -0.017,0.039 -0.023,0.058 -0.005,-0.004 -0.009,-0.008 -0.016,-0.011 -2.844,-1.169 -5.491,-3.289 -8.605,-3.681 -0.043,-0.006 -0.071,0.021 -0.086,0.055 0.104,-5.337 1.92,-10.395 2.268,-15.697 0.013,0.003 0.026,0.007 0.035,0.009 0.347,0.081 0.692,0.162 1.036,0.241 0.399,0.092 0.801,0.178 1.2,0.267 -0.092,0.729 -0.109,1.503 0.066,2.177 0.049,0.185 0.026,0.232 0.187,0.318 0.085,0.044 0.253,0.011 0.344,0.019 0.467,0.042 0.87,0.167 1.291,0.372 0.066,0.033 0.166,-0.006 0.161,-0.094 -0.047,-0.787 -0.085,-1.57 -0.033,-2.351 1.125,0.242 2.255,0.479 3.391,0.653 0.056,0.008 0.101,-0.021 0.104,-0.08 0.004,-0.053 0.007,-0.105 0.011,-0.159 0,0 0.002,0 0.003,-0.001 0.094,-0.078 0.04,-0.248 0,-0.34 -0.018,-0.039 -0.077,-0.051 -0.111,-0.029 -0.048,0.032 -0.08,0.074 -0.127,0.109 -0.028,0.021 -0.055,0.043 -0.082,0.065 -0.009,-0.006 -0.019,-0.01 -0.032,-0.01 -0.908,0 -0.801,-1.178 -0.096,-1.433 0.678,-0.245 1.129,0.188 1.346,0.761 0.112,1.531 -0.235,3.055 -0.473,4.562 -0.249,1.586 -0.482,3.175 -0.696,4.767 -0.408,3.022 -0.749,6.053 -1.035,9.09 -0.024,0.015 -0.042,0.039 -0.041,0.072 0.001,0.088 0.004,0.176 0.007,0.263 z m 5.812,0.118 c -0.009,-0.014 -0.02,-0.026 -0.032,-0.034 -0.444,-0.242 -0.981,-0.284 -1.444,-0.527 -0.315,-0.167 -0.64,-0.458 -1.006,-0.505 -0.413,-0.053 -0.705,0.167 -1.062,0.343 -0.299,0.148 -0.604,0.284 -0.912,0.41 -0.051,0.021 -1.026,0.4 -1.194,0.283 0.028,-0.016 0.051,-0.044 0.054,-0.086 0.315,-3.426 0.705,-6.844 1.179,-10.252 0.229,-1.65 0.477,-3.297 0.742,-4.94 0.188,-1.169 0.391,-2.314 0.256,-3.485 10e-4,-0.003 0.005,-0.005 0.005,-0.008 0.002,-0.123 -0.019,-0.237 -0.055,-0.342 -0.009,-0.047 -0.017,-0.094 -0.025,-0.141 -0.006,-0.031 -0.035,-0.044 -0.062,-0.042 -0.33,-0.535 -1.154,-0.729 -1.689,-0.338 -0.643,0.471 -0.514,1.667 0.422,1.585 0.012,-10e-4 0.022,-0.006 0.03,-0.012 0.053,-0.023 0.103,-0.048 0.154,-0.073 0.015,-0.007 0.028,-0.012 0.042,-0.018 0.003,0.019 0.006,0.038 0.006,0.058 0,0.01 0,0.018 0,0.027 -0.267,0.203 -1.982,-0.145 -3.378,-0.466 0.022,-0.268 0.056,-0.535 0.104,-0.803 0.015,-0.074 -0.03,-0.127 -0.104,-0.136 -0.59,-0.069 -1.181,-0.132 -1.771,-0.191 -0.009,-0.001 -0.017,10e-4 -0.024,0.002 -0.043,-0.01 -0.094,0.005 -0.104,0.056 -0.038,0.192 -0.07,0.394 -0.101,0.599 -0.739,-0.161 -1.478,-0.324 -2.214,-0.493 -0.307,-0.071 -0.899,-0.375 -1.218,-0.219 -0.117,-0.503 0.01,-1.015 0.311,-1.44 0.56,-0.79 1.32,-0.574 2.115,-0.383 0.866,0.208 1.731,0.413 2.598,0.619 1.731,0.412 3.637,0.667 5.239,1.47 0.014,0.008 0.029,0.011 0.043,0.012 0.666,0.549 0.574,1.879 0.676,2.66 0.113,0.875 0.227,1.749 0.341,2.623 0.212,1.633 0.424,3.264 0.637,4.896 0.212,1.631 0.425,3.263 0.637,4.895 0.093,0.705 0.181,1.409 0.275,2.113 0.062,0.446 0.123,0.894 0.218,1.335 0.015,0.066 0.205,0.67 0.319,0.951 -0.005,-0.004 -0.007,-0.003 -0.008,-0.003 z"
           id="path11"
           inkscape:connector-curvature="0" /></g><path
         d="m 24.875,24.092 c -0.012,-2.011 0.114,-4.008 0.191,-6.015 0.003,-0.075 -0.107,-0.072 -0.115,0 -0.384,3.936 -0.354,8.1 0.1,12.027 0.003,0.039 0.062,0.041 0.062,0 -0.091,-2.005 -0.225,-4.003 -0.238,-6.012 z"
         id="path13"
         inkscape:connector-curvature="0" /></g><g
       id="g15"><path
         d="m 16.826,22.166 c -0.049,-0.014 -0.099,-0.029 -0.15,-0.045 -0.052,-0.017 -0.104,-0.032 -0.157,-0.046 -0.022,0.069 -0.043,0.141 -0.062,0.215 -0.019,0.074 -0.027,0.143 -0.027,0.211 0,0.068 0.014,0.128 0.04,0.183 0.026,0.055 0.073,0.096 0.142,0.125 l -0.057,0.082 c -0.062,-0.024 -0.109,-0.058 -0.144,-0.103 -0.032,-0.043 -0.055,-0.092 -0.066,-0.147 -0.011,-0.055 -0.016,-0.113 -0.012,-0.173 0.005,-0.06 0.013,-0.116 0.023,-0.17 0.011,-0.054 0.023,-0.103 0.039,-0.147 0.015,-0.043 0.027,-0.077 0.037,-0.102 -0.055,-0.016 -0.106,-0.032 -0.154,-0.046 -0.049,-0.014 -0.091,-0.027 -0.127,-0.037 -0.042,-0.013 -0.082,-0.024 -0.119,-0.035 0.006,-0.016 0.011,-0.033 0.014,-0.049 0.003,-0.013 0.005,-0.024 0.008,-0.035 0.002,-0.01 0.004,-0.015 0.006,-0.014 l 0.405,0.133 c 0.012,-0.03 0.027,-0.072 0.046,-0.127 0.018,-0.054 0.039,-0.113 0.062,-0.178 0.023,-0.063 0.046,-0.129 0.07,-0.195 0.023,-0.067 0.045,-0.129 0.064,-0.184 0.02,-0.055 0.035,-0.1 0.048,-0.135 0.013,-0.034 0.02,-0.053 0.02,-0.054 0.001,0.003 0.007,0.007 0.019,0.01 0.012,0.004 0.024,0.007 0.038,0.011 0.018,0.003 0.036,0.008 0.055,0.013 -0.048,0.117 -0.093,0.231 -0.135,0.34 -0.019,0.046 -0.038,0.095 -0.058,0.143 -0.019,0.049 -0.038,0.097 -0.055,0.143 -0.019,0.046 -0.035,0.09 -0.051,0.132 -0.015,0.041 -0.028,0.078 -0.04,0.107 0.054,0.018 0.107,0.036 0.159,0.052 0.052,0.017 0.1,0.032 0.142,0.044 l -0.023,0.078 z"
         id="path17"
         inkscape:connector-curvature="0" /><path
         d="m 17.894,22.93 c -0.071,0.078 -0.152,0.132 -0.242,0.165 -0.09,0.033 -0.181,0.047 -0.271,0.043 -0.091,-0.005 -0.176,-0.03 -0.255,-0.072 -0.079,-0.042 -0.144,-0.103 -0.192,-0.18 -0.049,-0.076 -0.078,-0.168 -0.087,-0.277 -0.01,-0.108 0.012,-0.231 0.062,-0.367 0.047,-0.126 0.104,-0.228 0.175,-0.305 0.069,-0.078 0.144,-0.134 0.221,-0.169 0.078,-0.035 0.158,-0.05 0.239,-0.045 0.08,0.004 0.156,0.024 0.228,0.061 0.07,0.036 0.133,0.087 0.187,0.151 0.055,0.066 0.095,0.143 0.121,0.229 0.008,0.027 0.014,0.059 0.018,0.097 0.004,0.037 0.005,0.077 0.004,0.12 -0.001,0.043 -0.004,0.085 -0.011,0.125 -0.006,0.042 -0.015,0.081 -0.026,0.116 l -1.071,-0.319 c -0.036,0.104 -0.05,0.2 -0.04,0.288 0.009,0.089 0.034,0.165 0.075,0.23 0.039,0.067 0.092,0.119 0.155,0.157 0.062,0.038 0.132,0.06 0.204,0.064 0.073,0.005 0.148,-0.011 0.224,-0.046 0.075,-0.035 0.145,-0.092 0.208,-0.171 l 0.074,0.105 z m 0.085,-0.415 c 0.013,-0.048 0.02,-0.099 0.022,-0.154 0.003,-0.056 10e-4,-0.101 -0.005,-0.139 -0.013,-0.075 -0.04,-0.141 -0.08,-0.197 -0.04,-0.057 -0.088,-0.102 -0.145,-0.133 -0.058,-0.033 -0.119,-0.052 -0.187,-0.059 -0.068,-0.007 -0.135,0.002 -0.202,0.025 -0.068,0.023 -0.132,0.064 -0.193,0.121 -0.062,0.057 -0.114,0.134 -0.158,0.228 0.009,0.003 0.039,0.013 0.09,0.03 0.052,0.017 0.113,0.037 0.185,0.061 0.069,0.021 0.146,0.047 0.225,0.073 0.08,0.026 0.153,0.05 0.22,0.073 0.067,0.022 0.122,0.04 0.165,0.053 0.043,0.013 0.063,0.02 0.063,0.018 z"
         id="path19"
         inkscape:connector-curvature="0" /><path
         d="m 19.523,22.32 -0.432,1.423 c -0.02,-0.008 -0.037,-0.016 -0.052,-0.022 -0.014,-0.004 -0.026,-0.008 -0.037,-0.01 -0.011,-0.003 -0.017,-0.002 -0.019,0 0,0.001 0.002,-0.006 0.008,-0.022 0.005,-0.016 0.012,-0.039 0.021,-0.07 0.009,-0.03 0.021,-0.066 0.033,-0.107 0.013,-0.042 0.026,-0.088 0.041,-0.138 -0.073,0.066 -0.152,0.112 -0.239,0.139 -0.087,0.026 -0.173,0.034 -0.257,0.024 C 18.506,23.526 18.427,23.5 18.355,23.456 18.283,23.413 18.224,23.353 18.18,23.278 18.136,23.201 18.111,23.111 18.105,23.006 18.099,22.9 18.121,22.781 18.17,22.65 c 0.048,-0.129 0.107,-0.233 0.178,-0.312 0.071,-0.079 0.146,-0.134 0.226,-0.168 0.079,-0.033 0.159,-0.047 0.24,-0.041 0.081,0.006 0.156,0.029 0.227,0.069 0.068,0.038 0.13,0.094 0.182,0.164 0.052,0.07 0.087,0.151 0.107,0.242 0.028,-0.087 0.053,-0.161 0.071,-0.22 0.02,-0.06 0.031,-0.089 0.034,-0.087 l 0.088,0.023 z m -1.255,0.358 c -0.055,0.13 -0.076,0.245 -0.064,0.344 0.012,0.098 0.044,0.18 0.098,0.245 0.055,0.065 0.122,0.11 0.205,0.136 0.081,0.025 0.166,0.031 0.253,0.015 0.087,-0.016 0.17,-0.053 0.247,-0.114 0.078,-0.06 0.139,-0.145 0.184,-0.255 0.008,-0.023 0.015,-0.046 0.021,-0.068 0.007,-0.022 0.015,-0.044 0.021,-0.067 0.024,-0.111 0.024,-0.21 0.001,-0.298 C 19.21,22.528 19.172,22.454 19.118,22.394 19.064,22.335 19,22.292 18.924,22.269 c -0.075,-0.023 -0.152,-0.026 -0.232,-0.007 -0.078,0.019 -0.156,0.062 -0.23,0.13 -0.078,0.066 -0.143,0.162 -0.194,0.286 z"
         id="path21"
         inkscape:connector-curvature="0" /></g></g></svg>