<?xml version="1.0" encoding="UTF-8" standalone="no"?>
<!-- Generator: Adobe Illustrator 16.0.0, SVG Export Plug-In . SVG Version: 6.00 Build 0)  -->

<svg
   xmlns:dc="http://purl.org/dc/elements/1.1/"
   xmlns:cc="http://creativecommons.org/ns#"
   xmlns:rdf="http://www.w3.org/1999/02/22-rdf-syntax-ns#"
   xmlns:svg="http://www.w3.org/2000/svg"
   xmlns="http://www.w3.org/2000/svg"
   xmlns:sodipodi="http://sodipodi.sourceforge.net/DTD/sodipodi-0.dtd"
   xmlns:inkscape="http://www.inkscape.org/namespaces/inkscape"
   version="1.1"
   id="Layer_1"
   x="0px"
   y="0px"
   width="105"
   height="142"
   viewBox="0 0 105 142"
   enable-background="new 0 0 155.992 197.99"
   xml:space="preserve"
   inkscape:version="0.91 r13725"
   sodipodi:docname="slot-machine.svg"><metadata
     id="metadata53"><rdf:RDF><cc:Work
         rdf:about=""><dc:format>image/svg+xml</dc:format><dc:type
           rdf:resource="http://purl.org/dc/dcmitype/StillImage" /><dc:title></dc:title></cc:Work></rdf:RDF></metadata><defs
     id="defs51" /><sodipodi:namedview
     pagecolor="#ffffff"
     bordercolor="#666666"
     borderopacity="1"
     objecttolerance="10"
     gridtolerance="10"
     guidetolerance="10"
     inkscape:pageopacity="0"
     inkscape:pageshadow="2"
     inkscape:window-width="1252"
     inkscape:window-height="737"
     id="namedview49"
     showgrid="false"
     inkscape:zoom="4.7679174"
     inkscape:cx="24.450884"
     inkscape:cy="104.26334"
     inkscape:window-x="0"
     inkscape:window-y="0"
     inkscape:window-maximized="0"
     inkscape:current-layer="Layer_1" /><path
     stroke-miterlimit="10"
     d="M 0.19928763,23.088242"
     id="path3"
     inkscape:connector-curvature="0"
     style="fill:none;stroke:#000000;stroke-width:0.99772173;stroke-miterlimit:10" /><path
     stroke-miterlimit="10"
     d="m 19.677494,8.3701365 c 0,0 30.419577,-17.728545 67.122254,0 0,0 14.218862,0 17.524952,8.3630435 l 0,119.74887 c 0,0 1.32346,4.68303 -3.30609,5.01727 l -96.5518928,0 c 0,0 -3.96785633,0.33525 -3.96785633,-6.02091 l 0,-117.407595 c 0,0 3.30720903,-10.3699965 19.17863313,-9.7006785 z"
     id="path5"
     inkscape:connector-curvature="0"
     style="fill:none;stroke:#000000;stroke-width:0.99772173;stroke-miterlimit:10" /><path
     stroke-miterlimit="10"
     d="m 99.122321,115.57647 c 0,0.83063 -0.666622,1.50495 -1.487938,1.50495 l -90.2687568,0 c -0.8213467,0 -1.4879474,-0.67432 -1.4879474,-1.50495 l 0,-56.864545 c 0,-0.83091 0.6666007,-1.50513 1.4879474,-1.50513 l 90.2687568,0 c 0.821316,0 1.487938,0.67422 1.487938,1.50513 l 0,56.864545 z"
     id="path7"
     inkscape:connector-curvature="0"
     style="fill:none;stroke:#000000;stroke-width:0.99772173;stroke-miterlimit:10" /><g
     id="g17"
     transform="matrix(0.99196383,0,0,1.003484,-25.018997,-28.343328)"><path
       stroke-miterlimit="10"
       d="m 120.981,72.101 c 0,0.828 -0.672,1.5 -1.5,1.5 l -82.668,0 c -0.828,0 -1.5,-0.672 -1.5,-1.5 l 0,-13.334 c 0,-0.828 0.672,-1.5 1.5,-1.5 l 82.668,0 c 0.828,0 1.5,0.672 1.5,1.5 l 0,13.334 z"
       id="path19"
       inkscape:connector-curvature="0"
       style="fill:none;stroke:#000000;stroke-width:0.5;stroke-miterlimit:10;stroke-dasharray:0.9971, 0.9971" /></g><path
     stroke-miterlimit="10"
     d="m 20.796432,9.9877555 c 0,0 29.381981,-17.202726 64.831811,0 0,0 13.732719,0 16.926877,8.1141675 l 0,116.191307 c 0,0 1.27758,4.54397 -3.19516,4.86913 l -93.2545178,0 c 0,0 -3.8319574,0.3241 -3.8319574,-5.84129 l 0,-113.920634 c 0,0 3.1931332,-10.0629395 18.5229472,-9.4126805 z"
     id="path23"
     inkscape:connector-curvature="0"
     style="fill:none;stroke:#000000;stroke-width:0.49886087;stroke-miterlimit:10;stroke-dasharray:0.99772158" /><g
     id="g25"
     transform="matrix(0.99196383,0,0,1.003484,-25.02041,-28.343328)"><path
       d="m 41.378,55.04 0,-8.177 4.532,0 0,2.066 -2.188,0 0,0.949 2.188,0 0,2.067 -2.188,0 0,0.949 2.188,0 0,2.145 -4.532,0 z m 1.154,-7.645 c -0.253,0 -0.47,0.234 -0.47,0.508 0,0.272 0.217,0.494 0.47,0.494 0.264,0 0.456,-0.222 0.456,-0.494 0,-0.274 -0.192,-0.508 -0.456,-0.508 z m 0.456,1.703 c 0,-0.272 -0.192,-0.507 -0.456,-0.507 -0.253,0 -0.47,0.234 -0.47,0.507 0,0.3 0.217,0.508 0.47,0.508 0.264,0 0.456,-0.208 0.456,-0.508 z m 0,1.209 c 0,-0.285 -0.192,-0.493 -0.456,-0.493 -0.253,0 -0.47,0.208 -0.47,0.493 0,0.273 0.217,0.508 0.47,0.508 0.264,0 0.456,-0.234 0.456,-0.508 z m -0.456,0.702 c -0.253,0 -0.47,0.234 -0.47,0.508 0,0.272 0.217,0.493 0.47,0.493 0.264,0 0.456,-0.221 0.456,-0.493 0,-0.273 -0.192,-0.508 -0.456,-0.508 z m 0.456,1.703 c 0,-0.272 -0.192,-0.507 -0.456,-0.507 -0.253,0 -0.47,0.234 -0.47,0.507 0,0.299 0.217,0.507 0.47,0.507 0.264,0 0.456,-0.208 0.456,-0.507 z m 0,1.209 c 0,-0.272 -0.192,-0.494 -0.456,-0.494 -0.253,0 -0.47,0.222 -0.47,0.494 0,0.273 0.217,0.508 0.47,0.508 0.264,0 0.456,-0.234 0.456,-0.508 z m 0.662,-6.526 c -0.277,0 -0.47,0.234 -0.47,0.508 0,0.272 0.192,0.494 0.47,0.494 0.252,0 0.469,-0.222 0.469,-0.494 0,-0.274 -0.217,-0.508 -0.469,-0.508 z m 0,3.017 c -0.277,0 -0.47,0.221 -0.47,0.494 0,0.272 0.192,0.507 0.47,0.507 0.252,0 0.469,-0.234 0.469,-0.507 0,-0.274 -0.217,-0.494 -0.469,-0.494 z m 0,3.015 c -0.277,0 -0.47,0.222 -0.47,0.494 0,0.273 0.192,0.508 0.47,0.508 0.252,0 0.469,-0.234 0.469,-0.508 0,-0.272 -0.217,-0.494 -0.469,-0.494 z m 1.106,-6.032 c -0.252,0 -0.456,0.234 -0.456,0.508 0,0.272 0.204,0.494 0.456,0.494 0.253,0 0.47,-0.222 0.47,-0.494 0,-0.274 -0.217,-0.508 -0.47,-0.508 z m 0,3.017 c -0.252,0 -0.456,0.221 -0.456,0.494 0,0.272 0.204,0.507 0.456,0.507 0.253,0 0.47,-0.234 0.47,-0.507 0,-0.274 -0.217,-0.494 -0.47,-0.494 z m 0,3.015 c -0.252,0 -0.456,0.222 -0.456,0.494 0,0.273 0.204,0.508 0.456,0.508 0.253,0 0.47,-0.234 0.47,-0.508 0,-0.272 -0.217,-0.494 -0.47,-0.494 z"
       id="path27"
       inkscape:connector-curvature="0" /><path
       d="m 49.904,49.462 c -0.06,-0.377 -0.192,-0.767 -0.625,-0.767 -0.252,0 -0.457,0.155 -0.457,0.416 0,0.48 0.613,0.598 0.95,0.715 0.541,0.195 1.154,0.416 1.587,0.819 0.518,0.48 0.817,1.131 0.817,1.819 0,1.808 -1.322,2.73 -2.861,2.73 -1.263,0 -2.44,-0.598 -2.633,-2.093 l 2.056,-0.702 c 0,0.416 0.289,0.637 0.661,0.637 0.253,0 0.493,-0.104 0.493,-0.416 0,-0.364 -0.602,-0.533 -0.938,-0.688 -0.626,-0.286 -1.227,-0.469 -1.695,-0.976 -0.397,-0.416 -0.649,-1.027 -0.649,-1.638 0,-1.703 1.214,-2.613 2.657,-2.613 1.238,0 2.345,0.494 2.597,1.95 l -1.96,0.807 z m -1.695,-0.181 c 0,-0.273 -0.192,-0.494 -0.457,-0.494 -0.252,0 -0.469,0.221 -0.469,0.494 0,0.272 0.217,0.507 0.469,0.507 0.265,0 0.457,-0.235 0.457,-0.507 z m -0.012,-1.664 c -0.253,0 -0.457,0.221 -0.457,0.494 0,0.272 0.217,0.507 0.457,0.507 0.253,0 0.469,-0.234 0.469,-0.507 0,-0.274 -0.216,-0.494 -0.469,-0.494 z m 0.012,5.421 c -0.252,0 -0.457,0.234 -0.457,0.507 0,0.261 0.192,0.507 0.445,0.507 0.253,0 0.481,-0.233 0.481,-0.507 0.001,-0.299 -0.216,-0.507 -0.469,-0.507 z m 0.577,-2.717 c 0,-0.299 -0.192,-0.507 -0.457,-0.507 -0.252,0 -0.469,0.208 -0.469,0.507 0,0.272 0.217,0.507 0.469,0.507 0.265,0 0.457,-0.235 0.457,-0.507 z m 1.011,-2.587 c 0,-0.3 -0.205,-0.508 -0.457,-0.508 -0.276,0 -0.47,0.208 -0.47,0.508 0,0.26 0.217,0.507 0.47,0.507 0.252,0 0.457,-0.235 0.457,-0.507 z m 0.036,6.279 c 0,-0.273 -0.217,-0.508 -0.47,-0.508 -0.252,0 -0.469,0.247 -0.469,0.508 0,0.299 0.204,0.507 0.481,0.507 0.253,0 0.458,-0.208 0.458,-0.507 z m 0.023,-3.107 c 0,-0.273 -0.204,-0.494 -0.457,-0.494 -0.252,0 -0.469,0.221 -0.469,0.494 0,0.272 0.217,0.507 0.469,0.507 0.241,0 0.457,-0.235 0.457,-0.507 z m 0.553,0.025 c -0.252,0 -0.456,0.234 -0.456,0.508 0,0.272 0.204,0.494 0.456,0.494 0.253,0 0.47,-0.222 0.47,-0.494 0,-0.261 -0.217,-0.508 -0.47,-0.508 z M 50.47,47.59 c -0.265,0 -0.48,0.247 -0.48,0.521 0,0.272 0.216,0.494 0.469,0.494 0.252,0 0.457,-0.208 0.457,-0.494 C 50.915,47.837 50.723,47.59 50.47,47.59 Z m 0.445,6.072 c 0,-0.299 -0.192,-0.494 -0.457,-0.494 -0.24,0 -0.469,0.222 -0.469,0.494 0,0.273 0.229,0.507 0.48,0.507 0.254,-10e-4 0.446,-0.234 0.446,-0.507 z m 0.084,-1.664 c -0.253,0 -0.469,0.234 -0.469,0.507 0,0.273 0.216,0.507 0.469,0.507 0.24,0 0.469,-0.246 0.469,-0.507 0,-0.273 -0.217,-0.507 -0.469,-0.507 z"
       id="path29"
       inkscape:connector-curvature="0" /><path
       d="m 52.937,55.04 0,-8.177 2.753,0 c 1.623,0 2.741,1.079 2.741,2.834 0,1.833 -0.998,2.873 -2.813,2.873 l -0.338,0 0,2.47 -2.343,0 z m 1.154,-7.645 c -0.253,0 -0.47,0.234 -0.47,0.508 0,0.272 0.217,0.494 0.47,0.494 0.264,0 0.456,-0.222 0.456,-0.494 0,-0.274 -0.193,-0.508 -0.456,-0.508 z m 0.456,1.703 c 0,-0.272 -0.192,-0.507 -0.456,-0.507 -0.253,0 -0.47,0.234 -0.47,0.507 0,0.3 0.217,0.508 0.47,0.508 0.263,0 0.456,-0.208 0.456,-0.508 z m 0,1.209 c 0,-0.285 -0.192,-0.493 -0.456,-0.493 -0.253,0 -0.47,0.208 -0.47,0.493 0,0.273 0.217,0.508 0.47,0.508 0.263,0 0.456,-0.234 0.456,-0.508 z m -0.456,0.702 c -0.253,0 -0.47,0.234 -0.47,0.508 0,0.272 0.217,0.493 0.47,0.493 0.264,0 0.456,-0.221 0.456,-0.493 0,-0.273 -0.193,-0.508 -0.456,-0.508 z m 0.456,1.703 c 0,-0.272 -0.192,-0.507 -0.456,-0.507 -0.253,0 -0.47,0.234 -0.47,0.507 0,0.299 0.217,0.507 0.47,0.507 0.263,0 0.456,-0.208 0.456,-0.507 z m 0,1.209 c 0,-0.272 -0.192,-0.494 -0.456,-0.494 -0.253,0 -0.47,0.222 -0.47,0.494 0,0.273 0.217,0.508 0.47,0.508 0.263,0 0.456,-0.234 0.456,-0.508 z m 0.577,-6.539 c -0.252,0 -0.456,0.208 -0.456,0.481 0,0.272 0.204,0.507 0.456,0.507 0.253,0 0.47,-0.234 0.47,-0.494 0,-0.273 -0.193,-0.494 -0.47,-0.494 z m 0.506,4.07 c 0,-0.273 -0.205,-0.494 -0.457,-0.494 -0.253,0 -0.469,0.221 -0.469,0.494 0,0.299 0.216,0.507 0.469,0.507 0.252,-0.001 0.457,-0.209 0.457,-0.507 z m -0.35,-1.014 c 0.59,-0.014 0.782,-0.286 0.782,-0.768 0,-0.507 -0.192,-0.728 -0.782,-0.728 l 0,1.496 z m 0.866,-3.004 c -0.276,0 -0.469,0.234 -0.469,0.508 0,0.299 0.192,0.507 0.469,0.507 0.253,0 0.469,-0.208 0.469,-0.507 0,-0.261 -0.228,-0.508 -0.469,-0.508 z m 0.037,3.406 c -0.253,0 -0.457,0.234 -0.457,0.507 0,0.273 0.217,0.508 0.457,0.508 0.252,0 0.469,-0.208 0.469,-0.508 -10e-4,-0.272 -0.217,-0.507 -0.469,-0.507 z m 0.794,-2.729 c -0.253,0 -0.47,0.221 -0.47,0.494 0,0.299 0.217,0.507 0.47,0.507 0.252,0 0.469,-0.234 0.469,-0.507 -10e-4,-0.273 -0.193,-0.494 -0.469,-0.494 z m 0.107,2.119 c -0.24,0 -0.456,0.247 -0.456,0.507 0,0.299 0.204,0.507 0.456,0.507 0.277,0 0.47,-0.208 0.47,-0.507 0,-0.274 -0.193,-0.507 -0.47,-0.507 z m 0.12,-1.079 c -0.252,0 -0.456,0.221 -0.456,0.494 0,0.272 0.204,0.52 0.456,0.52 0.253,0 0.47,-0.247 0.47,-0.507 0,-0.274 -0.193,-0.507 -0.47,-0.507 z"
       id="path31"
       inkscape:connector-curvature="0" /><path
       d="m 62.474,55.04 -1.094,-2.288 0,2.288 -2.345,0 0,-8.177 2.873,0 c 1.744,0 2.886,1.065 2.886,2.729 0,1.118 -0.529,1.977 -1.395,2.249 l 1.912,3.198 -2.837,0 z m -2.285,-7.645 c -0.253,0 -0.47,0.234 -0.47,0.508 0,0.272 0.217,0.494 0.47,0.494 0.264,0 0.456,-0.222 0.456,-0.494 10e-4,-0.274 -0.192,-0.508 -0.456,-0.508 z m 0.457,1.703 c 0,-0.272 -0.192,-0.507 -0.456,-0.507 -0.253,0 -0.47,0.234 -0.47,0.507 0,0.3 0.217,0.508 0.47,0.508 0.263,0 0.456,-0.208 0.456,-0.508 z m 0,1.209 c 0,-0.285 -0.192,-0.493 -0.456,-0.493 -0.253,0 -0.47,0.208 -0.47,0.493 0,0.273 0.217,0.508 0.47,0.508 0.263,0 0.456,-0.234 0.456,-0.508 z m -0.457,0.702 c -0.253,0 -0.47,0.234 -0.47,0.508 0,0.272 0.217,0.493 0.47,0.493 0.264,0 0.456,-0.221 0.456,-0.493 10e-4,-0.273 -0.192,-0.508 -0.456,-0.508 z m 0.457,1.703 c 0,-0.272 -0.192,-0.507 -0.456,-0.507 -0.253,0 -0.47,0.234 -0.47,0.507 0,0.299 0.217,0.507 0.47,0.507 0.263,0 0.456,-0.208 0.456,-0.507 z m 0,1.209 c 0,-0.272 -0.192,-0.494 -0.456,-0.494 -0.253,0 -0.47,0.222 -0.47,0.494 0,0.273 0.217,0.508 0.47,0.508 0.263,0 0.456,-0.234 0.456,-0.508 z m 1.01,-2.469 c 0,-0.273 -0.205,-0.494 -0.457,-0.494 -0.276,0 -0.469,0.221 -0.469,0.494 0,0.299 0.192,0.507 0.469,0.507 0.252,-0.001 0.457,-0.209 0.457,-0.507 z m -0.337,-4.07 c -0.253,0 -0.469,0.208 -0.469,0.481 0,0.272 0.216,0.507 0.469,0.507 0.252,0 0.457,-0.234 0.457,-0.494 0,-0.273 -0.192,-0.494 -0.457,-0.494 z m 0.313,3.056 c 0.529,0 0.781,-0.261 0.781,-0.768 0,-0.48 -0.276,-0.728 -0.829,-0.728 l -0.204,0 0,1.495 0.252,0 z m 0.649,0.52 c -0.24,0 -0.457,0.221 -0.457,0.494 0,0.273 0.204,0.507 0.457,0.507 0.253,0 0.469,-0.233 0.469,-0.507 0,-0.286 -0.216,-0.494 -0.469,-0.494 z m 0.145,-3.524 c -0.253,0 -0.457,0.234 -0.457,0.508 0,0.299 0.204,0.507 0.457,0.507 0.252,0 0.469,-0.208 0.469,-0.507 0,-0.261 -0.229,-0.508 -0.469,-0.508 z m 0.3,4.772 c -0.24,0 -0.456,0.234 -0.456,0.507 0,0.273 0.204,0.507 0.456,0.507 0.277,0 0.47,-0.233 0.47,-0.507 -10e-4,-0.299 -0.193,-0.507 -0.47,-0.507 z m 0.902,-1.43 c 0,-0.273 -0.204,-0.494 -0.457,-0.494 -0.252,0 -0.469,0.233 -0.469,0.494 0,0.272 0.192,0.507 0.469,0.507 0.253,0 0.457,-0.235 0.457,-0.507 z m -0.337,2.665 c -0.252,0 -0.457,0.233 -0.457,0.507 0,0.274 0.192,0.507 0.457,0.507 0.253,0 0.469,-0.233 0.469,-0.507 0,-0.299 -0.216,-0.507 -0.469,-0.507 z m 0.061,-5.33 c -0.253,0 -0.457,0.221 -0.457,0.494 0,0.299 0.204,0.507 0.457,0.507 0.252,0 0.469,-0.234 0.469,-0.507 -10e-4,-0.273 -0.217,-0.494 -0.469,-0.494 z m 0.697,1.586 c 0,-0.273 -0.204,-0.494 -0.457,-0.494 -0.253,0 -0.469,0.208 -0.469,0.494 0,0.272 0.216,0.507 0.469,0.507 0.24,0 0.457,-0.235 0.457,-0.507 z"
       id="path33"
       inkscape:connector-curvature="0" /><path
       d="m 65.891,55.04 0,-8.177 4.532,0 0,2.066 -2.188,0 0,0.949 2.188,0 0,2.067 -2.188,0 0,0.949 2.188,0 0,2.145 -4.532,0 z m 1.154,-7.645 c -0.253,0 -0.47,0.234 -0.47,0.508 0,0.272 0.217,0.494 0.47,0.494 0.264,0 0.456,-0.222 0.456,-0.494 0,-0.274 -0.192,-0.508 -0.456,-0.508 z m 0.456,1.703 c 0,-0.272 -0.192,-0.507 -0.456,-0.507 -0.253,0 -0.47,0.234 -0.47,0.507 0,0.3 0.217,0.508 0.47,0.508 0.264,0 0.456,-0.208 0.456,-0.508 z m 0,1.209 c 0,-0.285 -0.192,-0.493 -0.456,-0.493 -0.253,0 -0.47,0.208 -0.47,0.493 0,0.273 0.217,0.508 0.47,0.508 0.264,0 0.456,-0.234 0.456,-0.508 z m -0.456,0.702 c -0.253,0 -0.47,0.234 -0.47,0.508 0,0.272 0.217,0.493 0.47,0.493 0.264,0 0.456,-0.221 0.456,-0.493 0,-0.273 -0.192,-0.508 -0.456,-0.508 z m 0.456,1.703 c 0,-0.272 -0.192,-0.507 -0.456,-0.507 -0.253,0 -0.47,0.234 -0.47,0.507 0,0.299 0.217,0.507 0.47,0.507 0.264,0 0.456,-0.208 0.456,-0.507 z m 0,1.209 c 0,-0.272 -0.192,-0.494 -0.456,-0.494 -0.253,0 -0.47,0.222 -0.47,0.494 0,0.273 0.217,0.508 0.47,0.508 0.264,0 0.456,-0.234 0.456,-0.508 z m 0.662,-6.526 c -0.277,0 -0.47,0.234 -0.47,0.508 0,0.272 0.192,0.494 0.47,0.494 0.252,0 0.469,-0.222 0.469,-0.494 0,-0.274 -0.217,-0.508 -0.469,-0.508 z m 0,3.017 c -0.277,0 -0.47,0.221 -0.47,0.494 0,0.272 0.192,0.507 0.47,0.507 0.252,0 0.469,-0.234 0.469,-0.507 0,-0.274 -0.217,-0.494 -0.469,-0.494 z m 0,3.015 c -0.277,0 -0.47,0.222 -0.47,0.494 0,0.273 0.192,0.508 0.47,0.508 0.252,0 0.469,-0.234 0.469,-0.508 0,-0.272 -0.217,-0.494 -0.469,-0.494 z m 1.106,-6.032 c -0.252,0 -0.457,0.234 -0.457,0.508 0,0.272 0.205,0.494 0.457,0.494 0.253,0 0.47,-0.222 0.47,-0.494 -0.001,-0.274 -0.218,-0.508 -0.47,-0.508 z m 0,3.017 c -0.252,0 -0.457,0.221 -0.457,0.494 0,0.272 0.205,0.507 0.457,0.507 0.253,0 0.47,-0.234 0.47,-0.507 -0.001,-0.274 -0.218,-0.494 -0.47,-0.494 z m 0,3.015 c -0.252,0 -0.457,0.222 -0.457,0.494 0,0.273 0.205,0.508 0.457,0.508 0.253,0 0.47,-0.234 0.47,-0.508 -0.001,-0.272 -0.218,-0.494 -0.47,-0.494 z"
       id="path35"
       inkscape:connector-curvature="0" /><path
       d="m 74.417,49.462 c -0.06,-0.377 -0.192,-0.767 -0.625,-0.767 -0.252,0 -0.457,0.155 -0.457,0.416 0,0.48 0.613,0.598 0.95,0.715 0.541,0.195 1.154,0.416 1.587,0.819 0.518,0.48 0.817,1.131 0.817,1.819 0,1.808 -1.322,2.73 -2.861,2.73 -1.263,0 -2.44,-0.598 -2.633,-2.093 l 2.056,-0.702 c 0,0.416 0.289,0.637 0.661,0.637 0.253,0 0.493,-0.104 0.493,-0.416 0,-0.364 -0.602,-0.533 -0.938,-0.688 -0.626,-0.286 -1.227,-0.469 -1.695,-0.976 -0.397,-0.416 -0.649,-1.027 -0.649,-1.638 0,-1.703 1.214,-2.613 2.657,-2.613 1.238,0 2.345,0.494 2.597,1.95 l -1.96,0.807 z m -1.695,-0.181 c 0,-0.273 -0.192,-0.494 -0.457,-0.494 -0.252,0 -0.469,0.221 -0.469,0.494 0,0.272 0.217,0.507 0.469,0.507 0.264,0 0.457,-0.235 0.457,-0.507 z M 72.71,47.617 c -0.253,0 -0.457,0.221 -0.457,0.494 0,0.272 0.217,0.507 0.457,0.507 0.253,0 0.469,-0.234 0.469,-0.507 0,-0.274 -0.216,-0.494 -0.469,-0.494 z m 0.012,5.421 c -0.252,0 -0.457,0.234 -0.457,0.507 0,0.261 0.192,0.507 0.445,0.507 0.253,0 0.48,-0.233 0.48,-0.507 0,-0.299 -0.215,-0.507 -0.468,-0.507 z m 0.577,-2.717 c 0,-0.299 -0.192,-0.507 -0.457,-0.507 -0.252,0 -0.469,0.208 -0.469,0.507 0,0.272 0.217,0.507 0.469,0.507 0.264,0 0.457,-0.235 0.457,-0.507 z m 1.011,-2.587 c 0,-0.3 -0.205,-0.508 -0.457,-0.508 -0.277,0 -0.469,0.208 -0.469,0.508 0,0.26 0.216,0.507 0.469,0.507 0.251,0 0.457,-0.235 0.457,-0.507 z m 0.035,6.279 c 0,-0.273 -0.216,-0.508 -0.469,-0.508 -0.252,0 -0.469,0.247 -0.469,0.508 0,0.299 0.204,0.507 0.481,0.507 0.253,0 0.457,-0.208 0.457,-0.507 z m 0.024,-3.107 c 0,-0.273 -0.204,-0.494 -0.457,-0.494 -0.252,0 -0.469,0.221 -0.469,0.494 0,0.272 0.217,0.507 0.469,0.507 0.241,0 0.457,-0.235 0.457,-0.507 z m 0.554,0.025 c -0.253,0 -0.457,0.234 -0.457,0.508 0,0.272 0.204,0.494 0.457,0.494 0.252,0 0.469,-0.222 0.469,-0.494 0,-0.261 -0.217,-0.508 -0.469,-0.508 z m 0.059,-3.341 c -0.265,0 -0.48,0.247 -0.48,0.521 0,0.272 0.216,0.494 0.469,0.494 0.252,0 0.457,-0.208 0.457,-0.494 0,-0.274 -0.193,-0.521 -0.446,-0.521 z m 0.446,6.072 c 0,-0.299 -0.192,-0.494 -0.457,-0.494 -0.241,0 -0.469,0.222 -0.469,0.494 0,0.273 0.228,0.507 0.48,0.507 0.252,0 0.446,-0.234 0.446,-0.507 z m 0.084,-1.664 c -0.253,0 -0.469,0.234 -0.469,0.507 0,0.273 0.216,0.507 0.469,0.507 0.24,0 0.469,-0.246 0.469,-0.507 -10e-4,-0.273 -0.217,-0.507 -0.469,-0.507 z"
       id="path37"
       inkscape:connector-curvature="0" /><path
       d="m 80.636,49.462 c -0.06,-0.377 -0.192,-0.767 -0.625,-0.767 -0.252,0 -0.457,0.155 -0.457,0.416 0,0.48 0.613,0.598 0.95,0.715 0.541,0.195 1.154,0.416 1.587,0.819 0.518,0.48 0.817,1.131 0.817,1.819 0,1.808 -1.322,2.73 -2.861,2.73 -1.263,0 -2.44,-0.598 -2.633,-2.093 l 2.056,-0.702 c 0,0.416 0.289,0.637 0.661,0.637 0.253,0 0.493,-0.104 0.493,-0.416 0,-0.364 -0.602,-0.533 -0.938,-0.688 -0.626,-0.286 -1.227,-0.469 -1.695,-0.976 -0.397,-0.416 -0.649,-1.027 -0.649,-1.638 0,-1.703 1.214,-2.613 2.657,-2.613 1.238,0 2.345,0.494 2.597,1.95 l -1.96,0.807 z M 78.94,49.281 c 0,-0.273 -0.192,-0.494 -0.457,-0.494 -0.252,0 -0.469,0.221 -0.469,0.494 0,0.272 0.217,0.507 0.469,0.507 0.265,0 0.457,-0.235 0.457,-0.507 z m -0.011,-1.664 c -0.253,0 -0.457,0.221 -0.457,0.494 0,0.272 0.217,0.507 0.457,0.507 0.253,0 0.469,-0.234 0.469,-0.507 -10e-4,-0.274 -0.216,-0.494 -0.469,-0.494 z m 0.011,5.421 c -0.252,0 -0.457,0.234 -0.457,0.507 0,0.261 0.192,0.507 0.445,0.507 0.253,0 0.48,-0.233 0.48,-0.507 0.001,-0.299 -0.215,-0.507 -0.468,-0.507 z m 0.578,-2.717 c 0,-0.299 -0.192,-0.507 -0.457,-0.507 -0.252,0 -0.469,0.208 -0.469,0.507 0,0.272 0.217,0.507 0.469,0.507 0.264,0 0.457,-0.235 0.457,-0.507 z m 1.01,-2.587 c 0,-0.3 -0.205,-0.508 -0.457,-0.508 -0.277,0 -0.469,0.208 -0.469,0.508 0,0.26 0.216,0.507 0.469,0.507 0.252,0 0.457,-0.235 0.457,-0.507 z m 0.035,6.279 c 0,-0.273 -0.216,-0.508 -0.469,-0.508 -0.252,0 -0.469,0.247 -0.469,0.508 0,0.299 0.204,0.507 0.481,0.507 0.253,0 0.457,-0.208 0.457,-0.507 z m 0.025,-3.107 c 0,-0.273 -0.204,-0.494 -0.457,-0.494 -0.252,0 -0.469,0.221 -0.469,0.494 0,0.272 0.217,0.507 0.469,0.507 0.241,0 0.457,-0.235 0.457,-0.507 z m 0.554,0.025 c -0.253,0 -0.457,0.234 -0.457,0.508 0,0.272 0.204,0.494 0.457,0.494 0.252,0 0.469,-0.222 0.469,-0.494 -0.001,-0.261 -0.217,-0.508 -0.469,-0.508 z m 0.059,-3.341 c -0.265,0 -0.48,0.247 -0.48,0.521 0,0.272 0.216,0.494 0.469,0.494 0.252,0 0.457,-0.208 0.457,-0.494 -0.001,-0.274 -0.193,-0.521 -0.446,-0.521 z m 0.445,6.072 c 0,-0.299 -0.192,-0.494 -0.457,-0.494 -0.241,0 -0.469,0.222 -0.469,0.494 0,0.273 0.228,0.507 0.48,0.507 0.252,0 0.446,-0.234 0.446,-0.507 z m 0.084,-1.664 c -0.253,0 -0.469,0.234 -0.469,0.507 0,0.273 0.216,0.507 0.469,0.507 0.24,0 0.469,-0.246 0.469,-0.507 0,-0.273 -0.217,-0.507 -0.469,-0.507 z"
       id="path39"
       inkscape:connector-curvature="0" /><path
       d="m 87.528,55.196 c -2.261,0 -3.992,-1.781 -3.992,-4.238 0,-2.483 1.707,-4.251 3.992,-4.251 2.248,0 3.992,1.794 3.992,4.251 0,2.457 -1.731,4.238 -3.992,4.238 z m -2.813,-4.745 c -0.265,0 -0.457,0.208 -0.457,0.507 0,0.273 0.192,0.494 0.457,0.494 0.252,0 0.469,-0.221 0.469,-0.494 0,-0.299 -0.217,-0.507 -0.469,-0.507 z m 0.156,1.157 c -0.253,0 -0.469,0.208 -0.469,0.507 0,0.26 0.229,0.507 0.469,0.507 0.252,0 0.469,-0.234 0.469,-0.507 0,-0.299 -0.217,-0.507 -0.469,-0.507 z m 0.481,-1.82 c 0,-0.299 -0.204,-0.507 -0.457,-0.507 -0.252,0 -0.469,0.208 -0.469,0.507 0,0.26 0.217,0.507 0.469,0.507 0.252,-0.001 0.457,-0.234 0.457,-0.507 z m 0.108,-1.496 c -0.252,0 -0.457,0.234 -0.457,0.507 0,0.273 0.205,0.494 0.457,0.494 0.253,0 0.469,-0.221 0.469,-0.494 0,-0.272 -0.216,-0.507 -0.469,-0.507 z m 0,4.33 c -0.252,0 -0.457,0.221 -0.457,0.494 0,0.273 0.205,0.507 0.457,0.507 0.253,0 0.469,-0.247 0.469,-0.507 0,-0.274 -0.216,-0.494 -0.469,-0.494 z m 3.716,-1.664 c 0,-1.248 -0.674,-1.95 -1.647,-1.95 -0.986,0 -1.647,0.689 -1.647,1.95 0,1.248 0.661,1.938 1.647,1.938 0.973,-10e-4 1.647,-0.69 1.647,-1.938 z m -2.79,-3.316 c -0.276,0 -0.469,0.234 -0.469,0.508 0,0.272 0.192,0.507 0.469,0.507 0.24,0 0.469,-0.247 0.469,-0.507 -0.001,-0.274 -0.216,-0.508 -0.469,-0.508 z m 0,5.616 c -0.276,0 -0.469,0.234 -0.469,0.508 0,0.272 0.192,0.493 0.469,0.493 0.24,0 0.469,-0.221 0.469,-0.493 -0.001,-0.273 -0.216,-0.508 -0.469,-0.508 z m 1.599,-5.421 c 0,-0.272 -0.181,-0.494 -0.457,-0.494 -0.24,0 -0.469,0.234 -0.469,0.494 0,0.299 0.216,0.507 0.469,0.507 0.277,0 0.457,-0.208 0.457,-0.507 z m 0,6.214 c 0,-0.272 -0.181,-0.493 -0.457,-0.493 -0.253,0 -0.469,0.221 -0.469,0.493 0,0.273 0.216,0.508 0.469,0.508 0.277,0 0.457,-0.234 0.457,-0.508 z m 1.142,-5.901 c 0,-0.273 -0.192,-0.508 -0.456,-0.508 -0.253,0 -0.47,0.234 -0.47,0.508 0,0.26 0.229,0.507 0.47,0.507 0.264,0 0.456,-0.235 0.456,-0.507 z m -0.456,5.108 c -0.253,0 -0.47,0.234 -0.47,0.508 0,0.272 0.229,0.493 0.47,0.493 0.264,0 0.456,-0.221 0.456,-0.493 0,-0.273 -0.192,-0.508 -0.456,-0.508 z m 0.913,-4.966 c -0.252,0 -0.457,0.234 -0.457,0.507 0,0.273 0.217,0.494 0.457,0.494 0.253,0 0.47,-0.221 0.47,-0.494 0,-0.272 -0.217,-0.507 -0.47,-0.507 z m 0,4.33 c -0.252,0 -0.457,0.221 -0.457,0.494 0,0.26 0.217,0.507 0.457,0.507 0.253,0 0.47,-0.233 0.47,-0.507 0,-0.274 -0.217,-0.494 -0.47,-0.494 z m 0.577,-3.341 c -0.252,0 -0.469,0.208 -0.469,0.507 0,0.273 0.217,0.507 0.469,0.507 0.241,0 0.469,-0.247 0.469,-0.507 0,-0.299 -0.216,-0.507 -0.469,-0.507 z m 0.482,2.834 c 0,-0.299 -0.204,-0.507 -0.457,-0.507 -0.253,0 -0.469,0.208 -0.469,0.507 0,0.272 0.216,0.507 0.469,0.507 0.24,0 0.457,-0.247 0.457,-0.507 z M 90.33,50.451 c -0.253,0 -0.457,0.208 -0.457,0.507 0,0.273 0.204,0.494 0.457,0.494 0.276,0 0.469,-0.221 0.469,-0.494 0,-0.299 -0.193,-0.507 -0.469,-0.507 z"
       id="path41"
       inkscape:connector-curvature="0" /><path
       d="m 95.239,55.04 0,-8.177 2.873,0 c 1.431,0 2.393,0.871 2.393,2.34 0,0.663 -0.229,1.209 -0.697,1.586 0.469,0.299 0.794,0.937 0.794,1.729 0,1.625 -0.914,2.521 -2.621,2.521 l -2.742,0 z m 1.058,-7.683 c -0.253,0 -0.457,0.221 -0.457,0.493 0,0.3 0.204,0.508 0.457,0.508 0.253,0 0.469,-0.208 0.469,-0.508 0,-0.272 -0.216,-0.493 -0.469,-0.493 z m 0,1.209 c -0.253,0 -0.457,0.208 -0.457,0.507 0,0.272 0.204,0.494 0.457,0.494 0.253,0 0.469,-0.222 0.469,-0.494 0,-0.299 -0.216,-0.507 -0.469,-0.507 z m 0,1.195 c -0.253,0 -0.457,0.234 -0.457,0.508 0,0.272 0.204,0.507 0.457,0.507 0.253,0 0.469,-0.234 0.469,-0.507 0,-0.273 -0.216,-0.508 -0.469,-0.508 z m 0,1.209 c -0.253,0 -0.457,0.222 -0.457,0.494 0,0.299 0.204,0.507 0.457,0.507 0.253,0 0.469,-0.208 0.469,-0.507 0,-0.272 -0.216,-0.494 -0.469,-0.494 z m 0,1.301 c -0.253,0 -0.457,0.233 -0.457,0.507 0,0.272 0.204,0.507 0.457,0.507 0.253,0 0.469,-0.234 0.469,-0.507 0,-0.274 -0.216,-0.507 -0.469,-0.507 z m 0,1.209 c -0.253,0 -0.457,0.233 -0.457,0.507 0,0.286 0.204,0.494 0.457,0.494 0.253,0 0.469,-0.208 0.469,-0.494 0,-0.274 -0.216,-0.507 -0.469,-0.507 z m 1.058,-3.173 c -0.265,0 -0.457,0.208 -0.457,0.508 0,0.26 0.204,0.507 0.457,0.507 0.252,0 0.469,-0.234 0.469,-0.507 0,-0.3 -0.217,-0.508 -0.469,-0.508 z m 0.072,-2.976 c -0.252,0 -0.456,0.208 -0.456,0.507 0,0.273 0.204,0.494 0.456,0.494 0.241,0 0.47,-0.221 0.47,-0.494 -0.001,-0.287 -0.217,-0.507 -0.47,-0.507 z m 0.06,6.149 c -0.253,0 -0.457,0.233 -0.457,0.507 0,0.286 0.204,0.494 0.457,0.494 0.276,0 0.469,-0.208 0.469,-0.494 0,-0.274 -0.192,-0.507 -0.469,-0.507 z m -0.048,-3.536 c 0.637,0 0.854,-0.144 0.854,-0.599 0,-0.48 -0.276,-0.61 -0.854,-0.61 l 0,1.209 z m 0.301,3.12 c 0.36,0 0.625,-0.261 0.625,-0.65 0,-0.429 -0.253,-0.65 -0.77,-0.65 l -0.156,0 0,1.301 0.301,0 z m 1.191,-2.275 c 0,-0.273 -0.205,-0.494 -0.457,-0.494 -0.277,0 -0.47,0.221 -0.47,0.494 0,0.299 0.192,0.507 0.47,0.507 0.252,-10e-4 0.457,-0.209 0.457,-0.507 z m -0.385,-3.316 c -0.253,0 -0.47,0.208 -0.47,0.508 0,0.272 0.217,0.493 0.47,0.493 0.264,0 0.456,-0.221 0.456,-0.493 0,-0.273 -0.204,-0.508 -0.456,-0.508 z m 0.132,5.773 c -0.265,0 -0.457,0.208 -0.457,0.507 0,0.273 0.192,0.507 0.457,0.507 0.253,0 0.469,-0.233 0.469,-0.507 -0.001,-0.299 -0.216,-0.507 -0.469,-0.507 z m 0.565,-3.835 c -0.253,0 -0.457,0.208 -0.457,0.494 0,0.272 0.204,0.52 0.457,0.52 0.252,0 0.469,-0.247 0.469,-0.507 0,-0.299 -0.217,-0.507 -0.469,-0.507 z m 0.072,1.703 c -0.241,0 -0.457,0.221 -0.457,0.494 0,0.272 0.204,0.507 0.457,0.507 0.276,0 0.469,-0.234 0.469,-0.507 0,-0.286 -0.192,-0.494 -0.469,-0.494 z M 99.82,48.76 c 0,-0.272 -0.205,-0.507 -0.457,-0.507 -0.253,0 -0.469,0.234 -0.469,0.507 0,0.273 0.216,0.507 0.469,0.507 0.252,0 0.457,-0.246 0.457,-0.507 z m -0.373,3.563 c -0.265,0 -0.457,0.208 -0.457,0.494 0,0.272 0.192,0.507 0.457,0.507 0.253,0 0.469,-0.234 0.469,-0.507 0,-0.286 -0.216,-0.494 -0.469,-0.494 z"
       id="path43"
       inkscape:connector-curvature="0" /><path
       d="m 105.967,55.04 -0.241,-0.857 -2.393,0 -0.252,0.857 -2.489,0 2.621,-8.177 2.597,0 2.634,8.177 -2.477,0 z m -3.945,-1.417 c -0.276,0 -0.457,0.221 -0.457,0.494 0,0.299 0.181,0.507 0.457,0.507 0.253,0 0.469,-0.208 0.469,-0.507 0,-0.26 -0.228,-0.494 -0.469,-0.494 z m 0.337,-1.04 c -0.253,0 -0.469,0.208 -0.469,0.507 0,0.273 0.216,0.494 0.469,0.494 0.252,0 0.469,-0.221 0.469,-0.494 0,-0.273 -0.228,-0.507 -0.469,-0.507 z m 0.325,-1.053 c -0.252,0 -0.457,0.233 -0.457,0.507 0,0.274 0.205,0.507 0.457,0.507 0.253,0 0.469,-0.233 0.469,-0.507 -0.001,-0.26 -0.216,-0.507 -0.469,-0.507 z m 0.337,-1.053 c -0.253,0 -0.457,0.233 -0.457,0.507 0,0.272 0.204,0.507 0.457,0.507 0.253,0 0.469,-0.234 0.469,-0.507 -10e-4,-0.261 -0.217,-0.507 -0.469,-0.507 z m 0.336,-1.04 c -0.253,0 -0.457,0.233 -0.457,0.507 0,0.272 0.204,0.507 0.457,0.507 0.252,0 0.469,-0.234 0.469,-0.507 0,-0.261 -0.217,-0.507 -0.469,-0.507 z m 0.048,3.185 c -0.253,0 -0.457,0.234 -0.457,0.507 0,0.273 0.204,0.507 0.457,0.507 0.253,0 0.469,-0.208 0.469,-0.507 0,-0.273 -0.216,-0.507 -0.469,-0.507 z m 0.277,-4.239 c -0.252,0 -0.457,0.234 -0.457,0.507 0,0.273 0.205,0.508 0.457,0.508 0.253,0 0.469,-0.234 0.469,-0.508 -10e-4,-0.26 -0.216,-0.507 -0.469,-0.507 z m 0.782,-0.533 c 0,-0.26 -0.217,-0.493 -0.457,-0.493 -0.277,0 -0.47,0.221 -0.47,0.493 0,0.3 0.192,0.508 0.47,0.508 0.252,0 0.457,-0.208 0.457,-0.508 z m 0.048,1.911 -0.638,2.38 1.287,0 -0.649,-2.38 z m -0.025,2.861 c -0.252,0 -0.469,0.234 -0.469,0.507 0,0.273 0.229,0.507 0.469,0.507 0.276,0 0.469,-0.208 0.469,-0.507 0,-0.273 -0.192,-0.507 -0.469,-0.507 z m 0.998,-4.772 c 0,-0.26 -0.217,-0.493 -0.457,-0.493 -0.252,0 -0.469,0.221 -0.469,0.493 0,0.3 0.217,0.508 0.469,0.508 0.253,0 0.457,-0.208 0.457,-0.508 z m -0.192,0.547 c -0.253,0 -0.457,0.233 -0.457,0.507 0,0.272 0.192,0.507 0.457,0.507 0.253,0 0.469,-0.234 0.469,-0.507 0,-0.274 -0.216,-0.507 -0.469,-0.507 z m 0.769,4.731 c 0,-0.272 -0.204,-0.507 -0.457,-0.507 -0.252,0 -0.469,0.234 -0.469,0.507 0,0.273 0.217,0.507 0.469,0.507 0.253,0 0.457,-0.208 0.457,-0.507 z M 105.63,49.45 c -0.253,0 -0.469,0.233 -0.469,0.507 0,0.274 0.192,0.494 0.469,0.494 0.252,0 0.469,-0.221 0.469,-0.494 0,-0.299 -0.217,-0.507 -0.469,-0.507 z m 0.793,1.534 c 0,-0.273 -0.204,-0.494 -0.456,-0.494 -0.253,0 -0.47,0.221 -0.47,0.494 0,0.299 0.217,0.507 0.47,0.507 0.252,0 0.456,-0.208 0.456,-0.507 z m -0.132,0.546 c -0.253,0 -0.457,0.233 -0.457,0.507 0,0.274 0.204,0.507 0.457,0.507 0.253,0 0.469,-0.233 0.469,-0.507 0,-0.26 -0.216,-0.507 -0.469,-0.507 z m 0.337,1.053 c -0.253,0 -0.457,0.208 -0.457,0.507 0,0.273 0.204,0.494 0.457,0.494 0.252,0 0.469,-0.221 0.469,-0.494 0,-0.273 -0.229,-0.507 -0.469,-0.507 z m 0.324,1.04 c -0.24,0 -0.469,0.234 -0.469,0.494 0,0.299 0.217,0.507 0.469,0.507 0.276,0 0.469,-0.208 0.469,-0.507 0,-0.274 -0.192,-0.494 -0.469,-0.494 z"
       id="path45"
       inkscape:connector-curvature="0" /><path
       d="m 112.39,55.04 -1.094,-2.288 0,2.288 -2.345,0 0,-8.177 2.873,0 c 1.744,0 2.886,1.065 2.886,2.729 0,1.118 -0.529,1.977 -1.395,2.249 l 1.912,3.198 -2.837,0 z m -2.285,-7.645 c -0.253,0 -0.47,0.234 -0.47,0.508 0,0.272 0.217,0.494 0.47,0.494 0.264,0 0.456,-0.222 0.456,-0.494 10e-4,-0.274 -0.192,-0.508 -0.456,-0.508 z m 0.457,1.703 c 0,-0.272 -0.192,-0.507 -0.456,-0.507 -0.253,0 -0.47,0.234 -0.47,0.507 0,0.3 0.217,0.508 0.47,0.508 0.263,0 0.456,-0.208 0.456,-0.508 z m 0,1.209 c 0,-0.285 -0.192,-0.493 -0.456,-0.493 -0.253,0 -0.47,0.208 -0.47,0.493 0,0.273 0.217,0.508 0.47,0.508 0.263,0 0.456,-0.234 0.456,-0.508 z m -0.457,0.702 c -0.253,0 -0.47,0.234 -0.47,0.508 0,0.272 0.217,0.493 0.47,0.493 0.264,0 0.456,-0.221 0.456,-0.493 10e-4,-0.273 -0.192,-0.508 -0.456,-0.508 z m 0.457,1.703 c 0,-0.272 -0.192,-0.507 -0.456,-0.507 -0.253,0 -0.47,0.234 -0.47,0.507 0,0.299 0.217,0.507 0.47,0.507 0.263,0 0.456,-0.208 0.456,-0.507 z m 0,1.209 c 0,-0.272 -0.192,-0.494 -0.456,-0.494 -0.253,0 -0.47,0.222 -0.47,0.494 0,0.273 0.217,0.508 0.47,0.508 0.263,0 0.456,-0.234 0.456,-0.508 z m 1.01,-2.469 c 0,-0.273 -0.205,-0.494 -0.457,-0.494 -0.276,0 -0.469,0.221 -0.469,0.494 0,0.299 0.192,0.507 0.469,0.507 0.252,-0.001 0.457,-0.209 0.457,-0.507 z m -0.337,-4.07 c -0.253,0 -0.469,0.208 -0.469,0.481 0,0.272 0.216,0.507 0.469,0.507 0.252,0 0.457,-0.234 0.457,-0.494 0,-0.273 -0.192,-0.494 -0.457,-0.494 z m 0.313,3.056 c 0.529,0 0.781,-0.261 0.781,-0.768 0,-0.48 -0.276,-0.728 -0.829,-0.728 l -0.204,0 0,1.495 0.252,0 z m 0.649,0.52 c -0.24,0 -0.457,0.221 -0.457,0.494 0,0.273 0.204,0.507 0.457,0.507 0.253,0 0.469,-0.233 0.469,-0.507 0,-0.286 -0.216,-0.494 -0.469,-0.494 z m 0.145,-3.524 c -0.253,0 -0.457,0.234 -0.457,0.508 0,0.299 0.204,0.507 0.457,0.507 0.252,0 0.469,-0.208 0.469,-0.507 0,-0.261 -0.229,-0.508 -0.469,-0.508 z m 0.3,4.772 c -0.24,0 -0.456,0.234 -0.456,0.507 0,0.273 0.204,0.507 0.456,0.507 0.277,0 0.47,-0.233 0.47,-0.507 -10e-4,-0.299 -0.193,-0.507 -0.47,-0.507 z m 0.902,-1.43 c 0,-0.273 -0.204,-0.494 -0.457,-0.494 -0.252,0 -0.469,0.233 -0.469,0.494 0,0.272 0.192,0.507 0.469,0.507 0.253,0 0.457,-0.235 0.457,-0.507 z m -0.337,2.665 c -0.252,0 -0.457,0.233 -0.457,0.507 0,0.274 0.192,0.507 0.457,0.507 0.253,0 0.469,-0.233 0.469,-0.507 0,-0.299 -0.216,-0.507 -0.469,-0.507 z m 0.061,-5.33 c -0.253,0 -0.457,0.221 -0.457,0.494 0,0.299 0.204,0.507 0.457,0.507 0.252,0 0.469,-0.234 0.469,-0.507 -10e-4,-0.273 -0.217,-0.494 -0.469,-0.494 z m 0.697,1.586 c 0,-0.273 -0.204,-0.494 -0.457,-0.494 -0.253,0 -0.469,0.208 -0.469,0.494 0,0.272 0.216,0.507 0.469,0.507 0.24,0 0.457,-0.235 0.457,-0.507 z"
       id="path47"
       inkscape:connector-curvature="0" /></g></svg>