<?xml version="1.0" encoding="UTF-8" standalone="no"?>
<!-- Generator: Adobe Illustrator 16.0.0, SVG Export Plug-In . SVG Version: 6.00 Build 0)  -->

<svg
   xmlns:dc="http://purl.org/dc/elements/1.1/"
   xmlns:cc="http://creativecommons.org/ns#"
   xmlns:rdf="http://www.w3.org/1999/02/22-rdf-syntax-ns#"
   xmlns:svg="http://www.w3.org/2000/svg"
   xmlns="http://www.w3.org/2000/svg"
   xmlns:sodipodi="http://sodipodi.sourceforge.net/DTD/sodipodi-0.dtd"
   xmlns:inkscape="http://www.inkscape.org/namespaces/inkscape"
   version="1.1"
   id="Layer_1"
   x="0px"
   y="0px"
   width="32.394001"
   height="23.091999"
   viewBox="0 0 32.394001 23.091999"
   enable-background="new 0 0 39.604 41.771"
   xml:space="preserve"
   inkscape:version="0.91 r13725"
   sodipodi:docname="tea-strainer.svg"><metadata
     id="metadata117"><rdf:RDF><cc:Work
         rdf:about=""><dc:format>image/svg+xml</dc:format><dc:type
           rdf:resource="http://purl.org/dc/dcmitype/StillImage" /><dc:title></dc:title></cc:Work></rdf:RDF></metadata><defs
     id="defs115" /><sodipodi:namedview
     pagecolor="#ffffff"
     bordercolor="#666666"
     borderopacity="1"
     objecttolerance="10"
     gridtolerance="10"
     guidetolerance="10"
     inkscape:pageopacity="0"
     inkscape:pageshadow="2"
     inkscape:window-width="911"
     inkscape:window-height="598"
     id="namedview113"
     showgrid="false"
     inkscape:zoom="5.6498528"
     inkscape:cx="20.598481"
     inkscape:cy="20.8855"
     inkscape:window-x="20"
     inkscape:window-y="43"
     inkscape:window-maximized="0"
     inkscape:current-layer="Layer_1" /><g
     id="g3"
     transform="translate(-3.8824402,-8.0612839)"><path
       stroke-miterlimit="10"
       d="m 13.443,15.65 c 0.788,0.315 1.424,1.159 2.296,0.983 0.817,-0.166 1.661,-0.959 2.463,-1.166 0.435,-1.617 1.91,-0.905 1.706,0.061 0,0 1.718,1.352 2.493,1.765 0.971,0.519 1.843,1.18 2.761,1.795 0.808,0.541 1.726,1.021 2.46,1.662 0.71,0.617 1.735,0.943 2.426,1.577 0.723,0.663 1.278,0.926 2.034,1.492 0.534,0.4 1.439,1.299 2.104,1.966 0.763,0.769 1.331,1.231 1.76,2.24 0.9,2.118 -1.289,3.605 -3.238,2.764 -1.923,-0.83 -3.947,-1.405 -5.794,-2.342 -1.771,-0.898 -3.522,-1.634 -5.261,-2.541 -1.104,-0.576 -1.703,-0.993 -2.594,-1.562 -0.908,-0.582 -1.57,-0.632 -2.439,-1.271 -0.27,-0.198 -0.951,-0.384 -1.221,-0.545 -0.369,-0.219 -0.549,-0.229 -1.002,-0.284 -0.846,-0.104 -0.91,-1.025 -0.592,-1.63 0.282,-0.535 0.494,-1.759 0.441,-2.357 -0.072,-0.799 -0.894,-1.067 -1.365,-1.696 0.245,-0.237 0.378,-0.617 0.562,-0.911"
       id="path5"
       inkscape:connector-curvature="0"
       style="fill:none;stroke:#000000;stroke-width:0.25;stroke-miterlimit:10" /><path
       stroke-miterlimit="10"
       d="m 15.076,20.36 c 0.176,-0.533 0.349,-1.449 0.018,-1.936 0.658,0.039 1.403,-0.399 1.106,-1.22 0.643,-0.367 1.343,-0.541 1.928,-0.978 0.39,-0.291 0.458,-0.078 0.876,0.003 0.311,0.059 0.692,0.051 0.904,-0.198 0.448,0.563 1.086,0.932 1.629,1.391 0.623,0.526 1.375,1.087 2.133,1.449 1.38,0.657 2.669,1.801 3.919,2.671 0.665,0.463 1.263,0.994 1.92,1.425 0.636,0.417 0.944,0.798 1.641,1.259 0.797,0.528 1.135,0.791 1.63,1.259 0.232,0.222 0.426,0.507 0.672,0.712 0.271,0.227 0.606,0.326 0.884,0.524 -0.586,-0.077 -1.572,0.454 -1.913,0.963 -0.573,0.853 -0.356,2.274 0.051,2.607 C 30.661,29.512 29.419,29.043 28.099,28.5 27.405,28.214 26.436,27.633 25.755,27.289 24.987,26.9 24.404,26.417 23.725,26.178 22.949,25.906 22.537,25.472 21.792,25.141 21.101,24.834 20.099,24.317 19.48,23.92 c -0.703,-0.452 -1.083,-0.415 -1.769,-0.749 -0.683,-0.332 -1.034,-0.64 -1.667,-0.98 -0.18,-0.096 -0.614,-0.385 -0.814,-0.407 0.558,0.256 0.728,-1.271 -0.154,-1.424"
       id="path7"
       inkscape:connector-curvature="0"
       style="fill:none;stroke:#000000;stroke-width:0.25;stroke-linecap:round;stroke-linejoin:round;stroke-miterlimit:10" /><path
       stroke-miterlimit="10"
       d="m 33.592,27.533 c -0.722,0.296 -0.872,1.24 -0.867,1.933 0.007,0.885 0.759,1.319 1.618,1.108 1.396,-0.343 1.564,-3.442 -0.141,-3.194 -0.233,0.034 -0.457,0.109 -0.662,0.205"
       id="path9"
       inkscape:connector-curvature="0"
       style="fill:none;stroke:#000000;stroke-width:0.25;stroke-linecap:round;stroke-linejoin:round;stroke-miterlimit:10" /><path
       stroke-miterlimit="10"
       d="m 19.237,15 c -0.12,-0.251 -0.825,0.391 -0.357,0.612 0.384,0.182 0.785,-0.382 0.307,-0.612"
       id="path11"
       inkscape:connector-curvature="0"
       style="stroke:#000000;stroke-width:0.25;stroke-miterlimit:10" /><path
       stroke-miterlimit="10"
       d="m 15.378,17.206 c -0.12,-0.251 -0.825,0.39 -0.357,0.611 0.384,0.182 0.785,-0.382 0.307,-0.611"
       id="path13"
       inkscape:connector-curvature="0"
       style="stroke:#000000;stroke-width:0.25;stroke-miterlimit:10" /><path
       stroke-miterlimit="10"
       d="m 14.694,20.993 c -0.121,-0.251 -0.826,0.391 -0.357,0.612 0.384,0.181 0.785,-0.382 0.306,-0.612"
       id="path15"
       inkscape:connector-curvature="0"
       style="stroke:#000000;stroke-width:0.25;stroke-miterlimit:10" /><path
       stroke-miterlimit="10"
       d="m 4.903,11.663 c 0.002,0.843 -0.256,1.586 -0.308,2.391 -0.104,1.685 0.279,2.794 1.58,3.691 1.104,0.762 2.392,1.046 3.661,0.765 0.569,-0.126 1.313,-0.494 1.831,-0.765 0.317,-0.167 0.865,-0.639 1.142,-1.101 0,0 0.083,-0.135 0.071,-0.081 0.021,-0.053 0.096,-0.03 0.09,-0.086 0.03,-0.018 0.17,-0.28 0.217,-0.356 C 12.133,15.295 10.978,14.785 9.916,13.903 9.942,13.945 9.699,13.75 9.73,13.787 8.887,13.136 8.137,12.797 7.446,12.223 6.851,11.729 6.315,11.469 5.666,11.041 5.386,10.855 3.942,9.657 4.01,10.146 c 0.035,0.263 0.692,0.454 0.814,0.619 0.273,0.368 0.078,0.458 0.079,0.898 z"
       id="path17"
       inkscape:connector-curvature="0"
       style="fill:none;stroke:#000000;stroke-width:0.25;stroke-linecap:round;stroke-linejoin:round;stroke-miterlimit:10" /><line
       stroke-miterlimit="10"
       x1="4.9200001"
       y1="10.921"
       x2="12.881"
       y2="16.562"
       id="line19"
       style="fill:none;stroke:#000000;stroke-width:0.25;stroke-linecap:round;stroke-linejoin:round;stroke-miterlimit:10" /><g
       id="g21"><path
         stroke-miterlimit="10"
         d="M 5.285,11.307 C 5.173,11.86 5.206,12.447 5.153,13.011 5.099,13.574 5.031,14.134 5.005,14.697 4.978,15.265 4.954,15.82 4.954,16.394"
         id="path23"
         inkscape:connector-curvature="0"
         style="fill:none;stroke:#000000;stroke-width:0.25;stroke-linecap:round;stroke-linejoin:round;stroke-miterlimit:10" /><path
         stroke-miterlimit="10"
         d="m 5.896,11.612 c 0.119,0.058 0.05,0.565 0.032,0.712 -0.042,0.356 -0.031,0.706 -0.063,1.062 -0.049,0.549 -0.134,1.086 -0.224,1.627 -0.077,0.465 -0.084,0.942 -0.126,1.411 -0.024,0.263 -0.13,0.425 -0.116,0.629"
         id="path25"
         inkscape:connector-curvature="0"
         style="fill:none;stroke:#000000;stroke-width:0.25;stroke-linecap:round;stroke-linejoin:round;stroke-miterlimit:10" /><path
         stroke-miterlimit="10"
         d="m 6.607,12.222 c 0.188,0.55 -0.058,1.294 -0.1,1.85 -0.04,0.509 -0.126,1.011 -0.181,1.513 C 6.252,16.293 6.15,16.97 6.15,17.69"
         id="path27"
         inkscape:connector-curvature="0"
         style="fill:none;stroke:#000000;stroke-width:0.25;stroke-linecap:round;stroke-linejoin:round;stroke-miterlimit:10" /><path
         stroke-miterlimit="10"
         d="m 7.243,12.756 c 0,1.174 -0.028,2.386 -0.127,3.555 -0.054,0.634 -0.139,1.258 -0.179,1.888"
         id="path29"
         inkscape:connector-curvature="0"
         style="fill:none;stroke:#000000;stroke-width:0.25;stroke-linecap:round;stroke-linejoin:round;stroke-miterlimit:10" /><path
         stroke-miterlimit="10"
         d="m 8.235,13.341 c 0.088,0.21 -0.021,0.54 -0.059,0.756 -0.061,0.358 -0.126,0.711 -0.19,1.069 -0.098,0.542 -0.114,1.093 -0.139,1.64 -0.024,0.532 -0.145,1.123 -0.096,1.646"
         id="path31"
         inkscape:connector-curvature="0"
         style="fill:none;stroke:#000000;stroke-width:0.25;stroke-linecap:round;stroke-linejoin:round;stroke-miterlimit:10" /><path
         stroke-miterlimit="10"
         d="M 8.846,13.875 C 8.915,14.363 8.78,14.862 8.717,15.35 8.655,15.854 8.664,16.367 8.642,16.876 8.629,17.188 8.62,17.508 8.591,17.817 8.573,18.002 8.606,18.3 8.54,18.453"
         id="path33"
         inkscape:connector-curvature="0"
         style="fill:none;stroke:#000000;stroke-width:0.25;stroke-linecap:round;stroke-linejoin:round;stroke-miterlimit:10" /><path
         stroke-miterlimit="10"
         d="M 9.659,14.308 C 9.783,14.704 9.615,15.18 9.589,15.58 9.556,16.091 9.487,16.597 9.458,17.106 9.44,17.394 9.419,17.68 9.405,17.97 9.396,18.134 9.414,18.4 9.352,18.548 9.353,18.525 9.353,18.502 9.353,18.479"
         id="path35"
         inkscape:connector-curvature="0"
         style="fill:none;stroke:#000000;stroke-width:0.25;stroke-linecap:round;stroke-linejoin:round;stroke-miterlimit:10" /><path
         stroke-miterlimit="10"
         d="m 10.447,14.944 c 0.181,0.246 0.051,0.921 0.051,1.21 0,0.399 -0.018,0.79 -0.082,1.182 -0.066,0.397 -0.152,0.636 -0.154,1.041 0,-0.023 0.019,-0.407 0,-0.178"
         id="path37"
         inkscape:connector-curvature="0"
         style="fill:none;stroke:#000000;stroke-width:0.25;stroke-linecap:round;stroke-linejoin:round;stroke-miterlimit:10" /><path
         stroke-miterlimit="10"
         d="m 11.49,15.757 c 0.168,0.241 0.056,0.887 0.071,1.189 0.013,0.271 0.005,0.547 0.005,0.82"
         id="path39"
         inkscape:connector-curvature="0"
         style="fill:none;stroke:#000000;stroke-width:0.25;stroke-linecap:round;stroke-linejoin:round;stroke-miterlimit:10" /><path
         stroke-miterlimit="10"
         d="m 12.202,16.19 c 0.114,0.344 -0.118,0.85 -0.051,1.145"
         id="path41"
         inkscape:connector-curvature="0"
         style="fill:none;stroke:#000000;stroke-width:0.25;stroke-linecap:round;stroke-linejoin:round;stroke-miterlimit:10" /><path
         stroke-miterlimit="10"
         d="M 4.853,12.146 C 5.052,12.158 5.332,11.943 5.534,11.871 5.707,11.81 5.878,11.748 6.049,11.713"
         id="path43"
         inkscape:connector-curvature="0"
         style="fill:none;stroke:#000000;stroke-width:0.25;stroke-linecap:round;stroke-linejoin:round;stroke-miterlimit:10" /><path
         stroke-miterlimit="10"
         d="m 4.887,12.935 c 0.212,-0.051 0.196,-0.173 0.418,-0.25 0.233,-0.08 0.45,-0.161 0.672,-0.26 0.26,-0.116 0.63,-0.174 0.834,-0.229"
         id="path45"
         inkscape:connector-curvature="0"
         style="fill:none;stroke:#000000;stroke-width:0.25;stroke-linecap:round;stroke-linejoin:round;stroke-miterlimit:10" /><path
         stroke-miterlimit="10"
         d="M 4.611,13.888 C 4.928,13.885 5.215,13.514 5.514,13.391 5.79,13.277 6.054,13.15 6.326,13.029 6.632,12.893 6.965,12.773 7.267,12.705"
         id="path47"
         inkscape:connector-curvature="0"
         style="fill:none;stroke:#000000;stroke-width:0.25;stroke-linecap:round;stroke-linejoin:round;stroke-miterlimit:10" /><path
         stroke-miterlimit="10"
         d="M 4.611,14.576 C 4.998,14.504 5.223,14.262 5.586,14.103 6.023,13.912 6.466,13.729 6.894,13.52 7.223,13.359 7.66,13.133 8.006,13.113"
         id="path49"
         inkscape:connector-curvature="0"
         style="fill:none;stroke:#000000;stroke-width:0.25;stroke-linecap:round;stroke-linejoin:round;stroke-miterlimit:10" /><path
         stroke-miterlimit="10"
         d="M 4.726,15.394 C 4.806,15.419 4.961,15.273 5.112,15.217 5.45,15.089 5.81,15.031 6.151,14.913 6.707,14.721 7.232,14.403 7.76,14.149 8.106,13.982 8.549,13.865 8.846,13.697"
         id="path51"
         inkscape:connector-curvature="0"
         style="fill:none;stroke:#000000;stroke-width:0.25;stroke-linecap:round;stroke-linejoin:round;stroke-miterlimit:10" /><path
         stroke-miterlimit="10"
         d="m 4.849,16.165 c 0.197,-0.022 0.333,-0.16 0.513,-0.254 0.382,-0.2 0.747,-0.417 1.145,-0.585 0.539,-0.229 1.081,-0.447 1.621,-0.667 0.441,-0.179 0.898,-0.338 1.329,-0.478"
         id="path53"
         inkscape:connector-curvature="0"
         style="fill:none;stroke:#000000;stroke-width:0.25;stroke-linecap:round;stroke-linejoin:round;stroke-miterlimit:10" /><path
         stroke-miterlimit="10"
         d="m 5.157,16.721 c 0.227,0.067 0.592,0.002 0.81,-0.078 0.537,-0.196 1.073,-0.385 1.608,-0.588 0.525,-0.2 1.06,-0.376 1.575,-0.596 0.423,-0.179 0.852,-0.376 1.271,-0.515"
         id="path55"
         inkscape:connector-curvature="0"
         style="fill:none;stroke:#000000;stroke-width:0.25;stroke-linecap:round;stroke-linejoin:round;stroke-miterlimit:10" /><path
         stroke-miterlimit="10"
         d="m 5.94,17.453 c 0.68,-0.296 1.169,-0.499 1.855,-0.786 0.627,-0.263 1.23,-0.59 1.858,-0.834 0.451,-0.175 0.907,-0.31 1.327,-0.533"
         id="path57"
         inkscape:connector-curvature="0"
         style="fill:none;stroke:#000000;stroke-width:0.25;stroke-linecap:round;stroke-linejoin:round;stroke-miterlimit:10" /><path
         stroke-miterlimit="10"
         d="m 6.574,17.853 c 1.229,-0.518 2.281,-1.116 3.542,-1.542 0.528,-0.178 1.044,-0.426 1.552,-0.629"
         id="path59"
         inkscape:connector-curvature="0"
         style="fill:none;stroke:#000000;stroke-width:0.25;stroke-linecap:round;stroke-linejoin:round;stroke-miterlimit:10" /><path
         stroke-miterlimit="10"
         d="m 7.548,18.377 c 0.487,-0.193 0.905,-0.541 1.368,-0.783 0.643,-0.335 1.291,-0.672 1.938,-0.999 0.143,-0.072 1.196,-0.617 1.17,-0.66"
         id="path61"
         inkscape:connector-curvature="0"
         style="fill:none;stroke:#000000;stroke-width:0.25;stroke-linecap:round;stroke-linejoin:round;stroke-miterlimit:10" /><path
         stroke-miterlimit="10"
         d="m 8.973,18.605 c 0.731,-0.627 1.567,-1.022 2.264,-1.373 0.482,-0.244 0.948,-0.605 1.449,-0.788"
         id="path63"
         inkscape:connector-curvature="0"
         style="fill:none;stroke:#000000;stroke-width:0.25;stroke-linecap:round;stroke-linejoin:round;stroke-miterlimit:10" /></g><path
       stroke-miterlimit="10"
       d="M 6.042,9.864 C 6.828,9.562 7.429,9.052 8.161,8.715 c 1.532,-0.707 2.706,-0.75 4.011,0.139 1.109,0.756 1.84,1.853 2.036,3.14 0.089,0.576 0.014,1.402 -0.053,1.983 -0.041,0.356 -0.283,1.037 -0.614,1.46 0,0 -0.096,0.127 -0.05,0.097 -0.042,0.039 0.008,0.1 -0.048,0.115 -0.006,0.034 -0.132,0.265 -0.185,0.336 C 12.07,15.396 11.145,14.402 9.94,13.73 9.987,13.739 9.719,13.583 9.764,13.599 8.853,13.048 8.265,12.471 7.481,12.033 6.806,11.657 6.37,11.251 5.737,10.8 5.463,10.605 3.824,9.693 4.304,9.578 4.562,9.516 4.978,10.061 5.175,10.115 5.618,10.236 5.632,10.021 6.042,9.864 Z"
       id="path65"
       inkscape:connector-curvature="0"
       style="fill:none;stroke:#000000;stroke-width:0.25;stroke-linecap:round;stroke-linejoin:round;stroke-miterlimit:10" /><line
       stroke-miterlimit="10"
       x1="5.3559999"
       y1="10.147"
       x2="13.491"
       y2="15.535"
       id="line67"
       style="fill:none;stroke:#000000;stroke-width:0.25;stroke-linecap:round;stroke-linejoin:round;stroke-miterlimit:10" /><g
       id="g69"><path
         stroke-miterlimit="10"
         d="M 5.848,10.349 C 6.325,10.045 6.881,9.864 7.388,9.611 7.894,9.358 8.391,9.092 8.908,8.864 9.428,8.634 9.937,8.411 10.471,8.205"
         id="path71"
         inkscape:connector-curvature="0"
         style="fill:none;stroke:#000000;stroke-width:0.25;stroke-linecap:round;stroke-linejoin:round;stroke-miterlimit:10" /><path
         stroke-miterlimit="10"
         d="M 6.353,10.808 C 6.449,10.898 6.898,10.651 7.029,10.58 7.346,10.413 7.677,10.296 7.998,10.138 8.49,9.894 8.959,9.62 9.432,9.342 9.838,9.102 10.279,8.925 10.704,8.715 10.939,8.597 11.052,8.441 11.247,8.38"
         id="path73"
         inkscape:connector-curvature="0"
         style="fill:none;stroke:#000000;stroke-width:0.25;stroke-linecap:round;stroke-linejoin:round;stroke-miterlimit:10" /><path
         stroke-miterlimit="10"
         d="M 7.179,11.251 C 7.761,11.228 8.365,10.729 8.868,10.489 9.328,10.269 9.764,10.008 10.214,9.776 10.846,9.45 11.442,9.11 12.113,8.85"
         id="path75"
         inkscape:connector-curvature="0"
         style="fill:none;stroke:#000000;stroke-width:0.25;stroke-linecap:round;stroke-linejoin:round;stroke-miterlimit:10" /><path
         stroke-miterlimit="10"
         d="M 7.906,11.652 C 9,11.228 10.121,10.763 11.176,10.249 11.749,9.97 12.299,9.665 12.871,9.401"
         id="path77"
         inkscape:connector-curvature="0"
         style="fill:none;stroke:#000000;stroke-width:0.25;stroke-linecap:round;stroke-linejoin:round;stroke-miterlimit:10" /><path
         stroke-miterlimit="10"
         d="m 8.809,12.365 c 0.229,0.005 0.496,-0.214 0.686,-0.328 0.313,-0.185 0.618,-0.375 0.928,-0.563 0.47,-0.286 0.978,-0.501 1.48,-0.721 0.487,-0.215 0.994,-0.541 1.5,-0.684"
         id="path79"
         inkscape:connector-curvature="0"
         style="fill:none;stroke:#000000;stroke-width:0.25;stroke-linecap:round;stroke-linejoin:round;stroke-miterlimit:10" /><path
         stroke-miterlimit="10"
         d="m 9.527,12.742 c 0.48,-0.111 0.897,-0.418 1.33,-0.652 0.447,-0.242 0.931,-0.418 1.395,-0.622 0.288,-0.125 0.583,-0.249 0.86,-0.387 0.166,-0.083 0.456,-0.161 0.575,-0.277"
         id="path81"
         inkscape:connector-curvature="0"
         style="fill:none;stroke:#000000;stroke-width:0.25;stroke-linecap:round;stroke-linejoin:round;stroke-miterlimit:10" /><path
         stroke-miterlimit="10"
         d="m 10.227,13.345 c 0.413,-0.028 0.795,-0.356 1.16,-0.526 0.465,-0.215 0.912,-0.461 1.376,-0.673 0.262,-0.12 0.521,-0.243 0.785,-0.361 0.151,-0.066 0.405,-0.146 0.521,-0.257 -0.021,0.009 -0.043,0.018 -0.062,0.026"
         id="path83"
         inkscape:connector-curvature="0"
         style="fill:none;stroke:#000000;stroke-width:0.25;stroke-linecap:round;stroke-linejoin:round;stroke-miterlimit:10" /><path
         stroke-miterlimit="10"
         d="m 11.104,13.85 c 0.293,0.079 0.876,-0.285 1.146,-0.39 0.373,-0.144 0.731,-0.301 1.071,-0.503 0.348,-0.205 0.541,-0.372 0.917,-0.519 -0.023,0.009 -0.373,0.164 -0.167,0.064"
         id="path85"
         inkscape:connector-curvature="0"
         style="fill:none;stroke:#000000;stroke-width:0.25;stroke-linecap:round;stroke-linejoin:round;stroke-miterlimit:10" /><path
         stroke-miterlimit="10"
         d="m 12.238,14.529 c 0.284,0.07 0.848,-0.269 1.135,-0.364 0.258,-0.084 0.513,-0.192 0.766,-0.29"
         id="path87"
         inkscape:connector-curvature="0"
         style="fill:none;stroke:#000000;stroke-width:0.25;stroke-linecap:round;stroke-linejoin:round;stroke-miterlimit:10" /><path
         stroke-miterlimit="10"
         d="m 12.898,15.036 c 0.363,-0.017 0.75,-0.417 1.048,-0.46"
         id="path89"
         inkscape:connector-curvature="0"
         style="fill:none;stroke:#000000;stroke-width:0.25;stroke-linecap:round;stroke-linejoin:round;stroke-miterlimit:10" /><path
         stroke-miterlimit="10"
         d="m 6.474,9.642 c 0.086,0.182 -0.015,0.521 -0.01,0.734 0.006,0.182 0.01,0.365 0.038,0.537"
         id="path91"
         inkscape:connector-curvature="0"
         style="fill:none;stroke:#000000;stroke-width:0.25;stroke-linecap:round;stroke-linejoin:round;stroke-miterlimit:10" /><path
         stroke-miterlimit="10"
         d="m 7.222,9.389 c 0.031,0.217 -0.089,0.246 -0.081,0.479 0.01,0.247 0.012,0.479 0,0.722 -0.014,0.283 0.065,0.649 0.088,0.86"
         id="path93"
         inkscape:connector-curvature="0"
         style="fill:none;stroke:#000000;stroke-width:0.25;stroke-linecap:round;stroke-linejoin:round;stroke-miterlimit:10" /><path
         stroke-miterlimit="10"
         d="M 8.012,8.788 C 8.123,9.085 7.881,9.488 7.875,9.81 7.869,10.108 7.846,10.4 7.83,10.699 7.814,11.032 7.822,11.387 7.869,11.694"
         id="path95"
         inkscape:connector-curvature="0"
         style="fill:none;stroke:#000000;stroke-width:0.25;stroke-linecap:round;stroke-linejoin:round;stroke-miterlimit:10" /><path
         stroke-miterlimit="10"
         d="M 8.653,8.54 C 8.725,8.927 8.581,9.225 8.563,9.62 8.542,10.096 8.533,10.575 8.491,11.051 8.46,11.415 8.407,11.904 8.513,12.234"
         id="path97"
         inkscape:connector-curvature="0"
         style="fill:none;stroke:#000000;stroke-width:0.25;stroke-linecap:round;stroke-linejoin:round;stroke-miterlimit:10" /><path
         stroke-miterlimit="10"
         d="M 9.458,8.351 C 9.51,8.417 9.43,8.614 9.432,8.775 9.433,9.136 9.51,9.493 9.523,9.854 c 0.021,0.587 -0.085,1.192 -0.132,1.776 -0.03,0.384 0.021,0.838 -0.029,1.176"
         id="path99"
         inkscape:connector-curvature="0"
         style="fill:none;stroke:#000000;stroke-width:0.25;stroke-linecap:round;stroke-linejoin:round;stroke-miterlimit:10" /><path
         stroke-miterlimit="10"
         d="m 10.219,8.188 c 0.051,0.192 -0.027,0.367 -0.05,0.569 -0.05,0.428 -0.12,0.847 -0.133,1.278 -0.018,0.586 -0.027,1.169 -0.037,1.753 -0.007,0.477 0.01,0.96 0.034,1.412"
         id="path101"
         inkscape:connector-curvature="0"
         style="fill:none;stroke:#000000;stroke-width:0.25;stroke-linecap:round;stroke-linejoin:round;stroke-miterlimit:10" /><path
         stroke-miterlimit="10"
         d="m 10.852,8.275 c 0.144,0.186 0.213,0.551 0.22,0.782 0.01,0.572 0.027,1.14 0.032,1.713 0.002,0.561 0.03,1.123 0.012,1.684 -0.015,0.459 -0.043,0.929 -0.021,1.371"
         id="path103"
         inkscape:connector-curvature="0"
         style="fill:none;stroke:#000000;stroke-width:0.25;stroke-linecap:round;stroke-linejoin:round;stroke-miterlimit:10" /><path
         stroke-miterlimit="10"
         d="m 11.814,8.74 c -0.029,0.741 -0.043,1.271 -0.062,2.015 -0.018,0.68 -0.105,1.36 -0.106,2.034 0,0.485 0.037,0.958 -0.02,1.43"
         id="path105"
         inkscape:connector-curvature="0"
         style="fill:none;stroke:#000000;stroke-width:0.25;stroke-linecap:round;stroke-linejoin:round;stroke-miterlimit:10" /><path
         stroke-miterlimit="10"
         d="m 12.417,9.188 c -0.04,1.333 -0.217,2.53 -0.158,3.86 0.024,0.556 -0.02,1.127 -0.026,1.674"
         id="path107"
         inkscape:connector-curvature="0"
         style="fill:none;stroke:#000000;stroke-width:0.25;stroke-linecap:round;stroke-linejoin:round;stroke-miterlimit:10" /><path
         stroke-miterlimit="10"
         d="m 13.259,9.907 c -0.005,0.523 -0.179,1.038 -0.236,1.559 -0.081,0.72 -0.162,1.445 -0.23,2.167 -0.017,0.16 -0.145,1.338 -0.195,1.33"
         id="path109"
         inkscape:connector-curvature="0"
         style="fill:none;stroke:#000000;stroke-width:0.25;stroke-linecap:round;stroke-linejoin:round;stroke-miterlimit:10" /><path
         stroke-miterlimit="10"
         d="m 13.986,11.151 c -0.322,0.91 -0.388,1.832 -0.465,2.607 -0.052,0.537 -0.222,1.103 -0.211,1.636"
         id="path111"
         inkscape:connector-curvature="0"
         style="fill:none;stroke:#000000;stroke-width:0.25;stroke-linecap:round;stroke-linejoin:round;stroke-miterlimit:10" /></g></g></svg>