<?xml version="1.0" encoding="UTF-8" standalone="no"?>
<!-- Generator: Adobe Illustrator 16.0.0, SVG Export Plug-In . SVG Version: 6.00 Build 0)  -->

<svg
   xmlns:dc="http://purl.org/dc/elements/1.1/"
   xmlns:cc="http://creativecommons.org/ns#"
   xmlns:rdf="http://www.w3.org/1999/02/22-rdf-syntax-ns#"
   xmlns:svg="http://www.w3.org/2000/svg"
   xmlns="http://www.w3.org/2000/svg"
   xmlns:sodipodi="http://sodipodi.sourceforge.net/DTD/sodipodi-0.dtd"
   xmlns:inkscape="http://www.inkscape.org/namespaces/inkscape"
   version="1.1"
   id="Layer_1"
   x="0px"
   y="0px"
   width="23.978001"
   height="16.169001"
   viewBox="0 0 23.978001 16.169001"
   enable-background="new 0 0 39.604 41.771"
   xml:space="preserve"
   inkscape:version="0.91 r13725"
   sodipodi:docname="teapot.svg"><metadata
     id="metadata13"><rdf:RDF><cc:Work
         rdf:about=""><dc:format>image/svg+xml</dc:format><dc:type
           rdf:resource="http://purl.org/dc/dcmitype/StillImage" /><dc:title></dc:title></cc:Work></rdf:RDF></metadata><defs
     id="defs11" /><sodipodi:namedview
     pagecolor="#ffffff"
     bordercolor="#666666"
     borderopacity="1"
     objecttolerance="10"
     gridtolerance="10"
     guidetolerance="10"
     inkscape:pageopacity="0"
     inkscape:pageshadow="2"
     inkscape:window-width="1237"
     inkscape:window-height="678"
     id="namedview9"
     showgrid="false"
     inkscape:zoom="5.6498528"
     inkscape:cx="20.598481"
     inkscape:cy="20.8855"
     inkscape:window-x="20"
     inkscape:window-y="43"
     inkscape:window-maximized="0"
     inkscape:current-layer="Layer_1" /><g
     id="g3"
     transform="translate(-5.3967768,-12.798636)"><path
       d="m 29.254,19.052 c -0.293,-1.195 -1.228,-2.35 -2.512,-2.501 -1.028,-0.121 -2.07,0.379 -2.478,1.333 -0.408,-0.56 -0.896,-1.069 -1.457,-1.507 0.024,-0.025 0.051,-0.048 0.074,-0.074 0.041,-0.042 0.038,-0.094 0.015,-0.133 0.019,-0.037 0.019,-0.082 -0.012,-0.122 -0.916,-1.163 -2.288,-1.892 -3.776,-1.908 0.025,-0.202 0.013,-0.406 -0.056,-0.598 -0.145,-0.405 -0.494,-0.706 -0.929,-0.74 -0.43,-0.034 -0.834,0.182 -1.006,0.584 -0.111,0.259 -0.113,0.519 -0.055,0.771 -0.808,0.116 -1.576,0.367 -2.279,0.788 -0.561,0.334 -1.389,0.868 -1.598,1.514 -0.012,0.036 0.008,0.083 0.041,0.102 0.03,0.015 0.06,0.031 0.09,0.046 0.033,0.018 0.063,-0.011 0.059,-0.045 -0.08,-0.523 1.367,-1.347 1.725,-1.542 0.635,-0.347 1.313,-0.551 2.025,-0.655 0.095,0.261 0.245,0.51 0.397,0.734 0.009,0.013 0.021,0.021 0.031,0.024 10e-4,0 10e-4,0.001 0.002,0.001 0.192,0.149 0.409,0.225 0.654,0.203 0.198,-0.018 0.488,-0.096 0.578,-0.292 0.009,-0.018 0.007,-0.038 0.001,-0.057 0.134,-0.204 0.24,-0.44 0.294,-0.685 0.007,0.003 0.014,0.006 0.021,0.006 1.435,0.136 2.679,0.746 3.598,1.861 -1.234,1.271 -2.927,1.652 -4.651,1.625 -1.555,-0.023 -3.531,-0.06 -4.745,-1.16 -0.071,-0.064 -0.17,0.034 -0.104,0.105 0.045,0.049 0.095,0.094 0.144,0.139 -0.001,0 -0.003,0 -0.004,0.001 -1.125,0.678 -1.79,1.883 -2.111,3.234 C 9.986,20.034 9.534,18.952 9.29,17.894 9.199,17.501 9.123,17.139 8.81,16.864 8.054,16.202 6.506,16.379 5.607,16.37 c -0.036,0 -0.059,0.019 -0.069,0.043 -0.066,-0.02 -0.146,0.013 -0.141,0.103 0.036,0.586 0.343,0.93 0.817,1.249 0.578,0.389 1.077,0.665 1.457,1.283 0.287,0.468 0.469,0.993 0.654,1.506 0.469,1.294 1.146,2.856 2.741,2.86 0.073,0.618 0.2,1.204 0.371,1.72 1.022,3.08 4.281,4.043 7.239,3.797 2.416,-0.201 4.672,-1.161 5.946,-3.109 0.018,0.029 0.046,0.05 0.085,0.045 2.912,-0.333 5.232,-4.021 4.547,-6.815 z M 18.571,14.988 c -0.001,0.001 0,0.003 0,0.005 -0.108,0.058 -0.208,0.123 -0.343,0.142 -0.204,0.028 -0.408,-0.015 -0.584,-0.122 -0.012,-0.007 -0.023,-0.009 -0.035,-0.009 -0.192,-0.376 -0.405,-0.79 -0.367,-1.224 0.046,-0.518 0.49,-0.866 1.003,-0.734 0.422,0.108 0.67,0.543 0.653,0.962 -0.013,0.358 -0.245,0.642 -0.327,0.98 z m -7.523,8.27 C 9.162,23.008 8.847,21.039 8.208,19.585 8.008,19.129 7.767,18.692 7.42,18.331 6.858,17.746 5.732,17.486 5.626,16.534 c 0.717,0.07 1.466,0.049 2.175,0.176 1.165,0.209 1.149,1.172 1.493,2.068 0.329,0.861 0.967,1.485 1.891,1.546 -0.2,0.961 -0.235,1.982 -0.137,2.934 z m 7.629,5.455 c -2.846,0.248 -6.038,-0.655 -7.027,-3.635 -0.877,-2.643 -0.494,-6.29 1.778,-8.093 0.008,-0.006 0.013,-0.013 0.017,-0.021 1.184,1.01 3.148,1.024 4.607,1.048 1.672,0.027 3.348,-0.33 4.592,-1.473 2.269,1.775 3.346,4.665 2.551,7.479 -0.857,3.03 -3.558,4.439 -6.518,4.695 z m 6.518,-9.114 c 0.032,-0.009 0.059,-0.031 0.065,-0.071 0.204,-1.261 1.613,-1.882 2.473,-0.777 0.57,0.735 0.432,1.562 0.118,2.394 -0.477,1.261 -1.384,2.245 -2.466,3.016 0.456,-1.543 0.358,-3.134 -0.19,-4.562 z m 3.896,0.93 c -0.259,2.319 -1.987,4.703 -4.362,5.125 0.241,-0.398 0.444,-0.834 0.601,-1.312 0.005,-10e-4 0.01,-0.002 0.016,-0.005 1.642,-0.884 3.688,-3.371 2.861,-5.383 -0.653,-1.591 -2.825,-1.195 -3.13,0.353 -0.193,-0.446 -0.429,-0.874 -0.708,-1.277 0.63,-1.17 2.1,-1.629 3.268,-0.92 1.164,0.707 1.597,2.13 1.454,3.419 z"
       id="path5"
       inkscape:connector-curvature="0" /><path
       d="M 8.305,17.059 C 8.278,16.97 8.131,16.982 8.136,17.082 8.151,17.386 6.01,17.177 6.027,16.727 6.029,16.656 5.918,16.64 5.902,16.71 c -0.106,0.497 0.923,0.622 1.227,0.668 0.252,0.039 1.346,0.238 1.176,-0.319 z"
       id="path7"
       inkscape:connector-curvature="0" /></g></svg>